<svg width="907" height="251" viewBox="0 0 907 251" fill="none" xmlns="http://www.w3.org/2000/svg">
<path d="M81.9429 109.39L85.1958 120.506C85.1031 121.089 84.8081 121.656 84.3499 122.106L81.3786 111.318L81.9429 109.39ZM92.3591 99.1801L91.193 98.4691L93.2942 98.0049C92.9743 98.3902 92.6625 98.782 92.3591 99.1801ZM123.068 91.4275C128.394 91.217 132.933 87.0168 132.933 81.5007C132.933 75.8403 128.154 71.5655 122.649 71.5655C104.2 71.5655 87.9497 80.9475 78.9888 95.0511C74.3432 102.363 71.6586 110.944 71.6586 120.112C71.6586 125.772 76.4381 130.047 81.9429 130.047C87.4477 130.047 92.2272 125.772 92.2272 120.112C92.2272 114.879 93.7203 109.968 96.3391 105.731C99.2641 100.998 103.599 97.0995 108.82 94.5752L123.068 91.4275ZM119.149 80.9182V82.1991L117.931 81.5724L119.149 80.9182ZM105.845 88.0636L111.963 84.7774L111.314 86.0401L111.397 86.0832C109.729 86.5855 108.111 87.1964 106.551 87.9076L105.845 88.0636ZM88.6842 105.138C88.5379 105.439 88.3958 105.742 88.2581 106.047L87.8419 104.624L88.6842 105.138ZM69.0623 164.303L69.0621 164.303C58.124 152.466 51.5212 137.019 51.5212 120.112C51.5212 84.6807 81.0435 52.9441 122.426 52.8248L122.426 52.8248C161.991 52.7093 193.777 83.0506 193.777 120.112C193.777 137.019 187.174 152.466 176.236 164.303L176.236 164.303C169.374 171.729 158.84 186.778 154.044 200.273H91.254C86.4576 186.778 75.9237 171.729 69.0623 164.303Z" stroke="white" stroke-width="7"/>
<path d="M150.016 217.954H96.4648C94.0812 217.954 92.1489 216.021 92.1489 213.638C92.1489 211.254 94.0812 209.322 96.4648 209.322H150.016C152.355 209.322 154.269 211.186 154.33 213.524C154.394 215.951 152.444 217.954 150.016 217.954Z" fill="white"/>
<path d="M127.191 4.59915V26.2852C127.191 28.794 125.158 30.8278 122.649 30.8278C120.14 30.8278 118.106 28.794 118.106 26.2852V4.59915C118.106 2.1123 120.106 0.0877342 122.593 0.0569439C125.123 0.0256081 127.191 2.06838 127.191 4.59915Z" fill="white"/>
<path d="M118.106 4.59915V26.2852C118.106 28.794 120.14 30.8278 122.649 30.8278C125.158 30.8278 127.192 28.794 127.192 26.2852V4.59915C127.192 2.1123 125.192 0.0877342 122.705 0.0569439C120.175 0.0256081 118.106 2.06838 118.106 4.59915Z" fill="white"/>
<path d="M43.3504 59.5664L24.3834 46.4736C22.3855 45.0946 21.9614 42.4133 23.436 40.485C24.9107 38.5566 27.7256 38.1113 29.7235 39.4904L48.6905 52.5831C50.6696 53.9493 51.1074 56.5971 49.6729 58.5254C48.2112 60.4901 45.367 60.9584 43.3504 59.5664Z" fill="white"/>
<path d="M201.103 59.5585L219.854 46.4815C221.838 45.0981 222.263 42.4133 220.803 40.485C219.343 38.5566 216.552 38.1148 214.568 39.4983L195.818 52.5752C193.852 53.9458 193.414 56.5972 194.834 58.5255C196.281 60.4902 199.101 60.9549 201.103 59.5585Z" fill="white"/>
<path d="M35.5426 200.91L51.1021 184.492C52.7898 182.711 55.6694 182.56 57.5338 184.155C59.3982 185.75 59.5414 188.487 57.8537 190.268L42.2941 206.686C40.6219 208.451 37.7754 208.617 35.9065 207.06C34.0031 205.474 33.8394 202.707 35.5426 200.91Z" fill="white"/>
<path d="M208.823 200.914L193.416 184.488C191.747 182.709 188.899 182.56 187.053 184.155C185.208 185.75 185.065 188.485 186.733 190.264L202.141 206.69C203.794 208.452 206.61 208.617 208.46 207.06C210.344 205.474 210.507 202.709 208.823 200.914Z" fill="white"/>
<path d="M4.37341 123.009L28.1133 122.221C30.4957 122.142 32.4981 124.009 32.5856 126.391C32.6732 128.773 30.8128 130.769 28.4303 130.848L4.69047 131.635C2.3311 131.714 0.339773 129.882 0.22072 127.524C0.0993326 125.12 1.96782 123.089 4.37341 123.009Z" fill="white"/>
<path d="M239.627 123.007L216.217 122.223C213.835 122.143 211.834 124.009 211.747 126.391C211.66 128.773 213.521 130.769 215.904 130.849L239.313 131.634C241.673 131.713 243.664 129.882 243.782 127.524C243.902 125.12 242.033 123.088 239.627 123.007Z" fill="white"/>
<path d="M138.995 232.751H107.529C105.486 232.751 103.83 231.095 103.83 229.052C103.83 227.008 105.486 225.352 107.529 225.352H138.995C141.01 225.352 142.655 226.966 142.694 228.981C142.733 231.051 141.066 232.751 138.995 232.751Z" fill="white"/>
<path d="M380.2 175.6C385 174.8 389.6 173.333 394 171.2C398.533 169.067 402.6 166.333 406.2 163C406.467 162.867 407 162.4 407.8 161.6C408.6 160.8 409.133 160.533 409.4 160.8C409.667 161.067 409.6 161.467 409.2 162C408.8 162.533 408.467 163 408.2 163.4C405.533 167.267 402 170.467 397.6 173C393.333 175.4 388.867 177.333 384.2 178.8C380.333 179.867 376.2 180.267 371.8 180C367.4 179.6 363.267 178.467 359.4 176.6C358.2 176.067 357.467 175.667 357.2 175.4C356.933 175 356.933 174.733 357.2 174.6C357.467 174.467 357.867 174.4 358.4 174.4C359.067 174.4 359.667 174.467 360.2 174.6C361.667 174.867 363.333 175.133 365.2 175.4C367.2 175.533 369.133 175.667 371 175.8C373 175.8 374.8 175.8 376.4 175.8C378 175.8 379.267 175.733 380.2 175.6ZM353.4 116.8C352.733 121.467 352.4 126.067 352.4 130.6C352.4 135 352.667 139.2 353.2 143.2C353.867 147.067 354.8 150.533 356 153.6C357.333 156.667 358.933 159.2 360.8 161.2C362.933 163.333 365.533 165 368.6 166.2C371.8 167.267 375.2 167.8 378.8 167.8C382.533 167.8 386.4 167.267 390.4 166.2C394.533 165.133 398.6 163.467 402.6 161.2C403.4 160.667 403.933 160.533 404.2 160.8C404.467 161.067 404.333 161.4 403.8 161.8C403.4 162.067 403 162.333 402.6 162.6C399.133 165.267 395.467 167.4 391.6 169C387.733 170.6 383.8 171.6 379.8 172C375.933 172.4 372.133 172.2 368.4 171.4C364.8 170.467 361.533 168.8 358.6 166.4C355.8 164 353.533 161.133 351.8 157.8C350.067 154.333 348.733 150.6 347.8 146.6C347 142.467 346.533 138.2 346.4 133.8C346.267 129.4 346.4 125.067 346.8 120.8C347.333 114 348.667 107.133 350.8 100.2C352.933 93.2667 355.733 86.8667 359.2 81C362.8 75.1333 367.067 70 372 65.6C376.933 61.2 382.467 58.1333 388.6 56.4C391.667 55.6 394.8 55.2667 398 55.4C401.2 55.5333 404.133 56.1333 406.8 57.2C409.6 58.2667 412 59.8667 414 62C416 64 417.333 66.4667 418 69.4C418.667 72.6 418.4 75.7333 417.2 78.8C416 81.7333 414.333 84.3333 412.2 86.6C410.067 88.7333 407.667 90.2667 405 91.2C402.333 92.1333 399.8 92.1333 397.4 91.2C397.267 91.2 397.133 91 397 90.6C397 90.2 397.267 90.0667 397.8 90.2C399.4 90.4667 401.2 90.1333 403.2 89.2C405.333 88.1333 407.2 86.7333 408.8 85C410.533 83.2667 411.867 81.2 412.8 78.8C413.867 76.4 414.2 73.9333 413.8 71.4C413.4 69.5333 412.533 67.9333 411.2 66.6C410 65.1333 408.4 64 406.4 63.2C404.4 62.2667 402.133 61.6667 399.6 61.4C397.2 61.1333 394.667 61.2667 392 61.8C386.933 62.7333 382.2 65 377.8 68.6C373.533 72.0667 369.733 76.3333 366.4 81.4C363.067 86.4667 360.267 92.1333 358 98.4C355.733 104.533 354.2 110.667 353.4 116.8ZM369.2 183C370.667 183.133 372.133 183.2 373.6 183.2C375.2 183.2 376 183.4 376 183.8C376 183.933 375.733 184 375.2 184C374.667 184.133 374.067 184.2 373.4 184.2C372.867 184.2 372.267 184.2 371.6 184.2C370.933 184.2 370.533 184.2 370.4 184.2C366.267 184.2 362.2 183.6 358.2 182.4C354.2 181.2 350.467 179.533 347 177.4C343.667 175.133 340.667 172.4 338 169.2C335.333 166 333.333 162.333 332 158.2C329.333 150.067 327.8 142.133 327.4 134.4C327 126.667 327.333 119.067 328.4 111.6C328.933 107.333 329.933 102.533 331.4 97.2C333 91.7333 335.067 86.2 337.6 80.6C340.267 75 343.533 69.4667 347.4 64C351.4 58.5333 356.133 53.5333 361.6 49C367.333 44.2 373.667 41 380.6 39.4C387.667 37.8 394.4 37.5333 400.8 38.6C407.2 39.6667 412.867 41.9333 417.8 45.4C422.733 48.7333 426 53 427.6 58.2C427.733 58.4667 427.867 59.0667 428 60C428.133 60.8 428.067 61.3333 427.8 61.6C427.667 61.7333 427.467 61.4 427.2 60.6C426.933 59.8 426.667 59.2667 426.4 59C420.8 51.4 414.467 46.6 407.4 44.6C400.333 42.4667 393.333 42.2667 386.4 44C379.467 45.6 372.933 48.6667 366.8 53.2C360.667 57.6 355.8 62.5333 352.2 68C345.933 77.4667 341.133 87.5333 337.8 98.2C334.6 108.867 333.133 119.867 333.4 131.2C333.533 136.4 334.067 141.867 335 147.6C336.067 153.333 338.067 158.8 341 164C343.933 169.333 347.933 173.8 353 177.4C358.2 180.867 363.6 182.733 369.2 183ZM340.4 107.8C341.467 100.733 343.133 93.8667 345.4 87.2C347.8 80.5333 350.867 74.4667 354.6 69C358.467 63.4 363.2 58.6 368.8 54.6C374.4 50.6 381 47.8 388.6 46.2C391.267 45.6667 394.267 45.4667 397.6 45.6C400.933 45.6 404.267 46.2 407.6 47.4C410.933 48.4667 414 50.1333 416.8 52.4C419.733 54.6667 422.133 57.8 424 61.8C425.733 65.6667 426.333 69.4667 425.8 73.2C425.267 76.9333 424.133 80.3333 422.4 83.4C420.667 86.3333 418.533 88.8 416 90.8C413.467 92.8 411 93.9333 408.6 94.2C407.133 94.4667 406.333 94.4667 406.2 94.2C406.067 93.8 406.8 93.3333 408.4 92.8C410.933 92 413.467 90 416 86.8C418.667 83.4667 420.267 79.2667 420.8 74.2C421.067 71.6667 420.733 69.2 419.8 66.8C418.867 64.2667 417.533 62.0667 415.8 60.2C414.067 58.3333 412 56.7333 409.6 55.4C407.2 54.0667 404.667 53.2 402 52.8C396.267 52 391 52.4 386.2 54C381.4 55.6 377.2 57.6667 373.6 60.2C370.133 62.6 367.267 65 365 67.4C362.867 69.8 361.533 71.4 361 72.2C356.867 77.4 353.267 83.0667 350.2 89.2C347.133 95.2 344.6 101.533 342.6 108.2C342.6 108.333 342.467 108.8 342.2 109.6C342.067 110.4 341.867 111.267 341.6 112.2C341.467 113 341.267 113.8 341 114.6C340.733 115.267 340.533 115.6 340.4 115.6C340.133 115.6 340 115.2 340 114.4C340 113.6 340 112.8 340 112C340 111.067 340.067 110.2 340.2 109.4C340.333 108.6 340.4 108.067 340.4 107.8ZM468.447 39.4C467.914 38.2 467.78 37.6 468.047 37.6C468.447 37.6 468.914 37.9333 469.447 38.6C469.98 39.1333 470.314 39.4667 470.447 39.6C471.78 41.6 473.247 43.8 474.847 46.2C476.447 48.4667 477.98 51.2 479.447 54.4C480.914 57.6 482.247 61.3333 483.447 65.6C484.647 69.7333 485.58 74.6667 486.247 80.4C487.047 86.9333 487.18 93.4 486.647 99.8C486.247 106.067 485.514 112.4 484.447 118.8C484.314 119.067 484.18 119.733 484.047 120.8C483.914 121.867 483.647 122.4 483.247 122.4C482.98 122.4 482.714 121.933 482.447 121C482.18 119.933 482.047 119.2 482.047 118.8C481.78 117.333 481.514 115.6 481.247 113.6C480.98 111.6 480.714 109.533 480.447 107.4C480.314 105.133 480.18 103 480.047 101C480.047 98.8667 480.047 97 480.047 95.4C480.047 94.8667 479.98 93.7333 479.847 92C479.847 90.1333 479.78 88 479.647 85.6C479.514 83.2 479.247 80.6 478.847 77.8C478.58 74.8667 478.247 72 477.847 69.2C478.114 73.3333 478.114 77.4667 477.847 81.6C477.58 85.7333 477.247 89.9333 476.847 94.2C476.447 98.3333 476.114 102.533 475.847 106.8C475.58 110.933 475.58 115.133 475.847 119.4C476.247 127.667 477.914 136.067 480.847 144.6C483.78 153.133 488.447 160.4 494.847 166.4C495.647 167.2 495.98 167.6 495.847 167.6C495.58 167.733 495.114 167.6 494.447 167.2C489.78 164.533 485.914 161.333 482.847 157.6C479.78 153.867 477.247 149.8 475.247 145.4C473.38 141 471.98 136.467 471.047 131.8C470.114 127 469.58 122.2 469.447 117.4C469.447 117 469.38 116.667 469.247 116.4C469.247 116 469.247 115.6 469.247 115.2C466.58 122.8 463.58 130.133 460.247 137.2C457.047 144.267 453.847 151.067 450.647 157.6C447.58 164.133 444.647 170.333 441.847 176.2C439.18 181.933 437.047 187.267 435.447 192.2C435.18 192.867 434.98 193.2 434.847 193.2C434.58 193.2 434.447 193 434.447 192.6C434.447 192.2 434.447 191.933 434.447 191.8C434.58 185.533 435.847 179 438.247 172.2C440.647 165.267 443.447 158.133 446.647 150.8C449.98 143.333 453.447 135.733 457.047 128C460.647 120.133 463.78 112.133 466.447 104C468.047 98.8 469.38 93.4 470.447 87.8C471.647 82.2 472.38 76.6 472.647 71C472.914 65.4 472.714 59.9333 472.047 54.6C471.38 49.1333 470.18 44.0667 468.447 39.4ZM493.247 154.6C494.714 157.667 496.647 160.533 499.047 163.2C499.98 157.6 501.78 152.067 504.447 146.6C507.114 141 510.114 135.4 513.447 129.8C516.914 124.2 520.514 118.6 524.247 113C527.98 107.4 531.447 101.733 534.647 96C537.047 91.8667 539.047 87.4 540.647 82.6C542.38 77.8 543.58 72.9333 544.247 68C545.047 62.9333 545.247 57.9333 544.847 53C544.58 48.0667 543.58 43.4 541.847 39C541.447 38.3333 541.38 37.8667 541.647 37.6C541.914 37.3333 542.314 37.5333 542.847 38.2C543.514 38.7333 543.914 39.1333 544.047 39.4C545.647 41.6667 546.914 44.6667 547.847 48.4C548.914 52 549.647 56.0667 550.047 60.6C550.58 65 550.847 69.6667 550.847 74.6C550.847 79.5333 550.647 84.4667 550.247 89.4C549.714 95.9333 548.714 103.067 547.247 110.8C545.914 118.533 544.247 125.6 542.247 132C542.114 132.267 541.847 132.867 541.447 133.8C541.18 134.733 540.847 135.2 540.447 135.2C540.18 135.067 539.98 134.533 539.847 133.6C539.714 132.533 539.647 131.867 539.647 131.6C539.647 130.133 539.647 128.4 539.647 126.4C539.78 124.267 539.914 122.133 540.047 120C540.18 117.733 540.314 115.6 540.447 113.6C540.714 111.467 540.98 109.667 541.247 108.2C541.38 107.4 541.58 105.6 541.847 102.8C542.247 99.8667 542.58 96.6 542.847 93C541.247 96.7333 539.98 100.067 539.047 103C538.114 105.933 537.314 108.8 536.647 111.6C535.98 114.4 535.38 117.333 534.847 120.4C534.447 123.467 534.047 127.067 533.647 131.2C533.247 135.333 533.047 139.667 533.047 144.2C533.18 148.733 533.647 153.2 534.447 157.6C535.38 162 536.647 166.333 538.247 170.6C539.98 174.733 542.18 178.533 544.847 182C545.38 182.8 545.514 183.267 545.247 183.4C544.98 183.533 544.647 183.4 544.247 183C539.98 179.533 536.58 175.667 534.047 171.4C531.647 167 529.847 162.4 528.647 157.6C527.447 152.8 526.78 147.933 526.647 143C526.647 137.933 526.914 133 527.447 128.2C527.714 126.467 527.914 124.733 528.047 123C528.314 121.267 528.58 119.467 528.847 117.6C525.78 122.533 522.714 127.333 519.647 132C516.58 136.667 513.714 141.333 511.047 146C508.38 150.533 505.98 155.067 503.847 159.6C501.847 164 500.314 168.4 499.247 172.8C498.98 173.467 498.847 173.8 498.847 173.8C498.58 173.8 498.447 173.533 498.447 173C498.447 172.467 498.447 172.133 498.447 172C498.447 170.933 498.447 169.867 498.447 168.8C498.447 167.733 498.58 166.667 498.847 165.6C497.78 165.067 496.847 164.6 496.047 164.2C495.247 163.667 494.447 163.067 493.647 162.4C492.98 161.733 492.247 160.933 491.447 160C490.78 159.067 490.047 157.867 489.247 156.4C488.58 155.067 487.914 153.467 487.247 151.6C486.58 149.733 485.98 147.933 485.447 146.2C485.047 144.333 484.78 142.8 484.647 141.6C484.647 140.267 484.847 139.6 485.247 139.6C485.514 139.6 485.78 139.867 486.047 140.4C486.447 140.8 486.847 141.333 487.247 142C487.647 142.667 487.98 143.333 488.247 144C488.514 144.667 488.714 145.133 488.847 145.4C489.514 147 490.18 148.6 490.847 150.2C491.647 151.667 492.447 153.133 493.247 154.6ZM497.447 117.6C500.38 111.867 503.38 106.333 506.447 101C509.647 95.5333 512.18 91.2 514.047 88C517.247 82.2667 520.58 76.6667 524.047 71.2C527.514 65.6 530.514 60.6667 533.047 56.4C533.314 55.7333 533.58 55.1333 533.847 54.6C534.247 54.0667 534.58 53.9333 534.847 54.2C535.114 54.2 535.18 54.5333 535.047 55.2C534.914 55.8667 534.78 56.5333 534.647 57.2C532.78 66.8 529.38 75.8667 524.447 84.4C519.647 92.9333 514.58 101.533 509.247 110.2C507.38 113.133 505.714 115.6 504.247 117.6C502.914 119.467 501.714 121.333 500.647 123.2C499.714 124.933 498.914 126.867 498.247 129C497.58 131.133 497.114 133.867 496.847 137.2C497.38 135.733 497.98 134.333 498.647 133C499.314 131.667 499.98 130.4 500.647 129.2C504.38 122.8 508.58 116.4 513.247 110C517.914 103.6 522.514 97.6 527.047 92C527.314 91.7333 527.78 91.2 528.447 90.4C529.247 89.4667 529.78 89.0667 530.047 89.2C530.314 89.3333 530.247 89.9333 529.847 91C529.58 92.0667 529.38 92.8667 529.247 93.4C528.58 94.8667 527.714 96.6667 526.647 98.8C525.714 100.933 524.647 103.133 523.447 105.4C522.38 107.533 521.247 109.667 520.047 111.8C518.847 113.8 517.78 115.467 516.847 116.8C516.314 117.6 515.18 119.2 513.447 121.6C511.714 124 509.847 127 507.847 130.6C505.847 134.2 503.847 138.267 501.847 142.8C499.98 147.333 498.58 152.133 497.647 157.2C497.247 156.4 496.714 155.4 496.047 154.2C495.514 153 494.847 151.067 494.047 148.4C491.647 140 490.314 131.533 490.047 123C489.914 114.333 489.914 105.467 490.047 96.4C490.18 90.6667 490.18 84.9333 490.047 79.2C490.047 73.4667 489.114 67.4 487.247 61C487.114 60.4667 487.114 60.0667 487.247 59.8C487.514 59.8 487.914 60.2 488.447 61C490.847 63.5333 492.647 67.2667 493.847 72.2C495.047 77 495.914 82.1333 496.447 87.6C496.98 92.9333 497.247 98.2 497.247 103.4C497.38 108.467 497.447 112.533 497.447 115.6V117.6ZM444.847 100.2C447.114 93.2667 449.647 86.2667 452.447 79.2C455.38 72.1333 457.914 65.8 460.047 60.2C460.314 59.5333 460.58 58.8667 460.847 58.2C461.247 57.5333 461.58 57.2667 461.847 57.4C462.114 57.4 462.18 57.8667 462.047 58.8C462.047 59.6 462.047 60.3333 462.047 61C460.847 71.9333 458.447 82.8 454.847 93.6C451.247 104.4 447.247 115.067 442.847 125.6C440.18 132.267 437.314 139 434.247 145.8C431.18 152.467 428.647 159.733 426.647 167.6C426.38 168.267 426.247 168.667 426.247 168.8C426.38 168.933 426.38 169 426.247 169C425.847 168.733 425.647 168.133 425.647 167.2C424.98 163.2 425.38 158.2 426.847 152.2C428.314 146.067 430.18 139.8 432.447 133.4C434.714 126.867 437.047 120.667 439.447 114.8C441.847 108.8 443.647 103.933 444.847 100.2ZM436.247 147.8C439.58 140.2 443.18 132.4 447.047 124.4C450.914 116.267 454.647 108.533 458.247 101.2C458.38 100.8 458.714 100.067 459.247 99C459.914 97.9333 460.514 97.4667 461.047 97.6C461.314 97.6 461.38 98.2 461.247 99.4C461.114 100.6 460.914 101.467 460.647 102C460.247 103.867 459.714 106.133 459.047 108.8C458.38 111.333 457.58 114 456.647 116.8C455.847 119.467 454.98 122.133 454.047 124.8C453.114 127.333 452.247 129.467 451.447 131.2C451.047 132 450.314 133.733 449.247 136.4C448.314 138.933 447.114 142 445.647 145.6C444.314 149.2 442.847 153.067 441.247 157.2C439.78 161.2 438.38 165.067 437.047 168.8C435.714 172.4 434.514 175.667 433.447 178.6C432.514 181.4 431.98 183.4 431.847 184.6C431.58 185.933 431.314 186.6 431.047 186.6C430.78 186.6 430.58 186.333 430.447 185.8C430.447 185.267 430.38 184.867 430.247 184.6C429.58 183 429.247 180.667 429.247 177.6C429.38 174.533 429.78 171.267 430.447 167.8C431.114 164.333 431.914 160.8 432.847 157.2C433.914 153.6 435.047 150.467 436.247 147.8ZM555.447 130.6C554.78 136.6 553.714 142.6 552.247 148.6C550.914 154.6 549.714 159.933 548.647 164.6C548.114 166.333 547.714 167.133 547.447 167C547.18 167 546.98 166.733 546.847 166.2C546.847 165.533 546.78 164.867 546.647 164.2C545.58 155.267 545.714 146.333 547.047 137.4C548.38 128.467 549.847 119.333 551.447 110C552.514 104.4 553.38 98.6667 554.047 92.8C554.714 86.8 554.714 80.4 554.047 73.6C554.047 73.0667 554.18 72.6667 554.447 72.4C554.714 72.4 554.847 72.6 554.847 73C554.98 73.2667 555.18 73.4667 555.447 73.6C557.447 76.5333 558.58 80.6 558.847 85.8C559.247 90.8667 559.247 96.2 558.847 101.8C558.447 107.4 557.847 112.8 557.047 118C556.38 123.2 555.847 127.4 555.447 130.6ZM464.847 54.2C464.58 51.4 464.18 48.8 463.647 46.4C463.247 44 462.714 41.5333 462.047 39C461.914 38.7333 461.847 38.4 461.847 38C461.847 37.6 461.914 37.4 462.047 37.4C462.447 37.4 462.847 37.6 463.247 38L464.047 38.8C465.514 40.8 466.714 42.8 467.647 44.8C468.58 46.6667 469.18 49.8 469.447 54.2C469.58 55.9333 469.58 58.0667 469.447 60.6C469.314 63.1333 469.047 65.5333 468.647 67.8C468.38 70.0667 467.98 72 467.447 73.6C467.047 75.2 466.647 75.9333 466.247 75.8C465.98 75.8 465.78 75.4667 465.647 74.8C465.514 74 465.38 73.1333 465.247 72.2C465.247 71.2667 465.247 70.3333 465.247 69.4C465.247 68.3333 465.247 67.6 465.247 67.2C465.247 64.9333 465.247 62.8 465.247 60.8C465.247 58.6667 465.114 56.4667 464.847 54.2ZM538.047 51.6C537.914 49.2 537.647 46.9333 537.247 44.8C536.98 42.6667 536.514 40.4667 535.847 38.2C535.714 37.9333 535.58 37.6 535.447 37.2C535.447 36.8 535.58 36.6667 535.847 36.8C536.114 37.0667 536.314 37.2667 536.447 37.4C536.714 37.5333 536.98 37.6667 537.247 37.8L537.647 38.2C539.114 40.0667 540.247 41.8667 541.047 43.6C541.98 45.3333 542.514 48.2 542.647 52.2C542.647 53.6667 542.447 55.5333 542.047 57.8C541.78 60.0667 541.38 62.2667 540.847 64.4C540.447 66.4 539.914 68.1333 539.247 69.6C538.714 70.9333 538.18 71.4667 537.647 71.2C537.38 71.0667 537.247 70.6667 537.247 70C537.247 69.2 537.247 68.4 537.247 67.6C537.247 66.6667 537.314 65.8 537.447 65C537.58 64.2 537.647 63.6 537.647 63.2C537.914 61.0667 538.047 59.0667 538.047 57.2C538.18 55.3333 538.18 53.4667 538.047 51.6ZM545.047 170C545.847 172.267 546.714 174.333 547.647 176.2C548.714 178.067 549.78 179.933 550.847 181.8C550.98 181.933 551.114 182.2 551.247 182.6C551.38 182.867 551.314 183 551.047 183C550.647 183 550.314 182.933 550.047 182.8C549.914 182.667 549.714 182.533 549.447 182.4C549.18 182.267 548.98 182.133 548.847 182C546.98 180.533 545.447 179.133 544.247 177.8C543.047 176.467 541.847 174.067 540.647 170.6C540.247 169.267 539.847 167.6 539.447 165.6C539.047 163.6 538.78 161.667 538.647 159.8C538.514 157.933 538.514 156.333 538.647 155C538.78 153.667 539.114 153 539.647 153C539.78 153 539.98 153.333 540.247 154C540.514 154.533 540.714 155.2 540.847 156C541.114 156.667 541.314 157.4 541.447 158.2C541.714 158.867 541.914 159.333 542.047 159.6C542.714 161.467 543.247 163.267 543.647 165C544.047 166.733 544.514 168.4 545.047 170ZM630.705 40.8C630.438 40.4 630.038 39.8 629.505 39C629.105 38.0667 629.038 37.4667 629.305 37.2C629.571 36.9333 629.971 37 630.505 37.4C631.171 37.8 631.571 38.0667 631.705 38.2C634.105 39.9333 636.305 42.3333 638.305 45.4C640.438 48.4667 642.305 51.8667 643.905 55.6C645.638 59.2 647.171 63 648.505 67C649.838 71 650.905 74.8 651.705 78.4C653.705 87.2 655.371 95.8667 656.705 104.4C658.171 112.933 658.905 121.733 658.905 130.8C658.905 131.067 658.905 131.867 658.905 133.2C659.038 134.533 658.838 135.333 658.305 135.6C657.905 135.333 657.438 134.667 656.905 133.6C656.505 132.533 656.238 131.8 656.105 131.4C654.505 126.467 653.038 120.867 651.705 114.6C650.505 108.2 649.371 102.4 648.305 97.2C647.505 93.2 646.771 89.4 646.105 85.8C645.438 82.0667 644.638 78.4667 643.705 75C642.905 71.5333 641.905 68.0667 640.705 64.6C639.638 61 638.305 57.2667 636.705 53.4C636.438 52.8667 635.971 51.9333 635.305 50.6C634.771 49.2667 634.171 47.9333 633.505 46.6C632.838 45.2667 632.238 44.0667 631.705 43C631.171 41.8 630.838 41.0667 630.705 40.8ZM678.705 189C677.238 188.2 676.238 187.667 675.705 187.4C675.171 187.267 674.171 186.733 672.705 185.8C669.505 183.933 666.571 181.533 663.905 178.6C661.238 175.533 658.838 172.2 656.705 168.6C654.571 165 652.638 161.2 650.905 157.2C649.305 153.067 647.905 149 646.705 145C644.038 146.733 640.838 147.8 637.105 148.2C633.505 148.467 630.171 148.6 627.105 148.6C623.238 148.6 619.371 148.467 615.505 148.2C611.771 147.933 607.971 147.8 604.105 147.8C600.371 154.733 596.838 161.467 593.505 168C590.305 174.4 587.771 180.4 585.905 186C585.905 186.133 585.838 186.4 585.705 186.8C585.571 187.333 585.371 187.6 585.105 187.6C584.705 187.6 584.505 187.133 584.505 186.2C584.505 185.267 584.505 184.667 584.505 184.4C584.505 179.067 585.771 173.133 588.305 166.6C590.971 159.933 593.905 153.4 597.105 147L594.105 146.8C593.305 148.667 592.171 151.267 590.705 154.6C589.371 157.933 588.038 161.4 586.705 165C585.505 168.6 584.371 172.067 583.305 175.4C582.371 178.733 581.905 181.4 581.905 183.4C581.905 183.8 581.705 184 581.305 184C580.771 184 580.371 183.6 580.105 182.8C579.838 181.867 579.571 180.867 579.305 179.8C579.171 178.733 579.038 177.667 578.905 176.6C578.905 175.4 578.905 174.6 578.905 174.2C578.905 169.533 579.505 164.667 580.705 159.6C581.905 154.4 583.505 149.667 585.505 145.4L582.905 145C581.705 147.933 580.571 150.867 579.505 153.8C578.438 156.6 577.505 159.533 576.705 162.6C576.705 162.867 576.638 163.2 576.505 163.6C576.371 164 576.171 164.133 575.905 164C575.638 163.467 575.438 162.867 575.305 162.2C575.305 161.4 575.305 160.733 575.305 160.2C575.305 154.6 576.305 149.2 578.305 144C578.971 142.667 579.638 142 580.305 142C583.105 141.2 585.905 140.733 588.705 140.6C591.638 140.467 594.638 140.4 597.705 140.4C604.371 140.4 610.971 140.933 617.505 142C624.038 142.933 630.571 143.4 637.105 143.4C640.305 143.4 643.238 143.133 645.905 142.6L645.505 139.4C644.038 139.8 642.438 140.067 640.705 140.2C639.105 140.333 637.571 140.4 636.105 140.4C630.905 140.4 625.505 139.867 619.905 138.8C614.438 137.733 609.171 136.467 604.105 135C603.838 134.733 603.305 134.533 602.505 134.4C601.705 134.133 601.305 133.8 601.305 133.4C601.305 133.133 601.705 132.933 602.505 132.8C603.305 132.533 603.838 132.4 604.105 132.4C605.971 132.267 607.771 132.2 609.505 132.2C611.371 132.067 613.238 132 615.105 132C618.171 132 621.238 132.067 624.305 132.2C627.371 132.2 630.505 132.2 633.705 132.2C635.305 132.2 636.971 132.2 638.705 132.2C640.438 132.2 642.105 132.133 643.705 132L643.305 129.8H640.705C634.305 129.8 627.905 129.2 621.505 128C615.238 126.8 608.905 126.2 602.505 126.2C597.038 126.2 592.171 126.867 587.905 128.2C583.771 129.533 580.171 131.067 577.105 132.8C574.171 134.533 571.771 136.267 569.905 138C568.038 139.733 566.705 141 565.905 141.8C565.638 141.933 565.505 142 565.505 142C565.371 142 565.305 141.867 565.305 141.6C565.305 141.467 565.371 141.333 565.505 141.2C567.905 136.533 570.838 132.667 574.305 129.6C577.771 126.4 582.038 124 587.105 122.4C592.171 111.6 597.371 100.867 602.705 90.2C608.171 79.5333 613.905 69 619.905 58.6C620.038 58.3333 620.305 57.9333 620.705 57.4C621.105 56.7333 621.505 56.4 621.905 56.4C622.038 56.5333 622.105 56.6667 622.105 56.8V57.2C622.105 58.2667 622.038 59.0667 621.905 59.6C619.371 70.4 615.638 80.8 610.705 90.8C605.771 100.8 600.705 110.667 595.505 120.4L599.305 120.2C599.705 119.4 600.705 117.667 602.305 115C604.038 112.333 605.838 109.6 607.705 106.8C609.705 103.867 611.505 101.267 613.105 99C614.705 96.6 615.705 95.4 616.105 95.4L616.305 96C616.305 96.6667 615.905 98.1333 615.105 100.4C614.305 102.667 613.371 105.133 612.305 107.8C611.238 110.467 610.171 113 609.105 115.4C608.171 117.667 607.505 119.267 607.105 120.2C607.905 120.2 608.705 120.267 609.505 120.4C610.305 120.4 611.105 120.4 611.905 120.4C614.305 115.6 616.838 110.6 619.505 105.4C622.305 100.067 624.705 94.6667 626.705 89.2C628.705 83.7333 630.038 78.2 630.705 72.6C631.505 67 631.105 61.4667 629.505 56C629.505 56.6667 629.305 58 628.905 60C628.638 62 628.238 64.1333 627.705 66.4C627.171 68.5333 626.638 70.4667 626.105 72.2C625.571 73.8 625.038 74.6 624.505 74.6C624.105 74.6 623.905 74.3333 623.905 73.8C624.038 73.2667 624.105 72.9333 624.105 72.8C624.105 69.3333 624.305 65.9333 624.705 62.6C625.238 59.1333 625.505 55.6667 625.505 52.2C625.505 47.5333 624.771 43 623.305 38.6C623.305 38.4667 623.105 37.9333 622.705 37C622.305 35.9333 622.438 35.4 623.105 35.4C623.371 35.4 623.838 35.7333 624.505 36.4C625.838 37.7333 627.105 39.5333 628.305 41.8C629.638 44.0667 630.838 46.5333 631.905 49.2C632.971 51.7333 633.971 54.2667 634.905 56.8C635.838 59.3333 636.571 61.4667 637.105 63.2C638.838 68.9333 640.238 74.7333 641.305 80.6C642.505 86.3333 643.505 92.1333 644.305 98C645.238 103.733 646.171 109.533 647.105 115.4C648.038 121.267 649.105 127.067 650.305 132.8C651.505 138.4 652.905 143.867 654.505 149.2C656.238 154.533 658.305 159.6 660.705 164.4C663.105 169.2 665.838 173.667 668.905 177.8C672.105 181.8 675.771 185.333 679.905 188.4C680.571 189.067 680.771 189.467 680.505 189.6C680.371 189.867 679.771 189.667 678.705 189ZM678.305 172C678.438 172.8 678.371 173.2 678.105 173.2C677.838 173.067 677.505 172.8 677.105 172.4C676.838 172 676.505 171.533 676.105 171C675.838 170.467 675.705 170.133 675.705 170C672.505 164.133 669.971 158.2 668.105 152.2C666.238 146.067 664.771 139.933 663.705 133.8C662.638 127.533 661.705 121.267 660.905 115C660.238 108.6 659.371 102.133 658.305 95.6C657.371 88.9333 656.105 82.2 654.505 75.4C652.905 68.6 650.638 61.6667 647.705 54.6C647.571 54.3333 647.371 53.8667 647.105 53.2C646.838 52.5333 646.838 52.1333 647.105 52C647.371 52 647.705 52.2 648.105 52.6L648.905 53.4C651.838 56.8667 654.438 61.4667 656.705 67.2C658.971 72.9333 660.971 79.0667 662.705 85.6C664.438 92.1333 665.838 98.6 666.905 105C668.105 111.4 669.038 117 669.705 121.8C670.771 129.4 671.905 137.4 673.105 145.8C674.305 154.2 675.838 162.133 677.705 169.6L678.305 172ZM618.905 121.2C622.771 121.6 626.571 122.067 630.305 122.6C634.171 123.133 638.038 123.533 641.905 123.8C640.438 116.733 639.171 109.733 638.105 102.8C637.038 95.8667 636.038 88.8 635.105 81.6C633.371 88.5333 630.971 95.2667 627.905 101.8C624.971 108.333 621.971 114.8 618.905 121.2ZM684.705 186.8C682.038 185.6 679.705 184.467 677.705 183.4C675.705 182.2 673.971 180.6 672.505 178.6C670.238 175.533 668.438 172.467 667.105 169.4C665.905 166.333 664.905 163.467 664.105 160.8C663.838 159.733 663.571 158.533 663.305 157.2C663.171 155.867 663.238 155.2 663.505 155.2C664.038 155.2 664.705 156.067 665.505 157.8C666.305 159.533 667.038 161 667.705 162.2C669.705 166.333 672.238 170.533 675.305 174.8C678.371 178.933 681.705 182.333 685.305 185C686.371 185.933 686.705 186.533 686.305 186.8C685.905 187.067 685.371 187.067 684.705 186.8ZM566.505 148.4C566.505 148.4 566.371 148.4 566.105 148.4H565.905C565.905 148 565.971 147.6 566.105 147.2C566.238 146.8 566.371 146.4 566.505 146C567.571 143.733 568.571 142.067 569.505 141C570.571 139.8 572.238 138.533 574.505 137.2C575.838 136.4 577.705 135.6 580.105 134.8C582.505 134 584.438 133.6 585.905 133.6C586.171 133.6 586.505 133.667 586.905 133.8C587.438 133.8 587.705 134 587.705 134.4C587.705 134.8 586.971 135.333 585.505 136C584.171 136.667 583.305 137.133 582.905 137.4C577.838 140.467 574.105 142.8 571.705 144.4C569.305 146 567.571 147.333 566.505 148.4ZM737.528 145.4C741.795 149.267 745.795 153.4 749.528 157.8C753.261 162.067 756.861 166.533 760.328 171.2C760.461 171.467 760.795 172 761.328 172.8C761.995 173.467 762.195 173.933 761.928 174.2C761.795 174.333 761.261 174.267 760.328 174C759.528 173.6 758.995 173.267 758.728 173C757.661 172.333 756.395 171.467 754.928 170.4C753.595 169.333 752.128 168.2 750.528 167C749.061 165.8 747.595 164.6 746.128 163.4C744.661 162.067 743.461 160.867 742.528 159.8C741.861 159.267 740.261 157.933 737.728 155.8C735.195 153.533 732.328 151.133 729.128 148.6C725.928 146.067 722.661 143.733 719.328 141.6C715.995 139.467 713.261 138.133 711.128 137.6C710.728 137.467 710.128 137.267 709.328 137C708.661 136.733 708.395 136.267 708.528 135.6C709.595 130.533 710.928 125.6 712.528 120.8C714.128 116 715.661 111.067 717.128 106C718.995 99.7333 720.728 93.3333 722.328 86.8C724.061 80.2667 725.061 73.2 725.328 65.6C725.328 64.9333 725.395 64.6 725.528 64.6C725.928 64.6 726.261 65.0667 726.528 66C728.128 69.6 728.795 74.2667 728.528 80C728.261 85.7333 727.528 91.7333 726.328 98C725.261 104.133 723.861 110.067 722.128 115.8C720.528 121.4 719.128 125.867 717.928 129.2L717.328 130.8C722.261 127.467 727.395 124.133 732.728 120.8C738.061 117.467 742.995 114.133 747.528 110.8C752.195 107.333 756.195 103.8 759.528 100.2C762.995 96.4667 765.328 92.6 766.528 88.6C767.328 85.9333 767.195 83.2667 766.128 80.6C765.195 77.9333 763.461 75.4667 760.928 73.2C758.528 70.8 755.461 68.7333 751.728 67C747.995 65.2667 743.861 64.0667 739.328 63.4C733.328 62.6 727.261 62.4 721.128 62.8C721.661 66.8 721.728 70.8667 721.328 75C721.061 79 720.595 82.4667 719.928 85.4C718.195 92.6 715.995 100.067 713.328 107.8C710.661 115.4 707.928 122.533 705.128 129.2C704.861 129.6 704.461 130.267 703.928 131.2C703.395 132.133 702.928 132.533 702.528 132.4C702.261 132.267 702.195 131.667 702.328 130.6C702.461 129.533 702.528 128.8 702.528 128.4C702.661 126.8 702.928 124.867 703.328 122.6C703.861 120.2 704.328 117.733 704.728 115.2C705.261 112.667 705.795 110.267 706.328 108C706.995 105.6 707.595 103.533 708.128 101.8C708.395 101 708.795 99.3333 709.328 96.8C709.995 94.1333 710.661 91 711.328 87.4C711.995 83.8 712.661 79.9333 713.328 75.8C713.995 71.6667 714.528 67.6667 714.928 63.8L712.128 64.2C711.728 69.2667 710.928 74.4 709.728 79.6C708.528 84.8 707.128 90.0667 705.528 95.4C704.061 100.6 702.461 105.933 700.728 111.4C699.128 116.733 697.728 122 696.528 127.2C695.461 131.867 694.595 136.733 693.928 141.8C693.395 146.867 693.195 151.867 693.328 156.8C693.595 161.733 694.195 166.533 695.128 171.2C696.195 175.733 697.861 179.867 700.128 183.6C700.395 184.267 700.395 184.6 700.128 184.6C699.861 184.6 699.528 184.4 699.128 184C695.795 180.133 693.261 175.8 691.528 171C689.795 166.2 688.661 161.2 688.128 156C687.728 150.667 687.795 145.2 688.328 139.6C688.995 134 689.928 128.533 691.128 123.2C693.395 113.2 696.128 103.333 699.328 93.6C702.528 83.8667 705.195 74.4667 707.328 65.4C703.995 66.2 700.728 67.2 697.528 68.4C694.328 69.4667 691.328 70.6667 688.528 72C687.861 72.2667 687.461 72.3333 687.328 72.2C687.195 72.0667 687.261 71.8667 687.528 71.6C687.795 71.2 688.061 70.9333 688.328 70.8C694.995 65.3333 703.128 61.4667 712.728 59.2C722.328 56.9333 732.128 56.3333 742.128 57.4C747.328 58.0667 752.061 59.5333 756.328 61.8C760.728 64.0667 764.328 66.8667 767.128 70.2C769.928 73.4 771.728 77 772.528 81C773.461 85 773.061 89 771.328 93C769.328 97.6667 766.128 102 761.728 106C757.461 110 752.595 113.733 747.128 117.2C741.795 120.667 736.128 123.867 730.128 126.8C724.128 129.733 718.528 132.467 713.328 135C715.461 135 717.661 135.333 719.928 136C722.195 136.667 724.395 137.533 726.528 138.6C728.795 139.533 730.861 140.6 732.728 141.8C734.728 143 736.328 144.2 737.528 145.4ZM792.928 95.4C790.928 102.333 787.861 108.267 783.728 113.2C779.728 118 775.261 122 770.328 125.2C765.395 128.4 760.395 130.867 755.328 132.6C750.261 134.2 745.861 135.267 742.128 135.8C741.061 136.067 740.061 136.2 739.128 136.2C738.328 136.067 737.995 135.867 738.128 135.6C737.861 135.333 738.128 135.067 738.928 134.8C739.861 134.533 740.795 134.2 741.728 133.8C748.928 131.133 755.861 127.667 762.528 123.4C769.195 119.133 775.061 113.467 780.128 106.4C782.528 103.067 784.328 99.2 785.528 94.8C786.728 90.4 787.128 85.9333 786.728 81.4C786.461 76.8667 785.328 72.4667 783.328 68.2C781.461 63.9333 778.661 60.2667 774.928 57.2C770.528 53.4667 765.728 50.5333 760.528 48.4C755.328 46.2667 749.995 44.8 744.528 44C739.061 43.2 733.528 43.0667 727.928 43.6C722.328 44 716.928 44.8667 711.728 46.2C710.795 46.4667 710.261 46.6667 710.128 46.8C709.995 46.8 709.861 46.6667 709.728 46.4C709.728 46.2667 710.261 45.8 711.328 45C713.461 43.6667 716.261 42.4667 719.728 41.4C723.328 40.2 727.328 39.4 731.728 39C736.261 38.6 741.128 38.6667 746.328 39.2C751.528 39.6 756.861 40.8 762.328 42.8C767.928 44.6667 773.195 47.6 778.128 51.6C783.061 55.4667 786.995 60.2667 789.928 66C792.728 71.6 794.128 77.0667 794.128 82.4C794.261 87.6 793.861 91.9333 792.928 95.4ZM691.328 62.8C693.995 58.9333 697.528 55.8 701.928 53.4C706.328 50.8667 711.128 49 716.328 47.8C721.528 46.6 726.928 46.0667 732.528 46.2C738.261 46.3333 743.795 47 749.128 48.2C754.461 49.4 759.395 51.2 763.928 53.6C768.595 56 772.461 58.9333 775.528 62.4C777.661 64.9333 779.261 67.6667 780.328 70.6C781.528 73.4 782.128 76.3333 782.128 79.4C782.261 82.3333 781.928 85.2 781.128 88C780.461 90.8 779.461 93.4 778.128 95.8C777.861 96.3333 777.195 97.2667 776.128 98.6C775.061 99.8 774.395 100.267 774.128 100C773.861 99.8667 774.061 99.1333 774.728 97.8C775.395 96.4667 775.861 95.4667 776.128 94.8C777.195 91.3333 777.595 87.9333 777.328 84.6C777.195 81.1333 776.528 77.9333 775.328 75C774.261 72.0667 772.795 69.4667 770.928 67.2C769.061 64.8 767.061 62.8667 764.928 61.4C759.861 58.0667 754.128 55.7333 747.728 54.4C741.328 52.9333 734.795 52.4 728.128 52.8C721.595 53.0667 715.195 54.2 708.928 56.2C702.661 58.0667 697.261 60.6 692.728 63.8C691.528 64.8667 690.728 65.2 690.328 64.8C690.061 64.6667 690.061 64.4 690.328 64C690.728 63.4667 691.061 63.0667 691.328 62.8ZM797.928 188.8C798.728 188.667 799.128 188.733 799.128 189C799.128 189.267 798.795 189.533 798.128 189.8C793.328 191.533 788.661 192.467 784.128 192.6C779.595 192.733 775.261 192.267 771.128 191.2C766.995 190.267 763.128 188.867 759.528 187C755.928 185.267 752.661 183.333 749.728 181.2C746.261 178.667 742.928 175.867 739.728 172.8C736.661 169.6 733.661 166.467 730.728 163.4C727.795 160.2 724.861 157.133 721.928 154.2C718.995 151.267 715.995 148.667 712.928 146.4C710.661 153.867 708.595 160.467 706.728 166.2C706.461 166.867 706.195 167.467 705.928 168C705.661 168.533 705.395 168.733 705.128 168.6C704.861 168.467 704.728 168.133 704.728 167.6C704.728 166.933 704.728 166.267 704.728 165.6C704.995 161.867 705.261 158.067 705.528 154.2C705.795 150.333 706.395 146.467 707.328 142.6C706.395 142.067 705.461 141.6 704.528 141.2C703.728 140.8 702.795 140.333 701.728 139.8C701.328 139.4 701.128 139.133 701.128 139C701.128 138.867 701.261 138.8 701.528 138.8C701.928 138.8 702.261 138.8 702.528 138.8C707.861 139.2 712.728 140.867 717.128 143.8C721.528 146.6 725.795 149.933 729.928 153.8C734.061 157.667 738.128 161.8 742.128 166.2C746.128 170.467 750.395 174.267 754.928 177.6C757.461 179.467 760.328 181.2 763.528 182.8C766.861 184.267 770.395 185.533 774.128 186.6C777.861 187.667 781.728 188.4 785.728 188.8C789.861 189.333 793.928 189.333 797.928 188.8ZM766.928 159.6C770.661 162.933 774.195 166.667 777.528 170.8C780.995 174.933 784.328 178.267 787.528 180.8C788.461 181.733 788.861 182.4 788.728 182.8C788.461 183.067 788.128 183.133 787.728 183C787.328 182.867 786.861 182.733 786.328 182.6C782.728 181.4 779.328 179.733 776.128 177.6C773.061 175.467 770.061 173.067 767.128 170.4C764.195 167.733 761.328 164.933 758.528 162C755.861 159.067 753.128 156.2 750.328 153.4C748.461 151.533 746.395 149.467 744.128 147.2C741.995 144.933 739.728 142.867 737.328 141C734.928 139 732.395 137.4 729.728 136.2C727.195 134.867 724.528 134.2 721.728 134.2L729.528 130.8C731.528 129.867 733.995 128.733 736.928 127.4C739.861 126.067 742.661 124.8 745.328 123.6C747.995 122.4 750.328 121.467 752.328 120.8C754.328 120 755.395 119.667 755.528 119.8C755.661 120.067 755.395 120.533 754.728 121.2C754.195 121.867 753.395 122.6 752.328 123.4C751.395 124.2 750.461 124.933 749.528 125.6C748.595 126.267 747.928 126.667 747.528 126.8C744.995 128.267 742.595 129.667 740.328 131C738.195 132.2 735.995 133.333 733.728 134.4C736.795 135.6 739.928 137.333 743.128 139.6C746.328 141.733 749.395 144.067 752.328 146.6C755.261 149.133 757.995 151.6 760.528 154C763.061 156.267 765.195 158.133 766.928 159.6ZM702.128 172C702.528 174.267 703.061 176.467 703.728 178.6C704.395 180.733 705.195 182.533 706.128 184C706.261 184 706.328 184.067 706.328 184.2C706.461 184.467 706.395 184.6 706.128 184.6C705.861 184.6 705.528 184.467 705.128 184.2C704.861 184.067 704.595 184 704.328 184C702.595 182.933 701.195 181.667 700.128 180.2C699.195 178.6 698.395 175.867 697.728 172C697.461 170.533 697.328 168.667 697.328 166.4C697.328 164.133 697.395 162 697.528 160C697.661 157.867 697.861 156.067 698.128 154.6C698.395 153.133 698.795 152.4 699.328 152.4C699.461 152.4 699.595 152.733 699.728 153.4C699.995 154.067 700.195 154.867 700.328 155.8C700.461 156.6 700.528 157.4 700.528 158.2C700.661 159 700.728 159.533 700.728 159.8C700.995 162.067 701.195 164.2 701.328 166.2C701.461 168.2 701.728 170.133 702.128 172ZM789.728 184.6C791.861 184.733 793.461 184.733 794.528 184.6C795.728 184.6 797.261 184.467 799.128 184.2C799.261 184.2 799.595 184.133 800.128 184C800.661 184 800.995 184.067 801.128 184.2C801.261 184.467 801.061 184.8 800.528 185.2C800.128 185.6 799.795 185.867 799.528 186C797.395 186.667 795.395 187.133 793.528 187.4C791.795 187.667 789.195 187.6 785.728 187.2C784.528 187.067 783.195 186.8 781.728 186.4C780.261 186 778.928 185.533 777.728 185C776.528 184.6 775.595 184.2 774.928 183.8C774.261 183.267 774.128 182.867 774.528 182.6C774.795 182.467 775.595 182.6 776.928 183C778.395 183.267 779.395 183.467 779.928 183.6C781.795 184 783.528 184.267 785.128 184.4C786.728 184.533 788.261 184.6 789.728 184.6ZM856.461 82.4C854.594 89.6 852.261 97.0667 849.461 104.8C846.794 112.533 843.994 119.867 841.061 126.8C840.928 127.067 840.594 127.733 840.061 128.8C839.528 129.733 839.128 130.133 838.861 130C838.461 130 838.261 129.467 838.261 128.4C838.394 127.2 838.528 126.4 838.661 126C838.794 124.4 839.061 122.4 839.461 120C839.861 117.6 840.261 115.133 840.661 112.6C841.194 110.067 841.728 107.6 842.261 105.2C842.928 102.8 843.528 100.733 844.061 99C844.328 98.4667 844.728 97.1333 845.261 95C845.794 92.8667 846.328 90.3333 846.861 87.4C847.528 84.3333 848.194 81 848.861 77.4C849.528 73.8 850.128 70.2667 850.661 66.8L848.261 66.2C847.594 70.8667 846.594 75.6667 845.261 80.6C844.061 85.4 842.661 90.2667 841.061 95.2C839.594 100 838.128 104.933 836.661 110C835.194 114.933 833.861 119.867 832.661 124.8C831.594 129.467 830.794 134.333 830.261 139.4C829.728 144.467 829.528 149.6 829.661 154.8C829.794 159.867 830.394 164.867 831.461 169.8C832.528 174.6 834.128 179.067 836.261 183.2C836.661 184.133 836.794 184.6 836.661 184.6C836.394 184.6 836.194 184.533 836.061 184.4L835.661 184C831.928 179.6 829.128 174.867 827.261 169.8C825.528 164.6 824.394 159.267 823.861 153.8C823.461 148.333 823.594 142.8 824.261 137.2C824.928 131.6 825.861 126.133 827.061 120.8C829.328 110.933 831.994 101.467 835.061 92.4C838.128 83.2 840.728 74.2 842.861 65.4C834.861 64.0667 827.328 62.8667 820.261 61.8C813.328 60.6 806.861 60.6 800.861 61.8C800.461 61.8 800.261 61.7333 800.261 61.6C800.261 61.3333 800.328 61.2 800.461 61.2C800.728 61.0667 800.928 60.9333 801.061 60.8C805.594 58.1333 810.394 56.6667 815.461 56.4C820.661 56.1333 825.994 56.4 831.461 57.2C837.061 57.8667 842.728 58.8 848.461 60C854.328 61.0667 860.194 61.6667 866.061 61.8C869.661 61.9333 873.394 61.6667 877.261 61C881.261 60.2 885.061 59.0667 888.661 57.6C892.394 56 895.728 53.9333 898.661 51.4C901.728 48.8667 904.194 45.8667 906.061 42.4C906.328 41.7333 906.594 41.4 906.861 41.4V42V42.4C905.394 47.4667 903.128 51.6667 900.061 55C896.994 58.2 893.461 60.8 889.461 62.8C885.594 64.8 881.394 66.2 876.861 67C872.461 67.6667 868.128 67.9333 863.861 67.8C864.528 71.9333 864.528 76.7333 863.861 82.2C863.328 87.6667 862.461 93.2 861.261 98.8C860.061 104.4 858.794 109.733 857.461 114.8C856.128 119.733 855.061 123.733 854.261 126.8C852.661 133.2 850.794 139.733 848.661 146.4C846.528 153.067 844.594 158.933 842.861 164C842.594 164.667 842.261 165.267 841.861 165.8C841.594 166.333 841.328 166.533 841.061 166.4C840.794 166.267 840.661 165.933 840.661 165.4C840.794 164.733 840.861 164.067 840.861 163.4C841.261 153.4 842.728 143.4 845.261 133.4C847.794 123.4 850.528 113.333 853.461 103.2C855.061 97.6 856.594 91.9333 858.061 86.2C859.661 80.4667 860.794 74.3333 861.461 67.8C860.794 67.6667 860.194 67.6 859.661 67.6C859.261 67.6 858.728 67.6 858.061 67.6C858.061 70.2667 857.928 72.8667 857.661 75.4C857.528 77.9333 857.128 80.2667 856.461 82.4ZM861.861 39.8C867.061 40.4667 872.328 41 877.661 41.4C882.994 41.8 887.594 42 891.461 42C892.794 42 893.461 42.2 893.461 42.6C893.461 43.1333 892.794 43.6 891.461 44C884.661 46.6667 877.461 47.8667 869.861 47.6C862.394 47.3333 854.794 46.6 847.061 45.4C842.394 44.7333 837.594 44.0667 832.661 43.4C827.728 42.7333 822.394 42.7333 816.661 43.4C816.128 43.5333 815.861 43.4667 815.861 43.2C815.861 42.9333 815.994 42.7333 816.261 42.6C816.528 42.4667 816.794 42.2667 817.061 42C819.594 40.1333 822.861 38.9333 826.861 38.4C830.861 37.7333 834.994 37.4667 839.261 37.6C843.661 37.6 847.861 37.8667 851.861 38.4C855.861 38.9333 859.194 39.4 861.861 39.8ZM831.861 46C837.461 46.8 843.128 47.8 848.861 49C854.728 50.2 860.394 51.5333 865.861 53C866.128 53.2667 866.661 53.5333 867.461 53.8C868.394 53.9333 868.861 54.2 868.861 54.6C868.861 54.8667 868.461 55.0667 867.661 55.2C866.861 55.3333 866.261 55.5333 865.861 55.8C864.661 56.0667 863.128 56.2 861.261 56.2C859.528 56.2 857.661 56.2 855.661 56.2C853.794 56.0667 851.928 55.9333 850.061 55.8C848.194 55.6667 846.594 55.4667 845.261 55.2C844.328 55.0667 841.994 54.8 838.261 54.4C834.661 54 830.661 53.7333 826.261 53.6C821.861 53.4667 817.594 53.5333 813.461 53.8C809.461 53.9333 806.594 54.4667 804.861 55.4C804.328 55.6667 803.994 55.8 803.861 55.8H803.661C803.661 55.2667 803.928 54.7333 804.461 54.2C805.794 52.4667 807.594 51 809.861 49.8C812.261 48.6 814.728 47.6667 817.261 47C819.794 46.3333 822.328 45.9333 824.861 45.8C827.528 45.6667 829.861 45.7333 831.861 46ZM838.461 169.8C838.861 172.067 839.328 174.333 839.861 176.6C840.528 178.867 841.328 181.067 842.261 183.2C842.794 184.267 842.861 184.8 842.461 184.8C842.194 184.8 841.794 184.667 841.261 184.4C840.994 184.267 840.794 184.067 840.661 183.8C838.928 181.8 837.528 179.933 836.461 178.2C835.528 176.467 834.728 173.667 834.061 169.8C833.794 168.333 833.594 166.467 833.461 164.2C833.461 161.933 833.528 159.733 833.661 157.6C833.794 155.467 833.994 153.667 834.261 152.2C834.528 150.733 834.928 150 835.461 150C835.594 150 835.728 150.333 835.861 151C836.128 151.667 836.328 152.467 836.461 153.4C836.594 154.2 836.728 155.067 836.861 156C836.994 156.8 837.061 157.333 837.061 157.6C837.328 159.867 837.528 162 837.661 164C837.928 166 838.194 167.933 838.461 169.8ZM896.461 44.6C899.394 42.0667 901.861 39.3333 903.861 36.4C904.128 35.8667 904.394 35.6 904.661 35.6C904.794 35.6 904.861 36.0667 904.861 37C904.861 37.5333 904.794 38 904.661 38.4C904.128 40.6667 903.528 42.4667 902.861 43.8C902.194 45.1333 900.594 46.7333 898.061 48.6C897.128 49.4 895.861 50.2 894.261 51C892.661 51.6667 891.128 52.2667 889.661 52.8C888.194 53.3333 886.861 53.6667 885.661 53.8C884.594 53.8 883.994 53.5333 883.861 53C883.861 52.8667 884.061 52.6667 884.461 52.4C884.861 52 885.328 51.6 885.861 51.2C886.528 50.8 887.128 50.4667 887.661 50.2C888.194 49.8 888.594 49.5333 888.861 49.4C890.194 48.7333 891.461 48 892.661 47.2C893.994 46.4 895.261 45.5333 896.461 44.6Z" fill="#F0D752"/>
</svg>
