<svg width="891" height="264" viewBox="0 0 891 264" fill="none" xmlns="http://www.w3.org/2000/svg">
<path d="M69.0623 164.303L69.0621 164.303C58.124 152.466 51.5212 137.019 51.5212 120.112C51.5212 84.6807 81.0435 52.9441 122.426 52.8248L122.426 52.8248C161.991 52.7093 193.777 83.0506 193.777 120.112C193.777 137.019 187.174 152.466 176.236 164.303L176.236 164.303C169.374 171.729 158.84 186.778 154.044 200.273H91.254C86.4576 186.778 75.9237 171.729 69.0623 164.303Z" stroke="white" stroke-width="7"/>
<path d="M150.016 217.954H96.4648C94.0812 217.954 92.1489 216.021 92.1489 213.638C92.1489 211.254 94.0812 209.322 96.4648 209.322H150.016C152.355 209.322 154.269 211.186 154.33 213.524C154.394 215.951 152.444 217.954 150.016 217.954Z" fill="white"/>
<path d="M127.191 4.59916V26.2852C127.191 28.794 125.158 30.8278 122.649 30.8278C120.14 30.8278 118.106 28.794 118.106 26.2852V4.59915C118.106 2.1123 120.106 0.087738 122.593 0.0569477C125.123 0.0256119 127.191 2.06838 127.191 4.59916Z" fill="white"/>
<path d="M118.106 4.59916V26.2852C118.106 28.794 120.14 30.8278 122.649 30.8278C125.158 30.8278 127.192 28.794 127.192 26.2852V4.59915C127.192 2.1123 125.192 0.087738 122.705 0.0569477C120.175 0.0256119 118.106 2.06838 118.106 4.59916Z" fill="white"/>
<path d="M43.3504 59.5664L24.3834 46.4736C22.3855 45.0946 21.9614 42.4133 23.436 40.485C24.9107 38.5566 27.7256 38.1113 29.7235 39.4904L48.6905 52.5831C50.6696 53.9493 51.1074 56.5971 49.6729 58.5254C48.2112 60.4901 45.367 60.9584 43.3504 59.5664Z" fill="white"/>
<path d="M201.103 59.5585L219.854 46.4815C221.838 45.0981 222.263 42.4133 220.803 40.485C219.343 38.5566 216.552 38.1148 214.568 39.4983L195.818 52.5752C193.852 53.9458 193.414 56.5972 194.834 58.5255C196.281 60.4902 199.101 60.9549 201.103 59.5585Z" fill="white"/>
<path d="M35.5426 200.91L51.1021 184.492C52.7898 182.711 55.6694 182.56 57.5338 184.155C59.3982 185.75 59.5414 188.487 57.8537 190.268L42.2941 206.686C40.6219 208.451 37.7754 208.617 35.9065 207.06C34.0031 205.474 33.8394 202.707 35.5426 200.91Z" fill="white"/>
<path d="M208.823 200.914L193.416 184.488C191.747 182.709 188.899 182.56 187.053 184.155C185.208 185.75 185.065 188.485 186.733 190.264L202.141 206.69C203.794 208.452 206.61 208.617 208.46 207.06C210.344 205.474 210.507 202.709 208.823 200.914Z" fill="white"/>
<path d="M4.37341 123.009L28.1133 122.221C30.4957 122.142 32.4981 124.009 32.5856 126.391C32.6732 128.773 30.8128 130.769 28.4303 130.848L4.69047 131.635C2.3311 131.714 0.339773 129.882 0.22072 127.524C0.0993326 125.12 1.96782 123.089 4.37341 123.009Z" fill="white"/>
<path d="M239.627 123.007L216.217 122.223C213.835 122.143 211.834 124.009 211.747 126.391C211.66 128.773 213.521 130.769 215.904 130.849L239.313 131.634C241.673 131.713 243.664 129.882 243.782 127.524C243.902 125.12 242.033 123.088 239.627 123.007Z" fill="white"/>
<path d="M138.995 232.751H107.529C105.486 232.751 103.83 231.095 103.83 229.052C103.83 227.008 105.486 225.352 107.529 225.352H138.995C141.01 225.352 142.655 226.966 142.694 228.981C142.733 231.051 141.066 232.751 138.995 232.751Z" fill="white"/>
<path d="M364.2 188.6C369 187.8 373.6 186.333 378 184.2C382.533 182.067 386.6 179.333 390.2 176C390.467 175.867 391 175.4 391.8 174.6C392.6 173.8 393.133 173.533 393.4 173.8C393.667 174.067 393.6 174.467 393.2 175C392.8 175.533 392.467 176 392.2 176.4C389.533 180.267 386 183.467 381.6 186C377.333 188.4 372.867 190.333 368.2 191.8C364.333 192.867 360.2 193.267 355.8 193C351.4 192.6 347.267 191.467 343.4 189.6C342.2 189.067 341.467 188.667 341.2 188.4C340.933 188 340.933 187.733 341.2 187.6C341.467 187.467 341.867 187.4 342.4 187.4C343.067 187.4 343.667 187.467 344.2 187.6C345.667 187.867 347.333 188.133 349.2 188.4C351.2 188.533 353.133 188.667 355 188.8C357 188.8 358.8 188.8 360.4 188.8C362 188.8 363.267 188.733 364.2 188.6ZM337.4 129.8C336.733 134.467 336.4 139.067 336.4 143.6C336.4 148 336.667 152.2 337.2 156.2C337.867 160.067 338.8 163.533 340 166.6C341.333 169.667 342.933 172.2 344.8 174.2C346.933 176.333 349.533 178 352.6 179.2C355.8 180.267 359.2 180.8 362.8 180.8C366.533 180.8 370.4 180.267 374.4 179.2C378.533 178.133 382.6 176.467 386.6 174.2C387.4 173.667 387.933 173.533 388.2 173.8C388.467 174.067 388.333 174.4 387.8 174.8C387.4 175.067 387 175.333 386.6 175.6C383.133 178.267 379.467 180.4 375.6 182C371.733 183.6 367.8 184.6 363.8 185C359.933 185.4 356.133 185.2 352.4 184.4C348.8 183.467 345.533 181.8 342.6 179.4C339.8 177 337.533 174.133 335.8 170.8C334.067 167.333 332.733 163.6 331.8 159.6C331 155.467 330.533 151.2 330.4 146.8C330.267 142.4 330.4 138.067 330.8 133.8C331.333 127 332.667 120.133 334.8 113.2C336.933 106.267 339.733 99.8667 343.2 94C346.8 88.1333 351.067 83 356 78.6C360.933 74.2 366.467 71.1333 372.6 69.4C375.667 68.6 378.8 68.2667 382 68.4C385.2 68.5333 388.133 69.1333 390.8 70.2C393.6 71.2667 396 72.8667 398 75C400 77 401.333 79.4667 402 82.4C402.667 85.6 402.4 88.7333 401.2 91.8C400 94.7333 398.333 97.3333 396.2 99.6C394.067 101.733 391.667 103.267 389 104.2C386.333 105.133 383.8 105.133 381.4 104.2C381.267 104.2 381.133 104 381 103.6C381 103.2 381.267 103.067 381.8 103.2C383.4 103.467 385.2 103.133 387.2 102.2C389.333 101.133 391.2 99.7333 392.8 98C394.533 96.2667 395.867 94.2 396.8 91.8C397.867 89.4 398.2 86.9333 397.8 84.4C397.4 82.5333 396.533 80.9333 395.2 79.6C394 78.1333 392.4 77 390.4 76.2C388.4 75.2667 386.133 74.6667 383.6 74.4C381.2 74.1333 378.667 74.2667 376 74.8C370.933 75.7333 366.2 78 361.8 81.6C357.533 85.0667 353.733 89.3333 350.4 94.4C347.067 99.4667 344.267 105.133 342 111.4C339.733 117.533 338.2 123.667 337.4 129.8ZM353.2 196C354.667 196.133 356.133 196.2 357.6 196.2C359.2 196.2 360 196.4 360 196.8C360 196.933 359.733 197 359.2 197C358.667 197.133 358.067 197.2 357.4 197.2C356.867 197.2 356.267 197.2 355.6 197.2C354.933 197.2 354.533 197.2 354.4 197.2C350.267 197.2 346.2 196.6 342.2 195.4C338.2 194.2 334.467 192.533 331 190.4C327.667 188.133 324.667 185.4 322 182.2C319.333 179 317.333 175.333 316 171.2C313.333 163.067 311.8 155.133 311.4 147.4C311 139.667 311.333 132.067 312.4 124.6C312.933 120.333 313.933 115.533 315.4 110.2C317 104.733 319.067 99.2 321.6 93.6C324.267 88 327.533 82.4667 331.4 77C335.4 71.5333 340.133 66.5333 345.6 62C351.333 57.2 357.667 54 364.6 52.4C371.667 50.8 378.4 50.5333 384.8 51.6C391.2 52.6667 396.867 54.9333 401.8 58.4C406.733 61.7333 410 66 411.6 71.2C411.733 71.4667 411.867 72.0667 412 73C412.133 73.8 412.067 74.3333 411.8 74.6C411.667 74.7333 411.467 74.4 411.2 73.6C410.933 72.8 410.667 72.2667 410.4 72C404.8 64.4 398.467 59.6 391.4 57.6C384.333 55.4667 377.333 55.2667 370.4 57C363.467 58.6 356.933 61.6667 350.8 66.2C344.667 70.6 339.8 75.5333 336.2 81C329.933 90.4667 325.133 100.533 321.8 111.2C318.6 121.867 317.133 132.867 317.4 144.2C317.533 149.4 318.067 154.867 319 160.6C320.067 166.333 322.067 171.8 325 177C327.933 182.333 331.933 186.8 337 190.4C342.2 193.867 347.6 195.733 353.2 196ZM324.4 120.8C325.467 113.733 327.133 106.867 329.4 100.2C331.8 93.5333 334.867 87.4667 338.6 82C342.467 76.4 347.2 71.6 352.8 67.6C358.4 63.6 365 60.8 372.6 59.2C375.267 58.6667 378.267 58.4667 381.6 58.6C384.933 58.6 388.267 59.2 391.6 60.4C394.933 61.4667 398 63.1333 400.8 65.4C403.733 67.6667 406.133 70.8 408 74.8C409.733 78.6667 410.333 82.4667 409.8 86.2C409.267 89.9333 408.133 93.3333 406.4 96.4C404.667 99.3333 402.533 101.8 400 103.8C397.467 105.8 395 106.933 392.6 107.2C391.133 107.467 390.333 107.467 390.2 107.2C390.067 106.8 390.8 106.333 392.4 105.8C394.933 105 397.467 103 400 99.8C402.667 96.4667 404.267 92.2667 404.8 87.2C405.067 84.6667 404.733 82.2 403.8 79.8C402.867 77.2667 401.533 75.0667 399.8 73.2C398.067 71.3333 396 69.7333 393.6 68.4C391.2 67.0667 388.667 66.2 386 65.8C380.267 65 375 65.4 370.2 67C365.4 68.6 361.2 70.6667 357.6 73.2C354.133 75.6 351.267 78 349 80.4C346.867 82.8 345.533 84.4 345 85.2C340.867 90.4 337.267 96.0667 334.2 102.2C331.133 108.2 328.6 114.533 326.6 121.2C326.6 121.333 326.467 121.8 326.2 122.6C326.067 123.4 325.867 124.267 325.6 125.2C325.467 126 325.267 126.8 325 127.6C324.733 128.267 324.533 128.6 324.4 128.6C324.133 128.6 324 128.2 324 127.4C324 126.6 324 125.8 324 125C324 124.067 324.067 123.2 324.2 122.4C324.333 121.6 324.4 121.067 324.4 120.8ZM452.447 52.4C451.914 51.2 451.78 50.6 452.047 50.6C452.447 50.6 452.914 50.9333 453.447 51.6C453.98 52.1333 454.314 52.4667 454.447 52.6C455.78 54.6 457.247 56.8 458.847 59.2C460.447 61.4667 461.98 64.2 463.447 67.4C464.914 70.6 466.247 74.3333 467.447 78.6C468.647 82.7333 469.58 87.6667 470.247 93.4C471.047 99.9333 471.18 106.4 470.647 112.8C470.247 119.067 469.514 125.4 468.447 131.8C468.314 132.067 468.18 132.733 468.047 133.8C467.914 134.867 467.647 135.4 467.247 135.4C466.98 135.4 466.714 134.933 466.447 134C466.18 132.933 466.047 132.2 466.047 131.8C465.78 130.333 465.514 128.6 465.247 126.6C464.98 124.6 464.714 122.533 464.447 120.4C464.314 118.133 464.18 116 464.047 114C464.047 111.867 464.047 110 464.047 108.4C464.047 107.867 463.98 106.733 463.847 105C463.847 103.133 463.78 101 463.647 98.6C463.514 96.2 463.247 93.6 462.847 90.8C462.58 87.8667 462.247 85 461.847 82.2C462.114 86.3333 462.114 90.4667 461.847 94.6C461.58 98.7333 461.247 102.933 460.847 107.2C460.447 111.333 460.114 115.533 459.847 119.8C459.58 123.933 459.58 128.133 459.847 132.4C460.247 140.667 461.914 149.067 464.847 157.6C467.78 166.133 472.447 173.4 478.847 179.4C479.647 180.2 479.98 180.6 479.847 180.6C479.58 180.733 479.114 180.6 478.447 180.2C473.78 177.533 469.914 174.333 466.847 170.6C463.78 166.867 461.247 162.8 459.247 158.4C457.38 154 455.98 149.467 455.047 144.8C454.114 140 453.58 135.2 453.447 130.4C453.447 130 453.38 129.667 453.247 129.4C453.247 129 453.247 128.6 453.247 128.2C450.58 135.8 447.58 143.133 444.247 150.2C441.047 157.267 437.847 164.067 434.647 170.6C431.58 177.133 428.647 183.333 425.847 189.2C423.18 194.933 421.047 200.267 419.447 205.2C419.18 205.867 418.98 206.2 418.847 206.2C418.58 206.2 418.447 206 418.447 205.6C418.447 205.2 418.447 204.933 418.447 204.8C418.58 198.533 419.847 192 422.247 185.2C424.647 178.267 427.447 171.133 430.647 163.8C433.98 156.333 437.447 148.733 441.047 141C444.647 133.133 447.78 125.133 450.447 117C452.047 111.8 453.38 106.4 454.447 100.8C455.647 95.2 456.38 89.6 456.647 84C456.914 78.4 456.714 72.9333 456.047 67.6C455.38 62.1333 454.18 57.0667 452.447 52.4ZM477.247 167.6C478.714 170.667 480.647 173.533 483.047 176.2C483.98 170.6 485.78 165.067 488.447 159.6C491.114 154 494.114 148.4 497.447 142.8C500.914 137.2 504.514 131.6 508.247 126C511.98 120.4 515.447 114.733 518.647 109C521.047 104.867 523.047 100.4 524.647 95.6C526.38 90.8 527.58 85.9333 528.247 81C529.047 75.9333 529.247 70.9333 528.847 66C528.58 61.0667 527.58 56.4 525.847 52C525.447 51.3333 525.38 50.8667 525.647 50.6C525.914 50.3333 526.314 50.5333 526.847 51.2C527.514 51.7333 527.914 52.1333 528.047 52.4C529.647 54.6667 530.914 57.6667 531.847 61.4C532.914 65 533.647 69.0667 534.047 73.6C534.58 78 534.847 82.6667 534.847 87.6C534.847 92.5333 534.647 97.4667 534.247 102.4C533.714 108.933 532.714 116.067 531.247 123.8C529.914 131.533 528.247 138.6 526.247 145C526.114 145.267 525.847 145.867 525.447 146.8C525.18 147.733 524.847 148.2 524.447 148.2C524.18 148.067 523.98 147.533 523.847 146.6C523.714 145.533 523.647 144.867 523.647 144.6C523.647 143.133 523.647 141.4 523.647 139.4C523.78 137.267 523.914 135.133 524.047 133C524.18 130.733 524.314 128.6 524.447 126.6C524.714 124.467 524.98 122.667 525.247 121.2C525.38 120.4 525.58 118.6 525.847 115.8C526.247 112.867 526.58 109.6 526.847 106C525.247 109.733 523.98 113.067 523.047 116C522.114 118.933 521.314 121.8 520.647 124.6C519.98 127.4 519.38 130.333 518.847 133.4C518.447 136.467 518.047 140.067 517.647 144.2C517.247 148.333 517.047 152.667 517.047 157.2C517.18 161.733 517.647 166.2 518.447 170.6C519.38 175 520.647 179.333 522.247 183.6C523.98 187.733 526.18 191.533 528.847 195C529.38 195.8 529.514 196.267 529.247 196.4C528.98 196.533 528.647 196.4 528.247 196C523.98 192.533 520.58 188.667 518.047 184.4C515.647 180 513.847 175.4 512.647 170.6C511.447 165.8 510.78 160.933 510.647 156C510.647 150.933 510.914 146 511.447 141.2C511.714 139.467 511.914 137.733 512.047 136C512.314 134.267 512.58 132.467 512.847 130.6C509.78 135.533 506.714 140.333 503.647 145C500.58 149.667 497.714 154.333 495.047 159C492.38 163.533 489.98 168.067 487.847 172.6C485.847 177 484.314 181.4 483.247 185.8C482.98 186.467 482.847 186.8 482.847 186.8C482.58 186.8 482.447 186.533 482.447 186C482.447 185.467 482.447 185.133 482.447 185C482.447 183.933 482.447 182.867 482.447 181.8C482.447 180.733 482.58 179.667 482.847 178.6C481.78 178.067 480.847 177.6 480.047 177.2C479.247 176.667 478.447 176.067 477.647 175.4C476.98 174.733 476.247 173.933 475.447 173C474.78 172.067 474.047 170.867 473.247 169.4C472.58 168.067 471.914 166.467 471.247 164.6C470.58 162.733 469.98 160.933 469.447 159.2C469.047 157.333 468.78 155.8 468.647 154.6C468.647 153.267 468.847 152.6 469.247 152.6C469.514 152.6 469.78 152.867 470.047 153.4C470.447 153.8 470.847 154.333 471.247 155C471.647 155.667 471.98 156.333 472.247 157C472.514 157.667 472.714 158.133 472.847 158.4C473.514 160 474.18 161.6 474.847 163.2C475.647 164.667 476.447 166.133 477.247 167.6ZM481.447 130.6C484.38 124.867 487.38 119.333 490.447 114C493.647 108.533 496.18 104.2 498.047 101C501.247 95.2667 504.58 89.6667 508.047 84.2C511.514 78.6 514.514 73.6667 517.047 69.4C517.314 68.7333 517.58 68.1333 517.847 67.6C518.247 67.0667 518.58 66.9333 518.847 67.2C519.114 67.2 519.18 67.5333 519.047 68.2C518.914 68.8667 518.78 69.5333 518.647 70.2C516.78 79.8 513.38 88.8667 508.447 97.4C503.647 105.933 498.58 114.533 493.247 123.2C491.38 126.133 489.714 128.6 488.247 130.6C486.914 132.467 485.714 134.333 484.647 136.2C483.714 137.933 482.914 139.867 482.247 142C481.58 144.133 481.114 146.867 480.847 150.2C481.38 148.733 481.98 147.333 482.647 146C483.314 144.667 483.98 143.4 484.647 142.2C488.38 135.8 492.58 129.4 497.247 123C501.914 116.6 506.514 110.6 511.047 105C511.314 104.733 511.78 104.2 512.447 103.4C513.247 102.467 513.78 102.067 514.047 102.2C514.314 102.333 514.247 102.933 513.847 104C513.58 105.067 513.38 105.867 513.247 106.4C512.58 107.867 511.714 109.667 510.647 111.8C509.714 113.933 508.647 116.133 507.447 118.4C506.38 120.533 505.247 122.667 504.047 124.8C502.847 126.8 501.78 128.467 500.847 129.8C500.314 130.6 499.18 132.2 497.447 134.6C495.714 137 493.847 140 491.847 143.6C489.847 147.2 487.847 151.267 485.847 155.8C483.98 160.333 482.58 165.133 481.647 170.2C481.247 169.4 480.714 168.4 480.047 167.2C479.514 166 478.847 164.067 478.047 161.4C475.647 153 474.314 144.533 474.047 136C473.914 127.333 473.914 118.467 474.047 109.4C474.18 103.667 474.18 97.9333 474.047 92.2C474.047 86.4667 473.114 80.4 471.247 74C471.114 73.4667 471.114 73.0667 471.247 72.8C471.514 72.8 471.914 73.2 472.447 74C474.847 76.5333 476.647 80.2667 477.847 85.2C479.047 90 479.914 95.1333 480.447 100.6C480.98 105.933 481.247 111.2 481.247 116.4C481.38 121.467 481.447 125.533 481.447 128.6V130.6ZM428.847 113.2C431.114 106.267 433.647 99.2667 436.447 92.2C439.38 85.1333 441.914 78.8 444.047 73.2C444.314 72.5333 444.58 71.8667 444.847 71.2C445.247 70.5333 445.58 70.2667 445.847 70.4C446.114 70.4 446.18 70.8667 446.047 71.8C446.047 72.6 446.047 73.3333 446.047 74C444.847 84.9333 442.447 95.8 438.847 106.6C435.247 117.4 431.247 128.067 426.847 138.6C424.18 145.267 421.314 152 418.247 158.8C415.18 165.467 412.647 172.733 410.647 180.6C410.38 181.267 410.247 181.667 410.247 181.8C410.38 181.933 410.38 182 410.247 182C409.847 181.733 409.647 181.133 409.647 180.2C408.98 176.2 409.38 171.2 410.847 165.2C412.314 159.067 414.18 152.8 416.447 146.4C418.714 139.867 421.047 133.667 423.447 127.8C425.847 121.8 427.647 116.933 428.847 113.2ZM420.247 160.8C423.58 153.2 427.18 145.4 431.047 137.4C434.914 129.267 438.647 121.533 442.247 114.2C442.38 113.8 442.714 113.067 443.247 112C443.914 110.933 444.514 110.467 445.047 110.6C445.314 110.6 445.38 111.2 445.247 112.4C445.114 113.6 444.914 114.467 444.647 115C444.247 116.867 443.714 119.133 443.047 121.8C442.38 124.333 441.58 127 440.647 129.8C439.847 132.467 438.98 135.133 438.047 137.8C437.114 140.333 436.247 142.467 435.447 144.2C435.047 145 434.314 146.733 433.247 149.4C432.314 151.933 431.114 155 429.647 158.6C428.314 162.2 426.847 166.067 425.247 170.2C423.78 174.2 422.38 178.067 421.047 181.8C419.714 185.4 418.514 188.667 417.447 191.6C416.514 194.4 415.98 196.4 415.847 197.6C415.58 198.933 415.314 199.6 415.047 199.6C414.78 199.6 414.58 199.333 414.447 198.8C414.447 198.267 414.38 197.867 414.247 197.6C413.58 196 413.247 193.667 413.247 190.6C413.38 187.533 413.78 184.267 414.447 180.8C415.114 177.333 415.914 173.8 416.847 170.2C417.914 166.6 419.047 163.467 420.247 160.8ZM539.447 143.6C538.78 149.6 537.714 155.6 536.247 161.6C534.914 167.6 533.714 172.933 532.647 177.6C532.114 179.333 531.714 180.133 531.447 180C531.18 180 530.98 179.733 530.847 179.2C530.847 178.533 530.78 177.867 530.647 177.2C529.58 168.267 529.714 159.333 531.047 150.4C532.38 141.467 533.847 132.333 535.447 123C536.514 117.4 537.38 111.667 538.047 105.8C538.714 99.8 538.714 93.4 538.047 86.6C538.047 86.0667 538.18 85.6667 538.447 85.4C538.714 85.4 538.847 85.6 538.847 86C538.98 86.2667 539.18 86.4667 539.447 86.6C541.447 89.5333 542.58 93.6 542.847 98.8C543.247 103.867 543.247 109.2 542.847 114.8C542.447 120.4 541.847 125.8 541.047 131C540.38 136.2 539.847 140.4 539.447 143.6ZM448.847 67.2C448.58 64.4 448.18 61.8 447.647 59.4C447.247 57 446.714 54.5333 446.047 52C445.914 51.7333 445.847 51.4 445.847 51C445.847 50.6 445.914 50.4 446.047 50.4C446.447 50.4 446.847 50.6 447.247 51L448.047 51.8C449.514 53.8 450.714 55.8 451.647 57.8C452.58 59.6667 453.18 62.8 453.447 67.2C453.58 68.9333 453.58 71.0667 453.447 73.6C453.314 76.1333 453.047 78.5333 452.647 80.8C452.38 83.0667 451.98 85 451.447 86.6C451.047 88.2 450.647 88.9333 450.247 88.8C449.98 88.8 449.78 88.4667 449.647 87.8C449.514 87 449.38 86.1333 449.247 85.2C449.247 84.2667 449.247 83.3333 449.247 82.4C449.247 81.3333 449.247 80.6 449.247 80.2C449.247 77.9333 449.247 75.8 449.247 73.8C449.247 71.6667 449.114 69.4667 448.847 67.2ZM522.047 64.6C521.914 62.2 521.647 59.9333 521.247 57.8C520.98 55.6667 520.514 53.4667 519.847 51.2C519.714 50.9333 519.58 50.6 519.447 50.2C519.447 49.8 519.58 49.6667 519.847 49.8C520.114 50.0667 520.314 50.2667 520.447 50.4C520.714 50.5333 520.98 50.6667 521.247 50.8L521.647 51.2C523.114 53.0667 524.247 54.8667 525.047 56.6C525.98 58.3333 526.514 61.2 526.647 65.2C526.647 66.6667 526.447 68.5333 526.047 70.8C525.78 73.0667 525.38 75.2667 524.847 77.4C524.447 79.4 523.914 81.1333 523.247 82.6C522.714 83.9333 522.18 84.4667 521.647 84.2C521.38 84.0667 521.247 83.6667 521.247 83C521.247 82.2 521.247 81.4 521.247 80.6C521.247 79.6667 521.314 78.8 521.447 78C521.58 77.2 521.647 76.6 521.647 76.2C521.914 74.0667 522.047 72.0667 522.047 70.2C522.18 68.3333 522.18 66.4667 522.047 64.6ZM529.047 183C529.847 185.267 530.714 187.333 531.647 189.2C532.714 191.067 533.78 192.933 534.847 194.8C534.98 194.933 535.114 195.2 535.247 195.6C535.38 195.867 535.314 196 535.047 196C534.647 196 534.314 195.933 534.047 195.8C533.914 195.667 533.714 195.533 533.447 195.4C533.18 195.267 532.98 195.133 532.847 195C530.98 193.533 529.447 192.133 528.247 190.8C527.047 189.467 525.847 187.067 524.647 183.6C524.247 182.267 523.847 180.6 523.447 178.6C523.047 176.6 522.78 174.667 522.647 172.8C522.514 170.933 522.514 169.333 522.647 168C522.78 166.667 523.114 166 523.647 166C523.78 166 523.98 166.333 524.247 167C524.514 167.533 524.714 168.2 524.847 169C525.114 169.667 525.314 170.4 525.447 171.2C525.714 171.867 525.914 172.333 526.047 172.6C526.714 174.467 527.247 176.267 527.647 178C528.047 179.733 528.514 181.4 529.047 183ZM614.705 53.8C614.438 53.4 614.038 52.8 613.505 52C613.105 51.0667 613.038 50.4667 613.305 50.2C613.571 49.9333 613.971 50 614.505 50.4C615.171 50.8 615.571 51.0667 615.705 51.2C618.105 52.9333 620.305 55.3333 622.305 58.4C624.438 61.4667 626.305 64.8667 627.905 68.6C629.638 72.2 631.171 76 632.505 80C633.838 84 634.905 87.8 635.705 91.4C637.705 100.2 639.371 108.867 640.705 117.4C642.171 125.933 642.905 134.733 642.905 143.8C642.905 144.067 642.905 144.867 642.905 146.2C643.038 147.533 642.838 148.333 642.305 148.6C641.905 148.333 641.438 147.667 640.905 146.6C640.505 145.533 640.238 144.8 640.105 144.4C638.505 139.467 637.038 133.867 635.705 127.6C634.505 121.2 633.371 115.4 632.305 110.2C631.505 106.2 630.771 102.4 630.105 98.8C629.438 95.0667 628.638 91.4667 627.705 88C626.905 84.5333 625.905 81.0667 624.705 77.6C623.638 74 622.305 70.2667 620.705 66.4C620.438 65.8667 619.971 64.9333 619.305 63.6C618.771 62.2667 618.171 60.9333 617.505 59.6C616.838 58.2667 616.238 57.0667 615.705 56C615.171 54.8 614.838 54.0667 614.705 53.8ZM662.705 202C661.238 201.2 660.238 200.667 659.705 200.4C659.171 200.267 658.171 199.733 656.705 198.8C653.505 196.933 650.571 194.533 647.905 191.6C645.238 188.533 642.838 185.2 640.705 181.6C638.571 178 636.638 174.2 634.905 170.2C633.305 166.067 631.905 162 630.705 158C628.038 159.733 624.838 160.8 621.105 161.2C617.505 161.467 614.171 161.6 611.105 161.6C607.238 161.6 603.371 161.467 599.505 161.2C595.771 160.933 591.971 160.8 588.105 160.8C584.371 167.733 580.838 174.467 577.505 181C574.305 187.4 571.771 193.4 569.905 199C569.905 199.133 569.838 199.4 569.705 199.8C569.571 200.333 569.371 200.6 569.105 200.6C568.705 200.6 568.505 200.133 568.505 199.2C568.505 198.267 568.505 197.667 568.505 197.4C568.505 192.067 569.771 186.133 572.305 179.6C574.971 172.933 577.905 166.4 581.105 160L578.105 159.8C577.305 161.667 576.171 164.267 574.705 167.6C573.371 170.933 572.038 174.4 570.705 178C569.505 181.6 568.371 185.067 567.305 188.4C566.371 191.733 565.905 194.4 565.905 196.4C565.905 196.8 565.705 197 565.305 197C564.771 197 564.371 196.6 564.105 195.8C563.838 194.867 563.571 193.867 563.305 192.8C563.171 191.733 563.038 190.667 562.905 189.6C562.905 188.4 562.905 187.6 562.905 187.2C562.905 182.533 563.505 177.667 564.705 172.6C565.905 167.4 567.505 162.667 569.505 158.4L566.905 158C565.705 160.933 564.571 163.867 563.505 166.8C562.438 169.6 561.505 172.533 560.705 175.6C560.705 175.867 560.638 176.2 560.505 176.6C560.371 177 560.171 177.133 559.905 177C559.638 176.467 559.438 175.867 559.305 175.2C559.305 174.4 559.305 173.733 559.305 173.2C559.305 167.6 560.305 162.2 562.305 157C562.971 155.667 563.638 155 564.305 155C567.105 154.2 569.905 153.733 572.705 153.6C575.638 153.467 578.638 153.4 581.705 153.4C588.371 153.4 594.971 153.933 601.505 155C608.038 155.933 614.571 156.4 621.105 156.4C624.305 156.4 627.238 156.133 629.905 155.6L629.505 152.4C628.038 152.8 626.438 153.067 624.705 153.2C623.105 153.333 621.571 153.4 620.105 153.4C614.905 153.4 609.505 152.867 603.905 151.8C598.438 150.733 593.171 149.467 588.105 148C587.838 147.733 587.305 147.533 586.505 147.4C585.705 147.133 585.305 146.8 585.305 146.4C585.305 146.133 585.705 145.933 586.505 145.8C587.305 145.533 587.838 145.4 588.105 145.4C589.971 145.267 591.771 145.2 593.505 145.2C595.371 145.067 597.238 145 599.105 145C602.171 145 605.238 145.067 608.305 145.2C611.371 145.2 614.505 145.2 617.705 145.2C619.305 145.2 620.971 145.2 622.705 145.2C624.438 145.2 626.105 145.133 627.705 145L627.305 142.8H624.705C618.305 142.8 611.905 142.2 605.505 141C599.238 139.8 592.905 139.2 586.505 139.2C581.038 139.2 576.171 139.867 571.905 141.2C567.771 142.533 564.171 144.067 561.105 145.8C558.171 147.533 555.771 149.267 553.905 151C552.038 152.733 550.705 154 549.905 154.8C549.638 154.933 549.505 155 549.505 155C549.371 155 549.305 154.867 549.305 154.6C549.305 154.467 549.371 154.333 549.505 154.2C551.905 149.533 554.838 145.667 558.305 142.6C561.771 139.4 566.038 137 571.105 135.4C576.171 124.6 581.371 113.867 586.705 103.2C592.171 92.5333 597.905 82 603.905 71.6C604.038 71.3333 604.305 70.9333 604.705 70.4C605.105 69.7333 605.505 69.4 605.905 69.4C606.038 69.5333 606.105 69.6667 606.105 69.8V70.2C606.105 71.2667 606.038 72.0667 605.905 72.6C603.371 83.4 599.638 93.8 594.705 103.8C589.771 113.8 584.705 123.667 579.505 133.4L583.305 133.2C583.705 132.4 584.705 130.667 586.305 128C588.038 125.333 589.838 122.6 591.705 119.8C593.705 116.867 595.505 114.267 597.105 112C598.705 109.6 599.705 108.4 600.105 108.4L600.305 109C600.305 109.667 599.905 111.133 599.105 113.4C598.305 115.667 597.371 118.133 596.305 120.8C595.238 123.467 594.171 126 593.105 128.4C592.171 130.667 591.505 132.267 591.105 133.2C591.905 133.2 592.705 133.267 593.505 133.4C594.305 133.4 595.105 133.4 595.905 133.4C598.305 128.6 600.838 123.6 603.505 118.4C606.305 113.067 608.705 107.667 610.705 102.2C612.705 96.7333 614.038 91.2 614.705 85.6C615.505 80 615.105 74.4667 613.505 69C613.505 69.6667 613.305 71 612.905 73C612.638 75 612.238 77.1333 611.705 79.4C611.171 81.5333 610.638 83.4667 610.105 85.2C609.571 86.8 609.038 87.6 608.505 87.6C608.105 87.6 607.905 87.3333 607.905 86.8C608.038 86.2667 608.105 85.9333 608.105 85.8C608.105 82.3333 608.305 78.9333 608.705 75.6C609.238 72.1333 609.505 68.6667 609.505 65.2C609.505 60.5333 608.771 56 607.305 51.6C607.305 51.4667 607.105 50.9333 606.705 50C606.305 48.9333 606.438 48.4 607.105 48.4C607.371 48.4 607.838 48.7333 608.505 49.4C609.838 50.7333 611.105 52.5333 612.305 54.8C613.638 57.0667 614.838 59.5333 615.905 62.2C616.971 64.7333 617.971 67.2667 618.905 69.8C619.838 72.3333 620.571 74.4667 621.105 76.2C622.838 81.9333 624.238 87.7333 625.305 93.6C626.505 99.3333 627.505 105.133 628.305 111C629.238 116.733 630.171 122.533 631.105 128.4C632.038 134.267 633.105 140.067 634.305 145.8C635.505 151.4 636.905 156.867 638.505 162.2C640.238 167.533 642.305 172.6 644.705 177.4C647.105 182.2 649.838 186.667 652.905 190.8C656.105 194.8 659.771 198.333 663.905 201.4C664.571 202.067 664.771 202.467 664.505 202.6C664.371 202.867 663.771 202.667 662.705 202ZM662.305 185C662.438 185.8 662.371 186.2 662.105 186.2C661.838 186.067 661.505 185.8 661.105 185.4C660.838 185 660.505 184.533 660.105 184C659.838 183.467 659.705 183.133 659.705 183C656.505 177.133 653.971 171.2 652.105 165.2C650.238 159.067 648.771 152.933 647.705 146.8C646.638 140.533 645.705 134.267 644.905 128C644.238 121.6 643.371 115.133 642.305 108.6C641.371 101.933 640.105 95.2 638.505 88.4C636.905 81.6 634.638 74.6667 631.705 67.6C631.571 67.3333 631.371 66.8667 631.105 66.2C630.838 65.5333 630.838 65.1333 631.105 65C631.371 65 631.705 65.2 632.105 65.6L632.905 66.4C635.838 69.8667 638.438 74.4667 640.705 80.2C642.971 85.9333 644.971 92.0667 646.705 98.6C648.438 105.133 649.838 111.6 650.905 118C652.105 124.4 653.038 130 653.705 134.8C654.771 142.4 655.905 150.4 657.105 158.8C658.305 167.2 659.838 175.133 661.705 182.6L662.305 185ZM602.905 134.2C606.771 134.6 610.571 135.067 614.305 135.6C618.171 136.133 622.038 136.533 625.905 136.8C624.438 129.733 623.171 122.733 622.105 115.8C621.038 108.867 620.038 101.8 619.105 94.6C617.371 101.533 614.971 108.267 611.905 114.8C608.971 121.333 605.971 127.8 602.905 134.2ZM668.705 199.8C666.038 198.6 663.705 197.467 661.705 196.4C659.705 195.2 657.971 193.6 656.505 191.6C654.238 188.533 652.438 185.467 651.105 182.4C649.905 179.333 648.905 176.467 648.105 173.8C647.838 172.733 647.571 171.533 647.305 170.2C647.171 168.867 647.238 168.2 647.505 168.2C648.038 168.2 648.705 169.067 649.505 170.8C650.305 172.533 651.038 174 651.705 175.2C653.705 179.333 656.238 183.533 659.305 187.8C662.371 191.933 665.705 195.333 669.305 198C670.371 198.933 670.705 199.533 670.305 199.8C669.905 200.067 669.371 200.067 668.705 199.8ZM550.505 161.4C550.505 161.4 550.371 161.4 550.105 161.4H549.905C549.905 161 549.971 160.6 550.105 160.2C550.238 159.8 550.371 159.4 550.505 159C551.571 156.733 552.571 155.067 553.505 154C554.571 152.8 556.238 151.533 558.505 150.2C559.838 149.4 561.705 148.6 564.105 147.8C566.505 147 568.438 146.6 569.905 146.6C570.171 146.6 570.505 146.667 570.905 146.8C571.438 146.8 571.705 147 571.705 147.4C571.705 147.8 570.971 148.333 569.505 149C568.171 149.667 567.305 150.133 566.905 150.4C561.838 153.467 558.105 155.8 555.705 157.4C553.305 159 551.571 160.333 550.505 161.4ZM721.528 158.4C725.795 162.267 729.795 166.4 733.528 170.8C737.261 175.067 740.861 179.533 744.328 184.2C744.461 184.467 744.795 185 745.328 185.8C745.995 186.467 746.195 186.933 745.928 187.2C745.795 187.333 745.261 187.267 744.328 187C743.528 186.6 742.995 186.267 742.728 186C741.661 185.333 740.395 184.467 738.928 183.4C737.595 182.333 736.128 181.2 734.528 180C733.061 178.8 731.595 177.6 730.128 176.4C728.661 175.067 727.461 173.867 726.528 172.8C725.861 172.267 724.261 170.933 721.728 168.8C719.195 166.533 716.328 164.133 713.128 161.6C709.928 159.067 706.661 156.733 703.328 154.6C699.995 152.467 697.261 151.133 695.128 150.6C694.728 150.467 694.128 150.267 693.328 150C692.661 149.733 692.395 149.267 692.528 148.6C693.595 143.533 694.928 138.6 696.528 133.8C698.128 129 699.661 124.067 701.128 119C702.995 112.733 704.728 106.333 706.328 99.8C708.061 93.2667 709.061 86.2 709.328 78.6C709.328 77.9333 709.395 77.6 709.528 77.6C709.928 77.6 710.261 78.0667 710.528 79C712.128 82.6 712.795 87.2667 712.528 93C712.261 98.7333 711.528 104.733 710.328 111C709.261 117.133 707.861 123.067 706.128 128.8C704.528 134.4 703.128 138.867 701.928 142.2L701.328 143.8C706.261 140.467 711.395 137.133 716.728 133.8C722.061 130.467 726.995 127.133 731.528 123.8C736.195 120.333 740.195 116.8 743.528 113.2C746.995 109.467 749.328 105.6 750.528 101.6C751.328 98.9333 751.195 96.2667 750.128 93.6C749.195 90.9333 747.461 88.4667 744.928 86.2C742.528 83.8 739.461 81.7333 735.728 80C731.995 78.2667 727.861 77.0667 723.328 76.4C717.328 75.6 711.261 75.4 705.128 75.8C705.661 79.8 705.728 83.8667 705.328 88C705.061 92 704.595 95.4667 703.928 98.4C702.195 105.6 699.995 113.067 697.328 120.8C694.661 128.4 691.928 135.533 689.128 142.2C688.861 142.6 688.461 143.267 687.928 144.2C687.395 145.133 686.928 145.533 686.528 145.4C686.261 145.267 686.195 144.667 686.328 143.6C686.461 142.533 686.528 141.8 686.528 141.4C686.661 139.8 686.928 137.867 687.328 135.6C687.861 133.2 688.328 130.733 688.728 128.2C689.261 125.667 689.795 123.267 690.328 121C690.995 118.6 691.595 116.533 692.128 114.8C692.395 114 692.795 112.333 693.328 109.8C693.995 107.133 694.661 104 695.328 100.4C695.995 96.8 696.661 92.9333 697.328 88.8C697.995 84.6667 698.528 80.6667 698.928 76.8L696.128 77.2C695.728 82.2667 694.928 87.4 693.728 92.6C692.528 97.8 691.128 103.067 689.528 108.4C688.061 113.6 686.461 118.933 684.728 124.4C683.128 129.733 681.728 135 680.528 140.2C679.461 144.867 678.595 149.733 677.928 154.8C677.395 159.867 677.195 164.867 677.328 169.8C677.595 174.733 678.195 179.533 679.128 184.2C680.195 188.733 681.861 192.867 684.128 196.6C684.395 197.267 684.395 197.6 684.128 197.6C683.861 197.6 683.528 197.4 683.128 197C679.795 193.133 677.261 188.8 675.528 184C673.795 179.2 672.661 174.2 672.128 169C671.728 163.667 671.795 158.2 672.328 152.6C672.995 147 673.928 141.533 675.128 136.2C677.395 126.2 680.128 116.333 683.328 106.6C686.528 96.8667 689.195 87.4667 691.328 78.4C687.995 79.2 684.728 80.2 681.528 81.4C678.328 82.4667 675.328 83.6667 672.528 85C671.861 85.2667 671.461 85.3333 671.328 85.2C671.195 85.0667 671.261 84.8667 671.528 84.6C671.795 84.2 672.061 83.9333 672.328 83.8C678.995 78.3333 687.128 74.4667 696.728 72.2C706.328 69.9333 716.128 69.3333 726.128 70.4C731.328 71.0667 736.061 72.5333 740.328 74.8C744.728 77.0667 748.328 79.8667 751.128 83.2C753.928 86.4 755.728 90 756.528 94C757.461 98 757.061 102 755.328 106C753.328 110.667 750.128 115 745.728 119C741.461 123 736.595 126.733 731.128 130.2C725.795 133.667 720.128 136.867 714.128 139.8C708.128 142.733 702.528 145.467 697.328 148C699.461 148 701.661 148.333 703.928 149C706.195 149.667 708.395 150.533 710.528 151.6C712.795 152.533 714.861 153.6 716.728 154.8C718.728 156 720.328 157.2 721.528 158.4ZM776.928 108.4C774.928 115.333 771.861 121.267 767.728 126.2C763.728 131 759.261 135 754.328 138.2C749.395 141.4 744.395 143.867 739.328 145.6C734.261 147.2 729.861 148.267 726.128 148.8C725.061 149.067 724.061 149.2 723.128 149.2C722.328 149.067 721.995 148.867 722.128 148.6C721.861 148.333 722.128 148.067 722.928 147.8C723.861 147.533 724.795 147.2 725.728 146.8C732.928 144.133 739.861 140.667 746.528 136.4C753.195 132.133 759.061 126.467 764.128 119.4C766.528 116.067 768.328 112.2 769.528 107.8C770.728 103.4 771.128 98.9333 770.728 94.4C770.461 89.8667 769.328 85.4667 767.328 81.2C765.461 76.9333 762.661 73.2667 758.928 70.2C754.528 66.4667 749.728 63.5333 744.528 61.4C739.328 59.2667 733.995 57.8 728.528 57C723.061 56.2 717.528 56.0667 711.928 56.6C706.328 57 700.928 57.8667 695.728 59.2C694.795 59.4667 694.261 59.6667 694.128 59.8C693.995 59.8 693.861 59.6667 693.728 59.4C693.728 59.2667 694.261 58.8 695.328 58C697.461 56.6667 700.261 55.4667 703.728 54.4C707.328 53.2 711.328 52.4 715.728 52C720.261 51.6 725.128 51.6667 730.328 52.2C735.528 52.6 740.861 53.8 746.328 55.8C751.928 57.6667 757.195 60.6 762.128 64.6C767.061 68.4667 770.995 73.2667 773.928 79C776.728 84.6 778.128 90.0667 778.128 95.4C778.261 100.6 777.861 104.933 776.928 108.4ZM675.328 75.8C677.995 71.9333 681.528 68.8 685.928 66.4C690.328 63.8667 695.128 62 700.328 60.8C705.528 59.6 710.928 59.0667 716.528 59.2C722.261 59.3333 727.795 60 733.128 61.2C738.461 62.4 743.395 64.2 747.928 66.6C752.595 69 756.461 71.9333 759.528 75.4C761.661 77.9333 763.261 80.6667 764.328 83.6C765.528 86.4 766.128 89.3333 766.128 92.4C766.261 95.3333 765.928 98.2 765.128 101C764.461 103.8 763.461 106.4 762.128 108.8C761.861 109.333 761.195 110.267 760.128 111.6C759.061 112.8 758.395 113.267 758.128 113C757.861 112.867 758.061 112.133 758.728 110.8C759.395 109.467 759.861 108.467 760.128 107.8C761.195 104.333 761.595 100.933 761.328 97.6C761.195 94.1333 760.528 90.9333 759.328 88C758.261 85.0667 756.795 82.4667 754.928 80.2C753.061 77.8 751.061 75.8667 748.928 74.4C743.861 71.0667 738.128 68.7333 731.728 67.4C725.328 65.9333 718.795 65.4 712.128 65.8C705.595 66.0667 699.195 67.2 692.928 69.2C686.661 71.0667 681.261 73.6 676.728 76.8C675.528 77.8667 674.728 78.2 674.328 77.8C674.061 77.6667 674.061 77.4 674.328 77C674.728 76.4667 675.061 76.0667 675.328 75.8ZM781.928 201.8C782.728 201.667 783.128 201.733 783.128 202C783.128 202.267 782.795 202.533 782.128 202.8C777.328 204.533 772.661 205.467 768.128 205.6C763.595 205.733 759.261 205.267 755.128 204.2C750.995 203.267 747.128 201.867 743.528 200C739.928 198.267 736.661 196.333 733.728 194.2C730.261 191.667 726.928 188.867 723.728 185.8C720.661 182.6 717.661 179.467 714.728 176.4C711.795 173.2 708.861 170.133 705.928 167.2C702.995 164.267 699.995 161.667 696.928 159.4C694.661 166.867 692.595 173.467 690.728 179.2C690.461 179.867 690.195 180.467 689.928 181C689.661 181.533 689.395 181.733 689.128 181.6C688.861 181.467 688.728 181.133 688.728 180.6C688.728 179.933 688.728 179.267 688.728 178.6C688.995 174.867 689.261 171.067 689.528 167.2C689.795 163.333 690.395 159.467 691.328 155.6C690.395 155.067 689.461 154.6 688.528 154.2C687.728 153.8 686.795 153.333 685.728 152.8C685.328 152.4 685.128 152.133 685.128 152C685.128 151.867 685.261 151.8 685.528 151.8C685.928 151.8 686.261 151.8 686.528 151.8C691.861 152.2 696.728 153.867 701.128 156.8C705.528 159.6 709.795 162.933 713.928 166.8C718.061 170.667 722.128 174.8 726.128 179.2C730.128 183.467 734.395 187.267 738.928 190.6C741.461 192.467 744.328 194.2 747.528 195.8C750.861 197.267 754.395 198.533 758.128 199.6C761.861 200.667 765.728 201.4 769.728 201.8C773.861 202.333 777.928 202.333 781.928 201.8ZM750.928 172.6C754.661 175.933 758.195 179.667 761.528 183.8C764.995 187.933 768.328 191.267 771.528 193.8C772.461 194.733 772.861 195.4 772.728 195.8C772.461 196.067 772.128 196.133 771.728 196C771.328 195.867 770.861 195.733 770.328 195.6C766.728 194.4 763.328 192.733 760.128 190.6C757.061 188.467 754.061 186.067 751.128 183.4C748.195 180.733 745.328 177.933 742.528 175C739.861 172.067 737.128 169.2 734.328 166.4C732.461 164.533 730.395 162.467 728.128 160.2C725.995 157.933 723.728 155.867 721.328 154C718.928 152 716.395 150.4 713.728 149.2C711.195 147.867 708.528 147.2 705.728 147.2L713.528 143.8C715.528 142.867 717.995 141.733 720.928 140.4C723.861 139.067 726.661 137.8 729.328 136.6C731.995 135.4 734.328 134.467 736.328 133.8C738.328 133 739.395 132.667 739.528 132.8C739.661 133.067 739.395 133.533 738.728 134.2C738.195 134.867 737.395 135.6 736.328 136.4C735.395 137.2 734.461 137.933 733.528 138.6C732.595 139.267 731.928 139.667 731.528 139.8C728.995 141.267 726.595 142.667 724.328 144C722.195 145.2 719.995 146.333 717.728 147.4C720.795 148.6 723.928 150.333 727.128 152.6C730.328 154.733 733.395 157.067 736.328 159.6C739.261 162.133 741.995 164.6 744.528 167C747.061 169.267 749.195 171.133 750.928 172.6ZM686.128 185C686.528 187.267 687.061 189.467 687.728 191.6C688.395 193.733 689.195 195.533 690.128 197C690.261 197 690.328 197.067 690.328 197.2C690.461 197.467 690.395 197.6 690.128 197.6C689.861 197.6 689.528 197.467 689.128 197.2C688.861 197.067 688.595 197 688.328 197C686.595 195.933 685.195 194.667 684.128 193.2C683.195 191.6 682.395 188.867 681.728 185C681.461 183.533 681.328 181.667 681.328 179.4C681.328 177.133 681.395 175 681.528 173C681.661 170.867 681.861 169.067 682.128 167.6C682.395 166.133 682.795 165.4 683.328 165.4C683.461 165.4 683.595 165.733 683.728 166.4C683.995 167.067 684.195 167.867 684.328 168.8C684.461 169.6 684.528 170.4 684.528 171.2C684.661 172 684.728 172.533 684.728 172.8C684.995 175.067 685.195 177.2 685.328 179.2C685.461 181.2 685.728 183.133 686.128 185ZM773.728 197.6C775.861 197.733 777.461 197.733 778.528 197.6C779.728 197.6 781.261 197.467 783.128 197.2C783.261 197.2 783.595 197.133 784.128 197C784.661 197 784.995 197.067 785.128 197.2C785.261 197.467 785.061 197.8 784.528 198.2C784.128 198.6 783.795 198.867 783.528 199C781.395 199.667 779.395 200.133 777.528 200.4C775.795 200.667 773.195 200.6 769.728 200.2C768.528 200.067 767.195 199.8 765.728 199.4C764.261 199 762.928 198.533 761.728 198C760.528 197.6 759.595 197.2 758.928 196.8C758.261 196.267 758.128 195.867 758.528 195.6C758.795 195.467 759.595 195.6 760.928 196C762.395 196.267 763.395 196.467 763.928 196.6C765.795 197 767.528 197.267 769.128 197.4C770.728 197.533 772.261 197.6 773.728 197.6ZM840.461 95.4C838.594 102.6 836.261 110.067 833.461 117.8C830.794 125.533 827.994 132.867 825.061 139.8C824.928 140.067 824.594 140.733 824.061 141.8C823.528 142.733 823.128 143.133 822.861 143C822.461 143 822.261 142.467 822.261 141.4C822.394 140.2 822.528 139.4 822.661 139C822.794 137.4 823.061 135.4 823.461 133C823.861 130.6 824.261 128.133 824.661 125.6C825.194 123.067 825.728 120.6 826.261 118.2C826.928 115.8 827.528 113.733 828.061 112C828.328 111.467 828.728 110.133 829.261 108C829.794 105.867 830.328 103.333 830.861 100.4C831.528 97.3333 832.194 94 832.861 90.4C833.528 86.8 834.128 83.2667 834.661 79.8L832.261 79.2C831.594 83.8667 830.594 88.6667 829.261 93.6C828.061 98.4 826.661 103.267 825.061 108.2C823.594 113 822.128 117.933 820.661 123C819.194 127.933 817.861 132.867 816.661 137.8C815.594 142.467 814.794 147.333 814.261 152.4C813.728 157.467 813.528 162.6 813.661 167.8C813.794 172.867 814.394 177.867 815.461 182.8C816.528 187.6 818.128 192.067 820.261 196.2C820.661 197.133 820.794 197.6 820.661 197.6C820.394 197.6 820.194 197.533 820.061 197.4L819.661 197C815.928 192.6 813.128 187.867 811.261 182.8C809.528 177.6 808.394 172.267 807.861 166.8C807.461 161.333 807.594 155.8 808.261 150.2C808.928 144.6 809.861 139.133 811.061 133.8C813.328 123.933 815.994 114.467 819.061 105.4C822.128 96.2 824.728 87.2 826.861 78.4C818.861 77.0667 811.328 75.8667 804.261 74.8C797.328 73.6 790.861 73.6 784.861 74.8C784.461 74.8 784.261 74.7333 784.261 74.6C784.261 74.3333 784.328 74.2 784.461 74.2C784.728 74.0667 784.928 73.9333 785.061 73.8C789.594 71.1333 794.394 69.6667 799.461 69.4C804.661 69.1333 809.994 69.4 815.461 70.2C821.061 70.8667 826.728 71.8 832.461 73C838.328 74.0667 844.194 74.6667 850.061 74.8C853.661 74.9333 857.394 74.6667 861.261 74C865.261 73.2 869.061 72.0667 872.661 70.6C876.394 69 879.728 66.9333 882.661 64.4C885.728 61.8667 888.194 58.8667 890.061 55.4C890.328 54.7333 890.594 54.4 890.861 54.4V55V55.4C889.394 60.4667 887.128 64.6667 884.061 68C880.994 71.2 877.461 73.8 873.461 75.8C869.594 77.8 865.394 79.2 860.861 80C856.461 80.6667 852.128 80.9333 847.861 80.8C848.528 84.9333 848.528 89.7333 847.861 95.2C847.328 100.667 846.461 106.2 845.261 111.8C844.061 117.4 842.794 122.733 841.461 127.8C840.128 132.733 839.061 136.733 838.261 139.8C836.661 146.2 834.794 152.733 832.661 159.4C830.528 166.067 828.594 171.933 826.861 177C826.594 177.667 826.261 178.267 825.861 178.8C825.594 179.333 825.328 179.533 825.061 179.4C824.794 179.267 824.661 178.933 824.661 178.4C824.794 177.733 824.861 177.067 824.861 176.4C825.261 166.4 826.728 156.4 829.261 146.4C831.794 136.4 834.528 126.333 837.461 116.2C839.061 110.6 840.594 104.933 842.061 99.2C843.661 93.4667 844.794 87.3333 845.461 80.8C844.794 80.6667 844.194 80.6 843.661 80.6C843.261 80.6 842.728 80.6 842.061 80.6C842.061 83.2667 841.928 85.8667 841.661 88.4C841.528 90.9333 841.128 93.2667 840.461 95.4ZM845.861 52.8C851.061 53.4667 856.328 54 861.661 54.4C866.994 54.8 871.594 55 875.461 55C876.794 55 877.461 55.2 877.461 55.6C877.461 56.1333 876.794 56.6 875.461 57C868.661 59.6667 861.461 60.8667 853.861 60.6C846.394 60.3333 838.794 59.6 831.061 58.4C826.394 57.7333 821.594 57.0667 816.661 56.4C811.728 55.7333 806.394 55.7333 800.661 56.4C800.128 56.5333 799.861 56.4667 799.861 56.2C799.861 55.9333 799.994 55.7333 800.261 55.6C800.528 55.4667 800.794 55.2667 801.061 55C803.594 53.1333 806.861 51.9333 810.861 51.4C814.861 50.7333 818.994 50.4667 823.261 50.6C827.661 50.6 831.861 50.8667 835.861 51.4C839.861 51.9333 843.194 52.4 845.861 52.8ZM815.861 59C821.461 59.8 827.128 60.8 832.861 62C838.728 63.2 844.394 64.5333 849.861 66C850.128 66.2667 850.661 66.5333 851.461 66.8C852.394 66.9333 852.861 67.2 852.861 67.6C852.861 67.8667 852.461 68.0667 851.661 68.2C850.861 68.3333 850.261 68.5333 849.861 68.8C848.661 69.0667 847.128 69.2 845.261 69.2C843.528 69.2 841.661 69.2 839.661 69.2C837.794 69.0667 835.928 68.9333 834.061 68.8C832.194 68.6667 830.594 68.4667 829.261 68.2C828.328 68.0667 825.994 67.8 822.261 67.4C818.661 67 814.661 66.7333 810.261 66.6C805.861 66.4667 801.594 66.5333 797.461 66.8C793.461 66.9333 790.594 67.4667 788.861 68.4C788.328 68.6667 787.994 68.8 787.861 68.8H787.661C787.661 68.2667 787.928 67.7333 788.461 67.2C789.794 65.4667 791.594 64 793.861 62.8C796.261 61.6 798.728 60.6667 801.261 60C803.794 59.3333 806.328 58.9333 808.861 58.8C811.528 58.6667 813.861 58.7333 815.861 59ZM822.461 182.8C822.861 185.067 823.328 187.333 823.861 189.6C824.528 191.867 825.328 194.067 826.261 196.2C826.794 197.267 826.861 197.8 826.461 197.8C826.194 197.8 825.794 197.667 825.261 197.4C824.994 197.267 824.794 197.067 824.661 196.8C822.928 194.8 821.528 192.933 820.461 191.2C819.528 189.467 818.728 186.667 818.061 182.8C817.794 181.333 817.594 179.467 817.461 177.2C817.461 174.933 817.528 172.733 817.661 170.6C817.794 168.467 817.994 166.667 818.261 165.2C818.528 163.733 818.928 163 819.461 163C819.594 163 819.728 163.333 819.861 164C820.128 164.667 820.328 165.467 820.461 166.4C820.594 167.2 820.728 168.067 820.861 169C820.994 169.8 821.061 170.333 821.061 170.6C821.328 172.867 821.528 175 821.661 177C821.928 179 822.194 180.933 822.461 182.8ZM880.461 57.6C883.394 55.0667 885.861 52.3333 887.861 49.4C888.128 48.8667 888.394 48.6 888.661 48.6C888.794 48.6 888.861 49.0667 888.861 50C888.861 50.5333 888.794 51 888.661 51.4C888.128 53.6667 887.528 55.4667 886.861 56.8C886.194 58.1333 884.594 59.7333 882.061 61.6C881.128 62.4 879.861 63.2 878.261 64C876.661 64.6667 875.128 65.2667 873.661 65.8C872.194 66.3333 870.861 66.6667 869.661 66.8C868.594 66.8 867.994 66.5333 867.861 66C867.861 65.8667 868.061 65.6667 868.461 65.4C868.861 65 869.328 64.6 869.861 64.2C870.528 63.8 871.128 63.4667 871.661 63.2C872.194 62.8 872.594 62.5333 872.861 62.4C874.194 61.7333 875.461 61 876.661 60.2C877.994 59.4 879.261 58.5333 880.461 57.6Z" fill="#F0D752"/>
</svg>
