<svg width="686" height="171" viewBox="0 0 686 171" fill="none" xmlns="http://www.w3.org/2000/svg">
<path d="M169.4 16.4C168.867 15.2 168.733 14.6 169 14.6C169.4 14.6 169.867 14.9333 170.4 15.6C170.933 16.1333 171.267 16.4667 171.4 16.6C172.733 18.6 174.2 20.8 175.8 23.2C177.4 25.4667 178.933 28.2 180.4 31.4C181.867 34.6 183.2 38.3333 184.4 42.6C185.6 46.7333 186.533 51.6667 187.2 57.4C188 63.9333 188.133 70.4 187.6 76.8C187.2 83.0667 186.467 89.4 185.4 95.8C185.267 96.0667 185.133 96.7333 185 97.8C184.867 98.8667 184.6 99.4 184.2 99.4C183.933 99.4 183.667 98.9333 183.4 98C183.133 96.9333 183 96.2 183 95.8C182.733 94.3333 182.467 92.6 182.2 90.6C181.933 88.6 181.667 86.5333 181.4 84.4C181.267 82.1333 181.133 80 181 78C181 75.8667 181 74 181 72.4C181 71.8667 180.933 70.7333 180.8 69C180.8 67.1333 180.733 65 180.6 62.6C180.467 60.2 180.2 57.6 179.8 54.8C179.533 51.8667 179.2 49 178.8 46.2C179.067 50.3333 179.067 54.4667 178.8 58.6C178.533 62.7333 178.2 66.9333 177.8 71.2C177.4 75.3333 177.067 79.5333 176.8 83.8C176.533 87.9333 176.533 92.1333 176.8 96.4C177.2 104.667 178.867 113.067 181.8 121.6C184.733 130.133 189.4 137.4 195.8 143.4C196.6 144.2 196.933 144.6 196.8 144.6C196.533 144.733 196.067 144.6 195.4 144.2C190.733 141.533 186.867 138.333 183.8 134.6C180.733 130.867 178.2 126.8 176.2 122.4C174.333 118 172.933 113.467 172 108.8C171.067 104 170.533 99.2 170.4 94.4C170.4 94 170.333 93.6667 170.2 93.4C170.2 93 170.2 92.6 170.2 92.2C167.533 99.8 164.533 107.133 161.2 114.2C158 121.267 154.8 128.067 151.6 134.6C148.533 141.133 145.6 147.333 142.8 153.2C140.133 158.933 138 164.267 136.4 169.2C136.133 169.867 135.933 170.2 135.8 170.2C135.533 170.2 135.4 170 135.4 169.6C135.4 169.2 135.4 168.933 135.4 168.8C135.533 162.533 136.8 156 139.2 149.2C141.6 142.267 144.4 135.133 147.6 127.8C150.933 120.333 154.4 112.733 158 105C161.6 97.1333 164.733 89.1333 167.4 81C169 75.8 170.333 70.4 171.4 64.8C172.6 59.2 173.333 53.6 173.6 48C173.867 42.4 173.667 36.9333 173 31.6C172.333 26.1333 171.133 21.0667 169.4 16.4ZM194.2 131.6C195.667 134.667 197.6 137.533 200 140.2C200.933 134.6 202.733 129.067 205.4 123.6C208.067 118 211.067 112.4 214.4 106.8C217.867 101.2 221.467 95.6 225.2 90C228.933 84.4 232.4 78.7333 235.6 73C238 68.8667 240 64.4 241.6 59.6C243.333 54.8 244.533 49.9333 245.2 45C246 39.9333 246.2 34.9333 245.8 30C245.533 25.0667 244.533 20.4 242.8 16C242.4 15.3333 242.333 14.8667 242.6 14.6C242.867 14.3333 243.267 14.5333 243.8 15.2C244.467 15.7333 244.867 16.1333 245 16.4C246.6 18.6667 247.867 21.6667 248.8 25.4C249.867 29 250.6 33.0667 251 37.6C251.533 42 251.8 46.6667 251.8 51.6C251.8 56.5333 251.6 61.4667 251.2 66.4C250.667 72.9333 249.667 80.0667 248.2 87.8C246.867 95.5333 245.2 102.6 243.2 109C243.067 109.267 242.8 109.867 242.4 110.8C242.133 111.733 241.8 112.2 241.4 112.2C241.133 112.067 240.933 111.533 240.8 110.6C240.667 109.533 240.6 108.867 240.6 108.6C240.6 107.133 240.6 105.4 240.6 103.4C240.733 101.267 240.867 99.1333 241 97C241.133 94.7333 241.267 92.6 241.4 90.6C241.667 88.4667 241.933 86.6667 242.2 85.2C242.333 84.4 242.533 82.6 242.8 79.8C243.2 76.8667 243.533 73.6 243.8 70C242.2 73.7333 240.933 77.0667 240 80C239.067 82.9333 238.267 85.8 237.6 88.6C236.933 91.4 236.333 94.3333 235.8 97.4C235.4 100.467 235 104.067 234.6 108.2C234.2 112.333 234 116.667 234 121.2C234.133 125.733 234.6 130.2 235.4 134.6C236.333 139 237.6 143.333 239.2 147.6C240.933 151.733 243.133 155.533 245.8 159C246.333 159.8 246.467 160.267 246.2 160.4C245.933 160.533 245.6 160.4 245.2 160C240.933 156.533 237.533 152.667 235 148.4C232.6 144 230.8 139.4 229.6 134.6C228.4 129.8 227.733 124.933 227.6 120C227.6 114.933 227.867 110 228.4 105.2C228.667 103.467 228.867 101.733 229 100C229.267 98.2667 229.533 96.4667 229.8 94.6C226.733 99.5333 223.667 104.333 220.6 109C217.533 113.667 214.667 118.333 212 123C209.333 127.533 206.933 132.067 204.8 136.6C202.8 141 201.267 145.4 200.2 149.8C199.933 150.467 199.8 150.8 199.8 150.8C199.533 150.8 199.4 150.533 199.4 150C199.4 149.467 199.4 149.133 199.4 149C199.4 147.933 199.4 146.867 199.4 145.8C199.4 144.733 199.533 143.667 199.8 142.6C198.733 142.067 197.8 141.6 197 141.2C196.2 140.667 195.4 140.067 194.6 139.4C193.933 138.733 193.2 137.933 192.4 137C191.733 136.067 191 134.867 190.2 133.4C189.533 132.067 188.867 130.467 188.2 128.6C187.533 126.733 186.933 124.933 186.4 123.2C186 121.333 185.733 119.8 185.6 118.6C185.6 117.267 185.8 116.6 186.2 116.6C186.467 116.6 186.733 116.867 187 117.4C187.4 117.8 187.8 118.333 188.2 119C188.6 119.667 188.933 120.333 189.2 121C189.467 121.667 189.667 122.133 189.8 122.4C190.467 124 191.133 125.6 191.8 127.2C192.6 128.667 193.4 130.133 194.2 131.6ZM198.4 94.6C201.333 88.8667 204.333 83.3333 207.4 78C210.6 72.5333 213.133 68.2 215 65C218.2 59.2667 221.533 53.6667 225 48.2C228.467 42.6 231.467 37.6667 234 33.4C234.267 32.7333 234.533 32.1333 234.8 31.6C235.2 31.0667 235.533 30.9333 235.8 31.2C236.067 31.2 236.133 31.5333 236 32.2C235.867 32.8667 235.733 33.5333 235.6 34.2C233.733 43.8 230.333 52.8667 225.4 61.4C220.6 69.9333 215.533 78.5333 210.2 87.2C208.333 90.1333 206.667 92.6 205.2 94.6C203.867 96.4667 202.667 98.3333 201.6 100.2C200.667 101.933 199.867 103.867 199.2 106C198.533 108.133 198.067 110.867 197.8 114.2C198.333 112.733 198.933 111.333 199.6 110C200.267 108.667 200.933 107.4 201.6 106.2C205.333 99.8 209.533 93.4 214.2 87C218.867 80.6 223.467 74.6 228 69C228.267 68.7333 228.733 68.2 229.4 67.4C230.2 66.4667 230.733 66.0667 231 66.2C231.267 66.3333 231.2 66.9333 230.8 68C230.533 69.0667 230.333 69.8667 230.2 70.4C229.533 71.8667 228.667 73.6667 227.6 75.8C226.667 77.9333 225.6 80.1333 224.4 82.4C223.333 84.5333 222.2 86.6667 221 88.8C219.8 90.8 218.733 92.4667 217.8 93.8C217.267 94.6 216.133 96.2 214.4 98.6C212.667 101 210.8 104 208.8 107.6C206.8 111.2 204.8 115.267 202.8 119.8C200.933 124.333 199.533 129.133 198.6 134.2C198.2 133.4 197.667 132.4 197 131.2C196.467 130 195.8 128.067 195 125.4C192.6 117 191.267 108.533 191 100C190.867 91.3333 190.867 82.4667 191 73.4C191.133 67.6667 191.133 61.9333 191 56.2C191 50.4667 190.067 44.4 188.2 38C188.067 37.4667 188.067 37.0667 188.2 36.8C188.467 36.8 188.867 37.2 189.4 38C191.8 40.5333 193.6 44.2667 194.8 49.2C196 54 196.867 59.1333 197.4 64.6C197.933 69.9333 198.2 75.2 198.2 80.4C198.333 85.4667 198.4 89.5333 198.4 92.6V94.6ZM145.8 77.2C148.067 70.2667 150.6 63.2667 153.4 56.2C156.333 49.1333 158.867 42.8 161 37.2C161.267 36.5333 161.533 35.8667 161.8 35.2C162.2 34.5333 162.533 34.2667 162.8 34.4C163.067 34.4 163.133 34.8667 163 35.8C163 36.6 163 37.3333 163 38C161.8 48.9333 159.4 59.8 155.8 70.6C152.2 81.4 148.2 92.0667 143.8 102.6C141.133 109.267 138.267 116 135.2 122.8C132.133 129.467 129.6 136.733 127.6 144.6C127.333 145.267 127.2 145.667 127.2 145.8C127.333 145.933 127.333 146 127.2 146C126.8 145.733 126.6 145.133 126.6 144.2C125.933 140.2 126.333 135.2 127.8 129.2C129.267 123.067 131.133 116.8 133.4 110.4C135.667 103.867 138 97.6667 140.4 91.8C142.8 85.8 144.6 80.9333 145.8 77.2ZM137.2 124.8C140.533 117.2 144.133 109.4 148 101.4C151.867 93.2667 155.6 85.5333 159.2 78.2C159.333 77.8 159.667 77.0667 160.2 76C160.867 74.9333 161.467 74.4667 162 74.6C162.267 74.6 162.333 75.2 162.2 76.4C162.067 77.6 161.867 78.4667 161.6 79C161.2 80.8667 160.667 83.1333 160 85.8C159.333 88.3333 158.533 91 157.6 93.8C156.8 96.4667 155.933 99.1333 155 101.8C154.067 104.333 153.2 106.467 152.4 108.2C152 109 151.267 110.733 150.2 113.4C149.267 115.933 148.067 119 146.6 122.6C145.267 126.2 143.8 130.067 142.2 134.2C140.733 138.2 139.333 142.067 138 145.8C136.667 149.4 135.467 152.667 134.4 155.6C133.467 158.4 132.933 160.4 132.8 161.6C132.533 162.933 132.267 163.6 132 163.6C131.733 163.6 131.533 163.333 131.4 162.8C131.4 162.267 131.333 161.867 131.2 161.6C130.533 160 130.2 157.667 130.2 154.6C130.333 151.533 130.733 148.267 131.4 144.8C132.067 141.333 132.867 137.8 133.8 134.2C134.867 130.6 136 127.467 137.2 124.8ZM256.4 107.6C255.733 113.6 254.667 119.6 253.2 125.6C251.867 131.6 250.667 136.933 249.6 141.6C249.067 143.333 248.667 144.133 248.4 144C248.133 144 247.933 143.733 247.8 143.2C247.8 142.533 247.733 141.867 247.6 141.2C246.533 132.267 246.667 123.333 248 114.4C249.333 105.467 250.8 96.3333 252.4 87C253.467 81.4 254.333 75.6667 255 69.8C255.667 63.8 255.667 57.4 255 50.6C255 50.0667 255.133 49.6667 255.4 49.4C255.667 49.4 255.8 49.6 255.8 50C255.933 50.2667 256.133 50.4667 256.4 50.6C258.4 53.5333 259.533 57.6 259.8 62.8C260.2 67.8667 260.2 73.2 259.8 78.8C259.4 84.4 258.8 89.8 258 95C257.333 100.2 256.8 104.4 256.4 107.6ZM165.8 31.2C165.533 28.4 165.133 25.8 164.6 23.4C164.2 21 163.667 18.5333 163 16C162.867 15.7333 162.8 15.4 162.8 15C162.8 14.6 162.867 14.4 163 14.4C163.4 14.4 163.8 14.6 164.2 15L165 15.8C166.467 17.8 167.667 19.8 168.6 21.8C169.533 23.6667 170.133 26.8 170.4 31.2C170.533 32.9333 170.533 35.0667 170.4 37.6C170.267 40.1333 170 42.5333 169.6 44.8C169.333 47.0667 168.933 49 168.4 50.6C168 52.2 167.6 52.9333 167.2 52.8C166.933 52.8 166.733 52.4667 166.6 51.8C166.467 51 166.333 50.1333 166.2 49.2C166.2 48.2667 166.2 47.3333 166.2 46.4C166.2 45.3333 166.2 44.6 166.2 44.2C166.2 41.9333 166.2 39.8 166.2 37.8C166.2 35.6667 166.067 33.4667 165.8 31.2ZM239 28.6C238.867 26.2 238.6 23.9333 238.2 21.8C237.933 19.6667 237.467 17.4667 236.8 15.2C236.667 14.9333 236.533 14.6 236.4 14.2C236.4 13.8 236.533 13.6667 236.8 13.8C237.067 14.0667 237.267 14.2667 237.4 14.4C237.667 14.5333 237.933 14.6667 238.2 14.8L238.6 15.2C240.067 17.0667 241.2 18.8667 242 20.6C242.933 22.3333 243.467 25.2 243.6 29.2C243.6 30.6667 243.4 32.5333 243 34.8C242.733 37.0667 242.333 39.2667 241.8 41.4C241.4 43.4 240.867 45.1333 240.2 46.6C239.667 47.9333 239.133 48.4667 238.6 48.2C238.333 48.0667 238.2 47.6667 238.2 47C238.2 46.2 238.2 45.4 238.2 44.6C238.2 43.6667 238.267 42.8 238.4 42C238.533 41.2 238.6 40.6 238.6 40.2C238.867 38.0667 239 36.0667 239 34.2C239.133 32.3333 239.133 30.4667 239 28.6ZM246 147C246.8 149.267 247.667 151.333 248.6 153.2C249.667 155.067 250.733 156.933 251.8 158.8C251.933 158.933 252.067 159.2 252.2 159.6C252.333 159.867 252.267 160 252 160C251.6 160 251.267 159.933 251 159.8C250.867 159.667 250.667 159.533 250.4 159.4C250.133 159.267 249.933 159.133 249.8 159C247.933 157.533 246.4 156.133 245.2 154.8C244 153.467 242.8 151.067 241.6 147.6C241.2 146.267 240.8 144.6 240.4 142.6C240 140.6 239.733 138.667 239.6 136.8C239.467 134.933 239.467 133.333 239.6 132C239.733 130.667 240.067 130 240.6 130C240.733 130 240.933 130.333 241.2 131C241.467 131.533 241.667 132.2 241.8 133C242.067 133.667 242.267 134.4 242.4 135.2C242.667 135.867 242.867 136.333 243 136.6C243.667 138.467 244.2 140.267 244.6 142C245 143.733 245.467 145.4 246 147ZM331.658 17.8C331.391 17.4 330.991 16.8 330.458 16C330.058 15.0667 329.991 14.4667 330.258 14.2C330.524 13.9333 330.924 14 331.458 14.4C332.124 14.8 332.524 15.0667 332.658 15.2C335.058 16.9333 337.258 19.3333 339.258 22.4C341.391 25.4667 343.258 28.8667 344.858 32.6C346.591 36.2 348.124 40 349.458 44C350.791 48 351.858 51.8 352.658 55.4C354.658 64.2 356.324 72.8667 357.658 81.4C359.124 89.9333 359.858 98.7333 359.858 107.8C359.858 108.067 359.858 108.867 359.858 110.2C359.991 111.533 359.791 112.333 359.258 112.6C358.858 112.333 358.391 111.667 357.858 110.6C357.458 109.533 357.191 108.8 357.058 108.4C355.458 103.467 353.991 97.8667 352.658 91.6C351.458 85.2 350.324 79.4 349.258 74.2C348.458 70.2 347.724 66.4 347.058 62.8C346.391 59.0667 345.591 55.4667 344.658 52C343.858 48.5333 342.858 45.0667 341.658 41.6C340.591 38 339.258 34.2667 337.658 30.4C337.391 29.8667 336.924 28.9333 336.258 27.6C335.724 26.2667 335.124 24.9333 334.458 23.6C333.791 22.2667 333.191 21.0667 332.658 20C332.124 18.8 331.791 18.0667 331.658 17.8ZM379.658 166C378.191 165.2 377.191 164.667 376.658 164.4C376.124 164.267 375.124 163.733 373.658 162.8C370.458 160.933 367.524 158.533 364.858 155.6C362.191 152.533 359.791 149.2 357.658 145.6C355.524 142 353.591 138.2 351.858 134.2C350.258 130.067 348.858 126 347.658 122C344.991 123.733 341.791 124.8 338.058 125.2C334.458 125.467 331.124 125.6 328.058 125.6C324.191 125.6 320.324 125.467 316.458 125.2C312.724 124.933 308.924 124.8 305.058 124.8C301.324 131.733 297.791 138.467 294.458 145C291.258 151.4 288.724 157.4 286.858 163C286.858 163.133 286.791 163.4 286.658 163.8C286.524 164.333 286.324 164.6 286.058 164.6C285.658 164.6 285.458 164.133 285.458 163.2C285.458 162.267 285.458 161.667 285.458 161.4C285.458 156.067 286.724 150.133 289.258 143.6C291.924 136.933 294.858 130.4 298.058 124L295.058 123.8C294.258 125.667 293.124 128.267 291.658 131.6C290.324 134.933 288.991 138.4 287.658 142C286.458 145.6 285.324 149.067 284.258 152.4C283.324 155.733 282.858 158.4 282.858 160.4C282.858 160.8 282.658 161 282.258 161C281.724 161 281.324 160.6 281.058 159.8C280.791 158.867 280.524 157.867 280.258 156.8C280.124 155.733 279.991 154.667 279.858 153.6C279.858 152.4 279.858 151.6 279.858 151.2C279.858 146.533 280.458 141.667 281.658 136.6C282.858 131.4 284.458 126.667 286.458 122.4L283.858 122C282.658 124.933 281.524 127.867 280.458 130.8C279.391 133.6 278.458 136.533 277.658 139.6C277.658 139.867 277.591 140.2 277.458 140.6C277.324 141 277.124 141.133 276.858 141C276.591 140.467 276.391 139.867 276.258 139.2C276.258 138.4 276.258 137.733 276.258 137.2C276.258 131.6 277.258 126.2 279.258 121C279.924 119.667 280.591 119 281.258 119C284.058 118.2 286.858 117.733 289.658 117.6C292.591 117.467 295.591 117.4 298.658 117.4C305.324 117.4 311.924 117.933 318.458 119C324.991 119.933 331.524 120.4 338.058 120.4C341.258 120.4 344.191 120.133 346.858 119.6L346.458 116.4C344.991 116.8 343.391 117.067 341.658 117.2C340.058 117.333 338.524 117.4 337.058 117.4C331.858 117.4 326.458 116.867 320.858 115.8C315.391 114.733 310.124 113.467 305.058 112C304.791 111.733 304.258 111.533 303.458 111.4C302.658 111.133 302.258 110.8 302.258 110.4C302.258 110.133 302.658 109.933 303.458 109.8C304.258 109.533 304.791 109.4 305.058 109.4C306.924 109.267 308.724 109.2 310.458 109.2C312.324 109.067 314.191 109 316.058 109C319.124 109 322.191 109.067 325.258 109.2C328.324 109.2 331.458 109.2 334.658 109.2C336.258 109.2 337.924 109.2 339.658 109.2C341.391 109.2 343.058 109.133 344.658 109L344.258 106.8H341.658C335.258 106.8 328.858 106.2 322.458 105C316.191 103.8 309.858 103.2 303.458 103.2C297.991 103.2 293.124 103.867 288.858 105.2C284.724 106.533 281.124 108.067 278.058 109.8C275.124 111.533 272.724 113.267 270.858 115C268.991 116.733 267.658 118 266.858 118.8C266.591 118.933 266.458 119 266.458 119C266.324 119 266.258 118.867 266.258 118.6C266.258 118.467 266.324 118.333 266.458 118.2C268.858 113.533 271.791 109.667 275.258 106.6C278.724 103.4 282.991 101 288.058 99.4C293.124 88.6 298.324 77.8667 303.658 67.2C309.124 56.5333 314.858 46 320.858 35.6C320.991 35.3333 321.258 34.9333 321.658 34.4C322.058 33.7333 322.458 33.4 322.858 33.4C322.991 33.5333 323.058 33.6667 323.058 33.8V34.2C323.058 35.2667 322.991 36.0667 322.858 36.6C320.324 47.4 316.591 57.8 311.658 67.8C306.724 77.8 301.658 87.6667 296.458 97.4L300.258 97.2C300.658 96.4 301.658 94.6667 303.258 92C304.991 89.3333 306.791 86.6 308.658 83.8C310.658 80.8667 312.458 78.2667 314.058 76C315.658 73.6 316.658 72.4 317.058 72.4L317.258 73C317.258 73.6667 316.858 75.1333 316.058 77.4C315.258 79.6667 314.324 82.1333 313.258 84.8C312.191 87.4667 311.124 90 310.058 92.4C309.124 94.6667 308.458 96.2667 308.058 97.2C308.858 97.2 309.658 97.2667 310.458 97.4C311.258 97.4 312.058 97.4 312.858 97.4C315.258 92.6 317.791 87.6 320.458 82.4C323.258 77.0667 325.658 71.6667 327.658 66.2C329.658 60.7333 330.991 55.2 331.658 49.6C332.458 44 332.058 38.4667 330.458 33C330.458 33.6667 330.258 35 329.858 37C329.591 39 329.191 41.1333 328.658 43.4C328.124 45.5333 327.591 47.4667 327.058 49.2C326.524 50.8 325.991 51.6 325.458 51.6C325.058 51.6 324.858 51.3333 324.858 50.8C324.991 50.2667 325.058 49.9333 325.058 49.8C325.058 46.3333 325.258 42.9333 325.658 39.6C326.191 36.1333 326.458 32.6667 326.458 29.2C326.458 24.5333 325.724 20 324.258 15.6C324.258 15.4667 324.058 14.9333 323.658 14C323.258 12.9333 323.391 12.4 324.058 12.4C324.324 12.4 324.791 12.7333 325.458 13.4C326.791 14.7333 328.058 16.5333 329.258 18.8C330.591 21.0667 331.791 23.5333 332.858 26.2C333.924 28.7333 334.924 31.2667 335.858 33.8C336.791 36.3333 337.524 38.4667 338.058 40.2C339.791 45.9333 341.191 51.7333 342.258 57.6C343.458 63.3333 344.458 69.1333 345.258 75C346.191 80.7333 347.124 86.5333 348.058 92.4C348.991 98.2667 350.058 104.067 351.258 109.8C352.458 115.4 353.858 120.867 355.458 126.2C357.191 131.533 359.258 136.6 361.658 141.4C364.058 146.2 366.791 150.667 369.858 154.8C373.058 158.8 376.724 162.333 380.858 165.4C381.524 166.067 381.724 166.467 381.458 166.6C381.324 166.867 380.724 166.667 379.658 166ZM379.258 149C379.391 149.8 379.324 150.2 379.058 150.2C378.791 150.067 378.458 149.8 378.058 149.4C377.791 149 377.458 148.533 377.058 148C376.791 147.467 376.658 147.133 376.658 147C373.458 141.133 370.924 135.2 369.058 129.2C367.191 123.067 365.724 116.933 364.658 110.8C363.591 104.533 362.658 98.2667 361.858 92C361.191 85.6 360.324 79.1333 359.258 72.6C358.324 65.9333 357.058 59.2 355.458 52.4C353.858 45.6 351.591 38.6667 348.658 31.6C348.524 31.3333 348.324 30.8667 348.058 30.2C347.791 29.5333 347.791 29.1333 348.058 29C348.324 29 348.658 29.2 349.058 29.6L349.858 30.4C352.791 33.8667 355.391 38.4667 357.658 44.2C359.924 49.9333 361.924 56.0667 363.658 62.6C365.391 69.1333 366.791 75.6 367.858 82C369.058 88.4 369.991 94 370.658 98.8C371.724 106.4 372.858 114.4 374.058 122.8C375.258 131.2 376.791 139.133 378.658 146.6L379.258 149ZM319.858 98.2C323.724 98.6 327.524 99.0667 331.258 99.6C335.124 100.133 338.991 100.533 342.858 100.8C341.391 93.7333 340.124 86.7333 339.058 79.8C337.991 72.8667 336.991 65.8 336.058 58.6C334.324 65.5333 331.924 72.2667 328.858 78.8C325.924 85.3333 322.924 91.8 319.858 98.2ZM385.658 163.8C382.991 162.6 380.658 161.467 378.658 160.4C376.658 159.2 374.924 157.6 373.458 155.6C371.191 152.533 369.391 149.467 368.058 146.4C366.858 143.333 365.858 140.467 365.058 137.8C364.791 136.733 364.524 135.533 364.258 134.2C364.124 132.867 364.191 132.2 364.458 132.2C364.991 132.2 365.658 133.067 366.458 134.8C367.258 136.533 367.991 138 368.658 139.2C370.658 143.333 373.191 147.533 376.258 151.8C379.324 155.933 382.658 159.333 386.258 162C387.324 162.933 387.658 163.533 387.258 163.8C386.858 164.067 386.324 164.067 385.658 163.8ZM267.458 125.4C267.458 125.4 267.324 125.4 267.058 125.4H266.858C266.858 125 266.924 124.6 267.058 124.2C267.191 123.8 267.324 123.4 267.458 123C268.524 120.733 269.524 119.067 270.458 118C271.524 116.8 273.191 115.533 275.458 114.2C276.791 113.4 278.658 112.6 281.058 111.8C283.458 111 285.391 110.6 286.858 110.6C287.124 110.6 287.458 110.667 287.858 110.8C288.391 110.8 288.658 111 288.658 111.4C288.658 111.8 287.924 112.333 286.458 113C285.124 113.667 284.258 114.133 283.858 114.4C278.791 117.467 275.058 119.8 272.658 121.4C270.258 123 268.524 124.333 267.458 125.4ZM438.481 122.4C442.748 126.267 446.748 130.4 450.481 134.8C454.215 139.067 457.815 143.533 461.281 148.2C461.415 148.467 461.748 149 462.281 149.8C462.948 150.467 463.148 150.933 462.881 151.2C462.748 151.333 462.215 151.267 461.281 151C460.481 150.6 459.948 150.267 459.681 150C458.615 149.333 457.348 148.467 455.881 147.4C454.548 146.333 453.081 145.2 451.481 144C450.015 142.8 448.548 141.6 447.081 140.4C445.615 139.067 444.415 137.867 443.481 136.8C442.815 136.267 441.215 134.933 438.681 132.8C436.148 130.533 433.281 128.133 430.081 125.6C426.881 123.067 423.615 120.733 420.281 118.6C416.948 116.467 414.215 115.133 412.081 114.6C411.681 114.467 411.081 114.267 410.281 114C409.615 113.733 409.348 113.267 409.481 112.6C410.548 107.533 411.881 102.6 413.481 97.8C415.081 93 416.615 88.0667 418.081 83C419.948 76.7333 421.681 70.3333 423.281 63.8C425.015 57.2667 426.015 50.2 426.281 42.6C426.281 41.9333 426.348 41.6 426.481 41.6C426.881 41.6 427.215 42.0667 427.481 43C429.081 46.6 429.748 51.2667 429.481 57C429.215 62.7333 428.481 68.7333 427.281 75C426.215 81.1333 424.815 87.0667 423.081 92.8C421.481 98.4 420.081 102.867 418.881 106.2L418.281 107.8C423.215 104.467 428.348 101.133 433.681 97.8C439.015 94.4667 443.948 91.1333 448.481 87.8C453.148 84.3333 457.148 80.8 460.481 77.2C463.948 73.4667 466.281 69.6 467.481 65.6C468.281 62.9333 468.148 60.2667 467.081 57.6C466.148 54.9333 464.415 52.4667 461.881 50.2C459.481 47.8 456.415 45.7333 452.681 44C448.948 42.2667 444.815 41.0667 440.281 40.4C434.281 39.6 428.215 39.4 422.081 39.8C422.615 43.8 422.681 47.8667 422.281 52C422.015 56 421.548 59.4667 420.881 62.4C419.148 69.6 416.948 77.0667 414.281 84.8C411.615 92.4 408.881 99.5333 406.081 106.2C405.815 106.6 405.415 107.267 404.881 108.2C404.348 109.133 403.881 109.533 403.481 109.4C403.215 109.267 403.148 108.667 403.281 107.6C403.415 106.533 403.481 105.8 403.481 105.4C403.615 103.8 403.881 101.867 404.281 99.6C404.815 97.2 405.281 94.7333 405.681 92.2C406.215 89.6667 406.748 87.2667 407.281 85C407.948 82.6 408.548 80.5333 409.081 78.8C409.348 78 409.748 76.3333 410.281 73.8C410.948 71.1333 411.615 68 412.281 64.4C412.948 60.8 413.615 56.9333 414.281 52.8C414.948 48.6667 415.481 44.6667 415.881 40.8L413.081 41.2C412.681 46.2667 411.881 51.4 410.681 56.6C409.481 61.8 408.081 67.0667 406.481 72.4C405.015 77.6 403.415 82.9333 401.681 88.4C400.081 93.7333 398.681 99 397.481 104.2C396.415 108.867 395.548 113.733 394.881 118.8C394.348 123.867 394.148 128.867 394.281 133.8C394.548 138.733 395.148 143.533 396.081 148.2C397.148 152.733 398.815 156.867 401.081 160.6C401.348 161.267 401.348 161.6 401.081 161.6C400.815 161.6 400.481 161.4 400.081 161C396.748 157.133 394.215 152.8 392.481 148C390.748 143.2 389.615 138.2 389.081 133C388.681 127.667 388.748 122.2 389.281 116.6C389.948 111 390.881 105.533 392.081 100.2C394.348 90.2 397.081 80.3333 400.281 70.6C403.481 60.8667 406.148 51.4667 408.281 42.4C404.948 43.2 401.681 44.2 398.481 45.4C395.281 46.4667 392.281 47.6667 389.481 49C388.815 49.2667 388.415 49.3333 388.281 49.2C388.148 49.0667 388.215 48.8667 388.481 48.6C388.748 48.2 389.015 47.9333 389.281 47.8C395.948 42.3333 404.081 38.4667 413.681 36.2C423.281 33.9333 433.081 33.3333 443.081 34.4C448.281 35.0667 453.015 36.5333 457.281 38.8C461.681 41.0667 465.281 43.8667 468.081 47.2C470.881 50.4 472.681 54 473.481 58C474.415 62 474.015 66 472.281 70C470.281 74.6667 467.081 79 462.681 83C458.415 87 453.548 90.7333 448.081 94.2C442.748 97.6667 437.081 100.867 431.081 103.8C425.081 106.733 419.481 109.467 414.281 112C416.415 112 418.615 112.333 420.881 113C423.148 113.667 425.348 114.533 427.481 115.6C429.748 116.533 431.815 117.6 433.681 118.8C435.681 120 437.281 121.2 438.481 122.4ZM493.881 72.4C491.881 79.3333 488.815 85.2667 484.681 90.2C480.681 95 476.215 99 471.281 102.2C466.348 105.4 461.348 107.867 456.281 109.6C451.215 111.2 446.815 112.267 443.081 112.8C442.015 113.067 441.015 113.2 440.081 113.2C439.281 113.067 438.948 112.867 439.081 112.6C438.815 112.333 439.081 112.067 439.881 111.8C440.815 111.533 441.748 111.2 442.681 110.8C449.881 108.133 456.815 104.667 463.481 100.4C470.148 96.1333 476.015 90.4667 481.081 83.4C483.481 80.0667 485.281 76.2 486.481 71.8C487.681 67.4 488.081 62.9333 487.681 58.4C487.415 53.8667 486.281 49.4667 484.281 45.2C482.415 40.9333 479.615 37.2667 475.881 34.2C471.481 30.4667 466.681 27.5333 461.481 25.4C456.281 23.2667 450.948 21.8 445.481 21C440.015 20.2 434.481 20.0667 428.881 20.6C423.281 21 417.881 21.8667 412.681 23.2C411.748 23.4667 411.215 23.6667 411.081 23.8C410.948 23.8 410.815 23.6667 410.681 23.4C410.681 23.2667 411.215 22.8 412.281 22C414.415 20.6667 417.215 19.4667 420.681 18.4C424.281 17.2 428.281 16.4 432.681 16C437.215 15.6 442.081 15.6667 447.281 16.2C452.481 16.6 457.815 17.8 463.281 19.8C468.881 21.6667 474.148 24.6 479.081 28.6C484.015 32.4667 487.948 37.2667 490.881 43C493.681 48.6 495.081 54.0667 495.081 59.4C495.215 64.6 494.815 68.9333 493.881 72.4ZM392.281 39.8C394.948 35.9333 398.481 32.8 402.881 30.4C407.281 27.8667 412.081 26 417.281 24.8C422.481 23.6 427.881 23.0667 433.481 23.2C439.215 23.3333 444.748 24 450.081 25.2C455.415 26.4 460.348 28.2 464.881 30.6C469.548 33 473.415 35.9333 476.481 39.4C478.615 41.9333 480.215 44.6667 481.281 47.6C482.481 50.4 483.081 53.3333 483.081 56.4C483.215 59.3333 482.881 62.2 482.081 65C481.415 67.8 480.415 70.4 479.081 72.8C478.815 73.3333 478.148 74.2667 477.081 75.6C476.015 76.8 475.348 77.2667 475.081 77C474.815 76.8667 475.015 76.1333 475.681 74.8C476.348 73.4667 476.815 72.4667 477.081 71.8C478.148 68.3333 478.548 64.9333 478.281 61.6C478.148 58.1333 477.481 54.9333 476.281 52C475.215 49.0667 473.748 46.4667 471.881 44.2C470.015 41.8 468.015 39.8667 465.881 38.4C460.815 35.0667 455.081 32.7333 448.681 31.4C442.281 29.9333 435.748 29.4 429.081 29.8C422.548 30.0667 416.148 31.2 409.881 33.2C403.615 35.0667 398.215 37.6 393.681 40.8C392.481 41.8667 391.681 42.2 391.281 41.8C391.015 41.6667 391.015 41.4 391.281 41C391.681 40.4667 392.015 40.0667 392.281 39.8ZM498.881 165.8C499.681 165.667 500.081 165.733 500.081 166C500.081 166.267 499.748 166.533 499.081 166.8C494.281 168.533 489.615 169.467 485.081 169.6C480.548 169.733 476.215 169.267 472.081 168.2C467.948 167.267 464.081 165.867 460.481 164C456.881 162.267 453.615 160.333 450.681 158.2C447.215 155.667 443.881 152.867 440.681 149.8C437.615 146.6 434.615 143.467 431.681 140.4C428.748 137.2 425.815 134.133 422.881 131.2C419.948 128.267 416.948 125.667 413.881 123.4C411.615 130.867 409.548 137.467 407.681 143.2C407.415 143.867 407.148 144.467 406.881 145C406.615 145.533 406.348 145.733 406.081 145.6C405.815 145.467 405.681 145.133 405.681 144.6C405.681 143.933 405.681 143.267 405.681 142.6C405.948 138.867 406.215 135.067 406.481 131.2C406.748 127.333 407.348 123.467 408.281 119.6C407.348 119.067 406.415 118.6 405.481 118.2C404.681 117.8 403.748 117.333 402.681 116.8C402.281 116.4 402.081 116.133 402.081 116C402.081 115.867 402.215 115.8 402.481 115.8C402.881 115.8 403.215 115.8 403.481 115.8C408.815 116.2 413.681 117.867 418.081 120.8C422.481 123.6 426.748 126.933 430.881 130.8C435.015 134.667 439.081 138.8 443.081 143.2C447.081 147.467 451.348 151.267 455.881 154.6C458.415 156.467 461.281 158.2 464.481 159.8C467.815 161.267 471.348 162.533 475.081 163.6C478.815 164.667 482.681 165.4 486.681 165.8C490.815 166.333 494.881 166.333 498.881 165.8ZM467.881 136.6C471.615 139.933 475.148 143.667 478.481 147.8C481.948 151.933 485.281 155.267 488.481 157.8C489.415 158.733 489.815 159.4 489.681 159.8C489.415 160.067 489.081 160.133 488.681 160C488.281 159.867 487.815 159.733 487.281 159.6C483.681 158.4 480.281 156.733 477.081 154.6C474.015 152.467 471.015 150.067 468.081 147.4C465.148 144.733 462.281 141.933 459.481 139C456.815 136.067 454.081 133.2 451.281 130.4C449.415 128.533 447.348 126.467 445.081 124.2C442.948 121.933 440.681 119.867 438.281 118C435.881 116 433.348 114.4 430.681 113.2C428.148 111.867 425.481 111.2 422.681 111.2L430.481 107.8C432.481 106.867 434.948 105.733 437.881 104.4C440.815 103.067 443.615 101.8 446.281 100.6C448.948 99.4 451.281 98.4667 453.281 97.8C455.281 97 456.348 96.6667 456.481 96.8C456.615 97.0667 456.348 97.5333 455.681 98.2C455.148 98.8667 454.348 99.6 453.281 100.4C452.348 101.2 451.415 101.933 450.481 102.6C449.548 103.267 448.881 103.667 448.481 103.8C445.948 105.267 443.548 106.667 441.281 108C439.148 109.2 436.948 110.333 434.681 111.4C437.748 112.6 440.881 114.333 444.081 116.6C447.281 118.733 450.348 121.067 453.281 123.6C456.215 126.133 458.948 128.6 461.481 131C464.015 133.267 466.148 135.133 467.881 136.6ZM403.081 149C403.481 151.267 404.015 153.467 404.681 155.6C405.348 157.733 406.148 159.533 407.081 161C407.215 161 407.281 161.067 407.281 161.2C407.415 161.467 407.348 161.6 407.081 161.6C406.815 161.6 406.481 161.467 406.081 161.2C405.815 161.067 405.548 161 405.281 161C403.548 159.933 402.148 158.667 401.081 157.2C400.148 155.6 399.348 152.867 398.681 149C398.415 147.533 398.281 145.667 398.281 143.4C398.281 141.133 398.348 139 398.481 137C398.615 134.867 398.815 133.067 399.081 131.6C399.348 130.133 399.748 129.4 400.281 129.4C400.415 129.4 400.548 129.733 400.681 130.4C400.948 131.067 401.148 131.867 401.281 132.8C401.415 133.6 401.481 134.4 401.481 135.2C401.615 136 401.681 136.533 401.681 136.8C401.948 139.067 402.148 141.2 402.281 143.2C402.415 145.2 402.681 147.133 403.081 149ZM490.681 161.6C492.815 161.733 494.415 161.733 495.481 161.6C496.681 161.6 498.215 161.467 500.081 161.2C500.215 161.2 500.548 161.133 501.081 161C501.615 161 501.948 161.067 502.081 161.2C502.215 161.467 502.015 161.8 501.481 162.2C501.081 162.6 500.748 162.867 500.481 163C498.348 163.667 496.348 164.133 494.481 164.4C492.748 164.667 490.148 164.6 486.681 164.2C485.481 164.067 484.148 163.8 482.681 163.4C481.215 163 479.881 162.533 478.681 162C477.481 161.6 476.548 161.2 475.881 160.8C475.215 160.267 475.081 159.867 475.481 159.6C475.748 159.467 476.548 159.6 477.881 160C479.348 160.267 480.348 160.467 480.881 160.6C482.748 161 484.481 161.267 486.081 161.4C487.681 161.533 489.215 161.6 490.681 161.6ZM557.414 59.4C555.547 66.6 553.214 74.0667 550.414 81.8C547.747 89.5333 544.947 96.8667 542.014 103.8C541.881 104.067 541.547 104.733 541.014 105.8C540.481 106.733 540.081 107.133 539.814 107C539.414 107 539.214 106.467 539.214 105.4C539.347 104.2 539.481 103.4 539.614 103C539.747 101.4 540.014 99.4 540.414 97C540.814 94.6 541.214 92.1333 541.614 89.6C542.147 87.0667 542.681 84.6 543.214 82.2C543.881 79.8 544.481 77.7333 545.014 76C545.281 75.4667 545.681 74.1333 546.214 72C546.747 69.8667 547.281 67.3333 547.814 64.4C548.481 61.3333 549.147 58 549.814 54.4C550.481 50.8 551.081 47.2667 551.614 43.8L549.214 43.2C548.547 47.8667 547.547 52.6667 546.214 57.6C545.014 62.4 543.614 67.2667 542.014 72.2C540.547 77 539.081 81.9333 537.614 87C536.147 91.9333 534.814 96.8667 533.614 101.8C532.547 106.467 531.747 111.333 531.214 116.4C530.681 121.467 530.481 126.6 530.614 131.8C530.747 136.867 531.347 141.867 532.414 146.8C533.481 151.6 535.081 156.067 537.214 160.2C537.614 161.133 537.747 161.6 537.614 161.6C537.347 161.6 537.147 161.533 537.014 161.4L536.614 161C532.881 156.6 530.081 151.867 528.214 146.8C526.481 141.6 525.347 136.267 524.814 130.8C524.414 125.333 524.547 119.8 525.214 114.2C525.881 108.6 526.814 103.133 528.014 97.8C530.281 87.9333 532.947 78.4667 536.014 69.4C539.081 60.2 541.681 51.2 543.814 42.4C535.814 41.0667 528.281 39.8667 521.214 38.8C514.281 37.6 507.814 37.6 501.814 38.8C501.414 38.8 501.214 38.7333 501.214 38.6C501.214 38.3333 501.281 38.2 501.414 38.2C501.681 38.0667 501.881 37.9333 502.014 37.8C506.547 35.1333 511.347 33.6667 516.414 33.4C521.614 33.1333 526.947 33.4 532.414 34.2C538.014 34.8667 543.681 35.8 549.414 37C555.281 38.0667 561.147 38.6667 567.014 38.8C570.614 38.9333 574.347 38.6667 578.214 38C582.214 37.2 586.014 36.0667 589.614 34.6C593.347 33 596.681 30.9333 599.614 28.4C602.681 25.8667 605.147 22.8667 607.014 19.4C607.281 18.7333 607.547 18.4 607.814 18.4V19V19.4C606.347 24.4667 604.081 28.6667 601.014 32C597.947 35.2 594.414 37.8 590.414 39.8C586.547 41.8 582.347 43.2 577.814 44C573.414 44.6667 569.081 44.9333 564.814 44.8C565.481 48.9333 565.481 53.7333 564.814 59.2C564.281 64.6667 563.414 70.2 562.214 75.8C561.014 81.4 559.747 86.7333 558.414 91.8C557.081 96.7333 556.014 100.733 555.214 103.8C553.614 110.2 551.747 116.733 549.614 123.4C547.481 130.067 545.547 135.933 543.814 141C543.547 141.667 543.214 142.267 542.814 142.8C542.547 143.333 542.281 143.533 542.014 143.4C541.747 143.267 541.614 142.933 541.614 142.4C541.747 141.733 541.814 141.067 541.814 140.4C542.214 130.4 543.681 120.4 546.214 110.4C548.747 100.4 551.481 90.3333 554.414 80.2C556.014 74.6 557.547 68.9333 559.014 63.2C560.614 57.4667 561.747 51.3333 562.414 44.8C561.747 44.6667 561.147 44.6 560.614 44.6C560.214 44.6 559.681 44.6 559.014 44.6C559.014 47.2667 558.881 49.8667 558.614 52.4C558.481 54.9333 558.081 57.2667 557.414 59.4ZM562.814 16.8C568.014 17.4667 573.281 18 578.614 18.4C583.947 18.8 588.547 19 592.414 19C593.747 19 594.414 19.2 594.414 19.6C594.414 20.1333 593.747 20.6 592.414 21C585.614 23.6667 578.414 24.8667 570.814 24.6C563.347 24.3333 555.747 23.6 548.014 22.4C543.347 21.7333 538.547 21.0667 533.614 20.4C528.681 19.7333 523.347 19.7333 517.614 20.4C517.081 20.5333 516.814 20.4667 516.814 20.2C516.814 19.9333 516.947 19.7333 517.214 19.6C517.481 19.4667 517.747 19.2667 518.014 19C520.547 17.1333 523.814 15.9333 527.814 15.4C531.814 14.7333 535.947 14.4667 540.214 14.6C544.614 14.6 548.814 14.8667 552.814 15.4C556.814 15.9333 560.147 16.4 562.814 16.8ZM532.814 23C538.414 23.8 544.081 24.8 549.814 26C555.681 27.2 561.347 28.5333 566.814 30C567.081 30.2667 567.614 30.5333 568.414 30.8C569.347 30.9333 569.814 31.2 569.814 31.6C569.814 31.8667 569.414 32.0667 568.614 32.2C567.814 32.3333 567.214 32.5333 566.814 32.8C565.614 33.0667 564.081 33.2 562.214 33.2C560.481 33.2 558.614 33.2 556.614 33.2C554.747 33.0667 552.881 32.9333 551.014 32.8C549.147 32.6667 547.547 32.4667 546.214 32.2C545.281 32.0667 542.947 31.8 539.214 31.4C535.614 31 531.614 30.7333 527.214 30.6C522.814 30.4667 518.547 30.5333 514.414 30.8C510.414 30.9333 507.547 31.4667 505.814 32.4C505.281 32.6667 504.947 32.8 504.814 32.8H504.614C504.614 32.2667 504.881 31.7333 505.414 31.2C506.747 29.4667 508.547 28 510.814 26.8C513.214 25.6 515.681 24.6667 518.214 24C520.747 23.3333 523.281 22.9333 525.814 22.8C528.481 22.6667 530.814 22.7333 532.814 23ZM539.414 146.8C539.814 149.067 540.281 151.333 540.814 153.6C541.481 155.867 542.281 158.067 543.214 160.2C543.747 161.267 543.814 161.8 543.414 161.8C543.147 161.8 542.747 161.667 542.214 161.4C541.947 161.267 541.747 161.067 541.614 160.8C539.881 158.8 538.481 156.933 537.414 155.2C536.481 153.467 535.681 150.667 535.014 146.8C534.747 145.333 534.547 143.467 534.414 141.2C534.414 138.933 534.481 136.733 534.614 134.6C534.747 132.467 534.947 130.667 535.214 129.2C535.481 127.733 535.881 127 536.414 127C536.547 127 536.681 127.333 536.814 128C537.081 128.667 537.281 129.467 537.414 130.4C537.547 131.2 537.681 132.067 537.814 133C537.947 133.8 538.014 134.333 538.014 134.6C538.281 136.867 538.481 139 538.614 141C538.881 143 539.147 144.933 539.414 146.8ZM597.414 21.6C600.347 19.0667 602.814 16.3333 604.814 13.4C605.081 12.8667 605.347 12.6 605.614 12.6C605.747 12.6 605.814 13.0667 605.814 14C605.814 14.5333 605.747 15 605.614 15.4C605.081 17.6667 604.481 19.4667 603.814 20.8C603.147 22.1333 601.547 23.7333 599.014 25.6C598.081 26.4 596.814 27.2 595.214 28C593.614 28.6667 592.081 29.2667 590.614 29.8C589.147 30.3333 587.814 30.6667 586.614 30.8C585.547 30.8 584.947 30.5333 584.814 30C584.814 29.8667 585.014 29.6667 585.414 29.4C585.814 29 586.281 28.6 586.814 28.2C587.481 27.8 588.081 27.4667 588.614 27.2C589.147 26.8 589.547 26.5333 589.814 26.4C591.147 25.7333 592.414 25 593.614 24.2C594.947 23.4 596.214 22.5333 597.414 21.6Z" fill="#F0D752"/>
<path d="M169.4 16.4C168.867 15.2 168.733 14.6 169 14.6C169.4 14.6 169.867 14.9333 170.4 15.6C170.933 16.1333 171.267 16.4667 171.4 16.6C172.733 18.6 174.2 20.8 175.8 23.2C177.4 25.4667 178.933 28.2 180.4 31.4C181.867 34.6 183.2 38.3333 184.4 42.6C185.6 46.7333 186.533 51.6667 187.2 57.4C188 63.9333 188.133 70.4 187.6 76.8C187.2 83.0667 186.467 89.4 185.4 95.8C185.267 96.0667 185.133 96.7333 185 97.8C184.867 98.8667 184.6 99.4 184.2 99.4C183.933 99.4 183.667 98.9333 183.4 98C183.133 96.9333 183 96.2 183 95.8C182.733 94.3333 182.467 92.6 182.2 90.6C181.933 88.6 181.667 86.5333 181.4 84.4C181.267 82.1333 181.133 80 181 78C181 75.8667 181 74 181 72.4C181 71.8667 180.933 70.7333 180.8 69C180.8 67.1333 180.733 65 180.6 62.6C180.467 60.2 180.2 57.6 179.8 54.8C179.533 51.8667 179.2 49 178.8 46.2C179.067 50.3333 179.067 54.4667 178.8 58.6C178.533 62.7333 178.2 66.9333 177.8 71.2C177.4 75.3333 177.067 79.5333 176.8 83.8C176.533 87.9333 176.533 92.1333 176.8 96.4C177.2 104.667 178.867 113.067 181.8 121.6C184.733 130.133 189.4 137.4 195.8 143.4C196.6 144.2 196.933 144.6 196.8 144.6C196.533 144.733 196.067 144.6 195.4 144.2C190.733 141.533 186.867 138.333 183.8 134.6C180.733 130.867 178.2 126.8 176.2 122.4C174.333 118 172.933 113.467 172 108.8C171.067 104 170.533 99.2 170.4 94.4C170.4 94 170.333 93.6667 170.2 93.4C170.2 93 170.2 92.6 170.2 92.2C167.533 99.8 164.533 107.133 161.2 114.2C158 121.267 154.8 128.067 151.6 134.6C148.533 141.133 145.6 147.333 142.8 153.2C140.133 158.933 138 164.267 136.4 169.2C136.133 169.867 135.933 170.2 135.8 170.2C135.533 170.2 135.4 170 135.4 169.6C135.4 169.2 135.4 168.933 135.4 168.8C135.533 162.533 136.8 156 139.2 149.2C141.6 142.267 144.4 135.133 147.6 127.8C150.933 120.333 154.4 112.733 158 105C161.6 97.1333 164.733 89.1333 167.4 81C169 75.8 170.333 70.4 171.4 64.8C172.6 59.2 173.333 53.6 173.6 48C173.867 42.4 173.667 36.9333 173 31.6C172.333 26.1333 171.133 21.0667 169.4 16.4ZM194.2 131.6C195.667 134.667 197.6 137.533 200 140.2C200.933 134.6 202.733 129.067 205.4 123.6C208.067 118 211.067 112.4 214.4 106.8C217.867 101.2 221.467 95.6 225.2 90C228.933 84.4 232.4 78.7333 235.6 73C238 68.8667 240 64.4 241.6 59.6C243.333 54.8 244.533 49.9333 245.2 45C246 39.9333 246.2 34.9333 245.8 30C245.533 25.0667 244.533 20.4 242.8 16C242.4 15.3333 242.333 14.8667 242.6 14.6C242.867 14.3333 243.267 14.5333 243.8 15.2C244.467 15.7333 244.867 16.1333 245 16.4C246.6 18.6667 247.867 21.6667 248.8 25.4C249.867 29 250.6 33.0667 251 37.6C251.533 42 251.8 46.6667 251.8 51.6C251.8 56.5333 251.6 61.4667 251.2 66.4C250.667 72.9333 249.667 80.0667 248.2 87.8C246.867 95.5333 245.2 102.6 243.2 109C243.067 109.267 242.8 109.867 242.4 110.8C242.133 111.733 241.8 112.2 241.4 112.2C241.133 112.067 240.933 111.533 240.8 110.6C240.667 109.533 240.6 108.867 240.6 108.6C240.6 107.133 240.6 105.4 240.6 103.4C240.733 101.267 240.867 99.1333 241 97C241.133 94.7333 241.267 92.6 241.4 90.6C241.667 88.4667 241.933 86.6667 242.2 85.2C242.333 84.4 242.533 82.6 242.8 79.8C243.2 76.8667 243.533 73.6 243.8 70C242.2 73.7333 240.933 77.0667 240 80C239.067 82.9333 238.267 85.8 237.6 88.6C236.933 91.4 236.333 94.3333 235.8 97.4C235.4 100.467 235 104.067 234.6 108.2C234.2 112.333 234 116.667 234 121.2C234.133 125.733 234.6 130.2 235.4 134.6C236.333 139 237.6 143.333 239.2 147.6C240.933 151.733 243.133 155.533 245.8 159C246.333 159.8 246.467 160.267 246.2 160.4C245.933 160.533 245.6 160.4 245.2 160C240.933 156.533 237.533 152.667 235 148.4C232.6 144 230.8 139.4 229.6 134.6C228.4 129.8 227.733 124.933 227.6 120C227.6 114.933 227.867 110 228.4 105.2C228.667 103.467 228.867 101.733 229 100C229.267 98.2667 229.533 96.4667 229.8 94.6C226.733 99.5333 223.667 104.333 220.6 109C217.533 113.667 214.667 118.333 212 123C209.333 127.533 206.933 132.067 204.8 136.6C202.8 141 201.267 145.4 200.2 149.8C199.933 150.467 199.8 150.8 199.8 150.8C199.533 150.8 199.4 150.533 199.4 150C199.4 149.467 199.4 149.133 199.4 149C199.4 147.933 199.4 146.867 199.4 145.8C199.4 144.733 199.533 143.667 199.8 142.6C198.733 142.067 197.8 141.6 197 141.2C196.2 140.667 195.4 140.067 194.6 139.4C193.933 138.733 193.2 137.933 192.4 137C191.733 136.067 191 134.867 190.2 133.4C189.533 132.067 188.867 130.467 188.2 128.6C187.533 126.733 186.933 124.933 186.4 123.2C186 121.333 185.733 119.8 185.6 118.6C185.6 117.267 185.8 116.6 186.2 116.6C186.467 116.6 186.733 116.867 187 117.4C187.4 117.8 187.8 118.333 188.2 119C188.6 119.667 188.933 120.333 189.2 121C189.467 121.667 189.667 122.133 189.8 122.4C190.467 124 191.133 125.6 191.8 127.2C192.6 128.667 193.4 130.133 194.2 131.6ZM198.4 94.6C201.333 88.8667 204.333 83.3333 207.4 78C210.6 72.5333 213.133 68.2 215 65C218.2 59.2667 221.533 53.6667 225 48.2C228.467 42.6 231.467 37.6667 234 33.4C234.267 32.7333 234.533 32.1333 234.8 31.6C235.2 31.0667 235.533 30.9333 235.8 31.2C236.067 31.2 236.133 31.5333 236 32.2C235.867 32.8667 235.733 33.5333 235.6 34.2C233.733 43.8 230.333 52.8667 225.4 61.4C220.6 69.9333 215.533 78.5333 210.2 87.2C208.333 90.1333 206.667 92.6 205.2 94.6C203.867 96.4667 202.667 98.3333 201.6 100.2C200.667 101.933 199.867 103.867 199.2 106C198.533 108.133 198.067 110.867 197.8 114.2C198.333 112.733 198.933 111.333 199.6 110C200.267 108.667 200.933 107.4 201.6 106.2C205.333 99.8 209.533 93.4 214.2 87C218.867 80.6 223.467 74.6 228 69C228.267 68.7333 228.733 68.2 229.4 67.4C230.2 66.4667 230.733 66.0667 231 66.2C231.267 66.3333 231.2 66.9333 230.8 68C230.533 69.0667 230.333 69.8667 230.2 70.4C229.533 71.8667 228.667 73.6667 227.6 75.8C226.667 77.9333 225.6 80.1333 224.4 82.4C223.333 84.5333 222.2 86.6667 221 88.8C219.8 90.8 218.733 92.4667 217.8 93.8C217.267 94.6 216.133 96.2 214.4 98.6C212.667 101 210.8 104 208.8 107.6C206.8 111.2 204.8 115.267 202.8 119.8C200.933 124.333 199.533 129.133 198.6 134.2C198.2 133.4 197.667 132.4 197 131.2C196.467 130 195.8 128.067 195 125.4C192.6 117 191.267 108.533 191 100C190.867 91.3333 190.867 82.4667 191 73.4C191.133 67.6667 191.133 61.9333 191 56.2C191 50.4667 190.067 44.4 188.2 38C188.067 37.4667 188.067 37.0667 188.2 36.8C188.467 36.8 188.867 37.2 189.4 38C191.8 40.5333 193.6 44.2667 194.8 49.2C196 54 196.867 59.1333 197.4 64.6C197.933 69.9333 198.2 75.2 198.2 80.4C198.333 85.4667 198.4 89.5333 198.4 92.6V94.6ZM145.8 77.2C148.067 70.2667 150.6 63.2667 153.4 56.2C156.333 49.1333 158.867 42.8 161 37.2C161.267 36.5333 161.533 35.8667 161.8 35.2C162.2 34.5333 162.533 34.2667 162.8 34.4C163.067 34.4 163.133 34.8667 163 35.8C163 36.6 163 37.3333 163 38C161.8 48.9333 159.4 59.8 155.8 70.6C152.2 81.4 148.2 92.0667 143.8 102.6C141.133 109.267 138.267 116 135.2 122.8C132.133 129.467 129.6 136.733 127.6 144.6C127.333 145.267 127.2 145.667 127.2 145.8C127.333 145.933 127.333 146 127.2 146C126.8 145.733 126.6 145.133 126.6 144.2C125.933 140.2 126.333 135.2 127.8 129.2C129.267 123.067 131.133 116.8 133.4 110.4C135.667 103.867 138 97.6667 140.4 91.8C142.8 85.8 144.6 80.9333 145.8 77.2ZM137.2 124.8C140.533 117.2 144.133 109.4 148 101.4C151.867 93.2667 155.6 85.5333 159.2 78.2C159.333 77.8 159.667 77.0667 160.2 76C160.867 74.9333 161.467 74.4667 162 74.6C162.267 74.6 162.333 75.2 162.2 76.4C162.067 77.6 161.867 78.4667 161.6 79C161.2 80.8667 160.667 83.1333 160 85.8C159.333 88.3333 158.533 91 157.6 93.8C156.8 96.4667 155.933 99.1333 155 101.8C154.067 104.333 153.2 106.467 152.4 108.2C152 109 151.267 110.733 150.2 113.4C149.267 115.933 148.067 119 146.6 122.6C145.267 126.2 143.8 130.067 142.2 134.2C140.733 138.2 139.333 142.067 138 145.8C136.667 149.4 135.467 152.667 134.4 155.6C133.467 158.4 132.933 160.4 132.8 161.6C132.533 162.933 132.267 163.6 132 163.6C131.733 163.6 131.533 163.333 131.4 162.8C131.4 162.267 131.333 161.867 131.2 161.6C130.533 160 130.2 157.667 130.2 154.6C130.333 151.533 130.733 148.267 131.4 144.8C132.067 141.333 132.867 137.8 133.8 134.2C134.867 130.6 136 127.467 137.2 124.8ZM256.4 107.6C255.733 113.6 254.667 119.6 253.2 125.6C251.867 131.6 250.667 136.933 249.6 141.6C249.067 143.333 248.667 144.133 248.4 144C248.133 144 247.933 143.733 247.8 143.2C247.8 142.533 247.733 141.867 247.6 141.2C246.533 132.267 246.667 123.333 248 114.4C249.333 105.467 250.8 96.3333 252.4 87C253.467 81.4 254.333 75.6667 255 69.8C255.667 63.8 255.667 57.4 255 50.6C255 50.0667 255.133 49.6667 255.4 49.4C255.667 49.4 255.8 49.6 255.8 50C255.933 50.2667 256.133 50.4667 256.4 50.6C258.4 53.5333 259.533 57.6 259.8 62.8C260.2 67.8667 260.2 73.2 259.8 78.8C259.4 84.4 258.8 89.8 258 95C257.333 100.2 256.8 104.4 256.4 107.6ZM165.8 31.2C165.533 28.4 165.133 25.8 164.6 23.4C164.2 21 163.667 18.5333 163 16C162.867 15.7333 162.8 15.4 162.8 15C162.8 14.6 162.867 14.4 163 14.4C163.4 14.4 163.8 14.6 164.2 15L165 15.8C166.467 17.8 167.667 19.8 168.6 21.8C169.533 23.6667 170.133 26.8 170.4 31.2C170.533 32.9333 170.533 35.0667 170.4 37.6C170.267 40.1333 170 42.5333 169.6 44.8C169.333 47.0667 168.933 49 168.4 50.6C168 52.2 167.6 52.9333 167.2 52.8C166.933 52.8 166.733 52.4667 166.6 51.8C166.467 51 166.333 50.1333 166.2 49.2C166.2 48.2667 166.2 47.3333 166.2 46.4C166.2 45.3333 166.2 44.6 166.2 44.2C166.2 41.9333 166.2 39.8 166.2 37.8C166.2 35.6667 166.067 33.4667 165.8 31.2ZM239 28.6C238.867 26.2 238.6 23.9333 238.2 21.8C237.933 19.6667 237.467 17.4667 236.8 15.2C236.667 14.9333 236.533 14.6 236.4 14.2C236.4 13.8 236.533 13.6667 236.8 13.8C237.067 14.0667 237.267 14.2667 237.4 14.4C237.667 14.5333 237.933 14.6667 238.2 14.8L238.6 15.2C240.067 17.0667 241.2 18.8667 242 20.6C242.933 22.3333 243.467 25.2 243.6 29.2C243.6 30.6667 243.4 32.5333 243 34.8C242.733 37.0667 242.333 39.2667 241.8 41.4C241.4 43.4 240.867 45.1333 240.2 46.6C239.667 47.9333 239.133 48.4667 238.6 48.2C238.333 48.0667 238.2 47.6667 238.2 47C238.2 46.2 238.2 45.4 238.2 44.6C238.2 43.6667 238.267 42.8 238.4 42C238.533 41.2 238.6 40.6 238.6 40.2C238.867 38.0667 239 36.0667 239 34.2C239.133 32.3333 239.133 30.4667 239 28.6ZM246 147C246.8 149.267 247.667 151.333 248.6 153.2C249.667 155.067 250.733 156.933 251.8 158.8C251.933 158.933 252.067 159.2 252.2 159.6C252.333 159.867 252.267 160 252 160C251.6 160 251.267 159.933 251 159.8C250.867 159.667 250.667 159.533 250.4 159.4C250.133 159.267 249.933 159.133 249.8 159C247.933 157.533 246.4 156.133 245.2 154.8C244 153.467 242.8 151.067 241.6 147.6C241.2 146.267 240.8 144.6 240.4 142.6C240 140.6 239.733 138.667 239.6 136.8C239.467 134.933 239.467 133.333 239.6 132C239.733 130.667 240.067 130 240.6 130C240.733 130 240.933 130.333 241.2 131C241.467 131.533 241.667 132.2 241.8 133C242.067 133.667 242.267 134.4 242.4 135.2C242.667 135.867 242.867 136.333 243 136.6C243.667 138.467 244.2 140.267 244.6 142C245 143.733 245.467 145.4 246 147ZM331.658 17.8C331.391 17.4 330.991 16.8 330.458 16C330.058 15.0667 329.991 14.4667 330.258 14.2C330.524 13.9333 330.924 14 331.458 14.4C332.124 14.8 332.524 15.0667 332.658 15.2C335.058 16.9333 337.258 19.3333 339.258 22.4C341.391 25.4667 343.258 28.8667 344.858 32.6C346.591 36.2 348.124 40 349.458 44C350.791 48 351.858 51.8 352.658 55.4C354.658 64.2 356.324 72.8667 357.658 81.4C359.124 89.9333 359.858 98.7333 359.858 107.8C359.858 108.067 359.858 108.867 359.858 110.2C359.991 111.533 359.791 112.333 359.258 112.6C358.858 112.333 358.391 111.667 357.858 110.6C357.458 109.533 357.191 108.8 357.058 108.4C355.458 103.467 353.991 97.8667 352.658 91.6C351.458 85.2 350.324 79.4 349.258 74.2C348.458 70.2 347.724 66.4 347.058 62.8C346.391 59.0667 345.591 55.4667 344.658 52C343.858 48.5333 342.858 45.0667 341.658 41.6C340.591 38 339.258 34.2667 337.658 30.4C337.391 29.8667 336.924 28.9333 336.258 27.6C335.724 26.2667 335.124 24.9333 334.458 23.6C333.791 22.2667 333.191 21.0667 332.658 20C332.124 18.8 331.791 18.0667 331.658 17.8ZM379.658 166C378.191 165.2 377.191 164.667 376.658 164.4C376.124 164.267 375.124 163.733 373.658 162.8C370.458 160.933 367.524 158.533 364.858 155.6C362.191 152.533 359.791 149.2 357.658 145.6C355.524 142 353.591 138.2 351.858 134.2C350.258 130.067 348.858 126 347.658 122C344.991 123.733 341.791 124.8 338.058 125.2C334.458 125.467 331.124 125.6 328.058 125.6C324.191 125.6 320.324 125.467 316.458 125.2C312.724 124.933 308.924 124.8 305.058 124.8C301.324 131.733 297.791 138.467 294.458 145C291.258 151.4 288.724 157.4 286.858 163C286.858 163.133 286.791 163.4 286.658 163.8C286.524 164.333 286.324 164.6 286.058 164.6C285.658 164.6 285.458 164.133 285.458 163.2C285.458 162.267 285.458 161.667 285.458 161.4C285.458 156.067 286.724 150.133 289.258 143.6C291.924 136.933 294.858 130.4 298.058 124L295.058 123.8C294.258 125.667 293.124 128.267 291.658 131.6C290.324 134.933 288.991 138.4 287.658 142C286.458 145.6 285.324 149.067 284.258 152.4C283.324 155.733 282.858 158.4 282.858 160.4C282.858 160.8 282.658 161 282.258 161C281.724 161 281.324 160.6 281.058 159.8C280.791 158.867 280.524 157.867 280.258 156.8C280.124 155.733 279.991 154.667 279.858 153.6C279.858 152.4 279.858 151.6 279.858 151.2C279.858 146.533 280.458 141.667 281.658 136.6C282.858 131.4 284.458 126.667 286.458 122.4L283.858 122C282.658 124.933 281.524 127.867 280.458 130.8C279.391 133.6 278.458 136.533 277.658 139.6C277.658 139.867 277.591 140.2 277.458 140.6C277.324 141 277.124 141.133 276.858 141C276.591 140.467 276.391 139.867 276.258 139.2C276.258 138.4 276.258 137.733 276.258 137.2C276.258 131.6 277.258 126.2 279.258 121C279.924 119.667 280.591 119 281.258 119C284.058 118.2 286.858 117.733 289.658 117.6C292.591 117.467 295.591 117.4 298.658 117.4C305.324 117.4 311.924 117.933 318.458 119C324.991 119.933 331.524 120.4 338.058 120.4C341.258 120.4 344.191 120.133 346.858 119.6L346.458 116.4C344.991 116.8 343.391 117.067 341.658 117.2C340.058 117.333 338.524 117.4 337.058 117.4C331.858 117.4 326.458 116.867 320.858 115.8C315.391 114.733 310.124 113.467 305.058 112C304.791 111.733 304.258 111.533 303.458 111.4C302.658 111.133 302.258 110.8 302.258 110.4C302.258 110.133 302.658 109.933 303.458 109.8C304.258 109.533 304.791 109.4 305.058 109.4C306.924 109.267 308.724 109.2 310.458 109.2C312.324 109.067 314.191 109 316.058 109C319.124 109 322.191 109.067 325.258 109.2C328.324 109.2 331.458 109.2 334.658 109.2C336.258 109.2 337.924 109.2 339.658 109.2C341.391 109.2 343.058 109.133 344.658 109L344.258 106.8H341.658C335.258 106.8 328.858 106.2 322.458 105C316.191 103.8 309.858 103.2 303.458 103.2C297.991 103.2 293.124 103.867 288.858 105.2C284.724 106.533 281.124 108.067 278.058 109.8C275.124 111.533 272.724 113.267 270.858 115C268.991 116.733 267.658 118 266.858 118.8C266.591 118.933 266.458 119 266.458 119C266.324 119 266.258 118.867 266.258 118.6C266.258 118.467 266.324 118.333 266.458 118.2C268.858 113.533 271.791 109.667 275.258 106.6C278.724 103.4 282.991 101 288.058 99.4C293.124 88.6 298.324 77.8667 303.658 67.2C309.124 56.5333 314.858 46 320.858 35.6C320.991 35.3333 321.258 34.9333 321.658 34.4C322.058 33.7333 322.458 33.4 322.858 33.4C322.991 33.5333 323.058 33.6667 323.058 33.8V34.2C323.058 35.2667 322.991 36.0667 322.858 36.6C320.324 47.4 316.591 57.8 311.658 67.8C306.724 77.8 301.658 87.6667 296.458 97.4L300.258 97.2C300.658 96.4 301.658 94.6667 303.258 92C304.991 89.3333 306.791 86.6 308.658 83.8C310.658 80.8667 312.458 78.2667 314.058 76C315.658 73.6 316.658 72.4 317.058 72.4L317.258 73C317.258 73.6667 316.858 75.1333 316.058 77.4C315.258 79.6667 314.324 82.1333 313.258 84.8C312.191 87.4667 311.124 90 310.058 92.4C309.124 94.6667 308.458 96.2667 308.058 97.2C308.858 97.2 309.658 97.2667 310.458 97.4C311.258 97.4 312.058 97.4 312.858 97.4C315.258 92.6 317.791 87.6 320.458 82.4C323.258 77.0667 325.658 71.6667 327.658 66.2C329.658 60.7333 330.991 55.2 331.658 49.6C332.458 44 332.058 38.4667 330.458 33C330.458 33.6667 330.258 35 329.858 37C329.591 39 329.191 41.1333 328.658 43.4C328.124 45.5333 327.591 47.4667 327.058 49.2C326.524 50.8 325.991 51.6 325.458 51.6C325.058 51.6 324.858 51.3333 324.858 50.8C324.991 50.2667 325.058 49.9333 325.058 49.8C325.058 46.3333 325.258 42.9333 325.658 39.6C326.191 36.1333 326.458 32.6667 326.458 29.2C326.458 24.5333 325.724 20 324.258 15.6C324.258 15.4667 324.058 14.9333 323.658 14C323.258 12.9333 323.391 12.4 324.058 12.4C324.324 12.4 324.791 12.7333 325.458 13.4C326.791 14.7333 328.058 16.5333 329.258 18.8C330.591 21.0667 331.791 23.5333 332.858 26.2C333.924 28.7333 334.924 31.2667 335.858 33.8C336.791 36.3333 337.524 38.4667 338.058 40.2C339.791 45.9333 341.191 51.7333 342.258 57.6C343.458 63.3333 344.458 69.1333 345.258 75C346.191 80.7333 347.124 86.5333 348.058 92.4C348.991 98.2667 350.058 104.067 351.258 109.8C352.458 115.4 353.858 120.867 355.458 126.2C357.191 131.533 359.258 136.6 361.658 141.4C364.058 146.2 366.791 150.667 369.858 154.8C373.058 158.8 376.724 162.333 380.858 165.4C381.524 166.067 381.724 166.467 381.458 166.6C381.324 166.867 380.724 166.667 379.658 166ZM379.258 149C379.391 149.8 379.324 150.2 379.058 150.2C378.791 150.067 378.458 149.8 378.058 149.4C377.791 149 377.458 148.533 377.058 148C376.791 147.467 376.658 147.133 376.658 147C373.458 141.133 370.924 135.2 369.058 129.2C367.191 123.067 365.724 116.933 364.658 110.8C363.591 104.533 362.658 98.2667 361.858 92C361.191 85.6 360.324 79.1333 359.258 72.6C358.324 65.9333 357.058 59.2 355.458 52.4C353.858 45.6 351.591 38.6667 348.658 31.6C348.524 31.3333 348.324 30.8667 348.058 30.2C347.791 29.5333 347.791 29.1333 348.058 29C348.324 29 348.658 29.2 349.058 29.6L349.858 30.4C352.791 33.8667 355.391 38.4667 357.658 44.2C359.924 49.9333 361.924 56.0667 363.658 62.6C365.391 69.1333 366.791 75.6 367.858 82C369.058 88.4 369.991 94 370.658 98.8C371.724 106.4 372.858 114.4 374.058 122.8C375.258 131.2 376.791 139.133 378.658 146.6L379.258 149ZM319.858 98.2C323.724 98.6 327.524 99.0667 331.258 99.6C335.124 100.133 338.991 100.533 342.858 100.8C341.391 93.7333 340.124 86.7333 339.058 79.8C337.991 72.8667 336.991 65.8 336.058 58.6C334.324 65.5333 331.924 72.2667 328.858 78.8C325.924 85.3333 322.924 91.8 319.858 98.2ZM385.658 163.8C382.991 162.6 380.658 161.467 378.658 160.4C376.658 159.2 374.924 157.6 373.458 155.6C371.191 152.533 369.391 149.467 368.058 146.4C366.858 143.333 365.858 140.467 365.058 137.8C364.791 136.733 364.524 135.533 364.258 134.2C364.124 132.867 364.191 132.2 364.458 132.2C364.991 132.2 365.658 133.067 366.458 134.8C367.258 136.533 367.991 138 368.658 139.2C370.658 143.333 373.191 147.533 376.258 151.8C379.324 155.933 382.658 159.333 386.258 162C387.324 162.933 387.658 163.533 387.258 163.8C386.858 164.067 386.324 164.067 385.658 163.8ZM267.458 125.4C267.458 125.4 267.324 125.4 267.058 125.4H266.858C266.858 125 266.924 124.6 267.058 124.2C267.191 123.8 267.324 123.4 267.458 123C268.524 120.733 269.524 119.067 270.458 118C271.524 116.8 273.191 115.533 275.458 114.2C276.791 113.4 278.658 112.6 281.058 111.8C283.458 111 285.391 110.6 286.858 110.6C287.124 110.6 287.458 110.667 287.858 110.8C288.391 110.8 288.658 111 288.658 111.4C288.658 111.8 287.924 112.333 286.458 113C285.124 113.667 284.258 114.133 283.858 114.4C278.791 117.467 275.058 119.8 272.658 121.4C270.258 123 268.524 124.333 267.458 125.4ZM438.481 122.4C442.748 126.267 446.748 130.4 450.481 134.8C454.215 139.067 457.815 143.533 461.281 148.2C461.415 148.467 461.748 149 462.281 149.8C462.948 150.467 463.148 150.933 462.881 151.2C462.748 151.333 462.215 151.267 461.281 151C460.481 150.6 459.948 150.267 459.681 150C458.615 149.333 457.348 148.467 455.881 147.4C454.548 146.333 453.081 145.2 451.481 144C450.015 142.8 448.548 141.6 447.081 140.4C445.615 139.067 444.415 137.867 443.481 136.8C442.815 136.267 441.215 134.933 438.681 132.8C436.148 130.533 433.281 128.133 430.081 125.6C426.881 123.067 423.615 120.733 420.281 118.6C416.948 116.467 414.215 115.133 412.081 114.6C411.681 114.467 411.081 114.267 410.281 114C409.615 113.733 409.348 113.267 409.481 112.6C410.548 107.533 411.881 102.6 413.481 97.8C415.081 93 416.615 88.0667 418.081 83C419.948 76.7333 421.681 70.3333 423.281 63.8C425.015 57.2667 426.015 50.2 426.281 42.6C426.281 41.9333 426.348 41.6 426.481 41.6C426.881 41.6 427.215 42.0667 427.481 43C429.081 46.6 429.748 51.2667 429.481 57C429.215 62.7333 428.481 68.7333 427.281 75C426.215 81.1333 424.815 87.0667 423.081 92.8C421.481 98.4 420.081 102.867 418.881 106.2L418.281 107.8C423.215 104.467 428.348 101.133 433.681 97.8C439.015 94.4667 443.948 91.1333 448.481 87.8C453.148 84.3333 457.148 80.8 460.481 77.2C463.948 73.4667 466.281 69.6 467.481 65.6C468.281 62.9333 468.148 60.2667 467.081 57.6C466.148 54.9333 464.415 52.4667 461.881 50.2C459.481 47.8 456.415 45.7333 452.681 44C448.948 42.2667 444.815 41.0667 440.281 40.4C434.281 39.6 428.215 39.4 422.081 39.8C422.615 43.8 422.681 47.8667 422.281 52C422.015 56 421.548 59.4667 420.881 62.4C419.148 69.6 416.948 77.0667 414.281 84.8C411.615 92.4 408.881 99.5333 406.081 106.2C405.815 106.6 405.415 107.267 404.881 108.2C404.348 109.133 403.881 109.533 403.481 109.4C403.215 109.267 403.148 108.667 403.281 107.6C403.415 106.533 403.481 105.8 403.481 105.4C403.615 103.8 403.881 101.867 404.281 99.6C404.815 97.2 405.281 94.7333 405.681 92.2C406.215 89.6667 406.748 87.2667 407.281 85C407.948 82.6 408.548 80.5333 409.081 78.8C409.348 78 409.748 76.3333 410.281 73.8C410.948 71.1333 411.615 68 412.281 64.4C412.948 60.8 413.615 56.9333 414.281 52.8C414.948 48.6667 415.481 44.6667 415.881 40.8L413.081 41.2C412.681 46.2667 411.881 51.4 410.681 56.6C409.481 61.8 408.081 67.0667 406.481 72.4C405.015 77.6 403.415 82.9333 401.681 88.4C400.081 93.7333 398.681 99 397.481 104.2C396.415 108.867 395.548 113.733 394.881 118.8C394.348 123.867 394.148 128.867 394.281 133.8C394.548 138.733 395.148 143.533 396.081 148.2C397.148 152.733 398.815 156.867 401.081 160.6C401.348 161.267 401.348 161.6 401.081 161.6C400.815 161.6 400.481 161.4 400.081 161C396.748 157.133 394.215 152.8 392.481 148C390.748 143.2 389.615 138.2 389.081 133C388.681 127.667 388.748 122.2 389.281 116.6C389.948 111 390.881 105.533 392.081 100.2C394.348 90.2 397.081 80.3333 400.281 70.6C403.481 60.8667 406.148 51.4667 408.281 42.4C404.948 43.2 401.681 44.2 398.481 45.4C395.281 46.4667 392.281 47.6667 389.481 49C388.815 49.2667 388.415 49.3333 388.281 49.2C388.148 49.0667 388.215 48.8667 388.481 48.6C388.748 48.2 389.015 47.9333 389.281 47.8C395.948 42.3333 404.081 38.4667 413.681 36.2C423.281 33.9333 433.081 33.3333 443.081 34.4C448.281 35.0667 453.015 36.5333 457.281 38.8C461.681 41.0667 465.281 43.8667 468.081 47.2C470.881 50.4 472.681 54 473.481 58C474.415 62 474.015 66 472.281 70C470.281 74.6667 467.081 79 462.681 83C458.415 87 453.548 90.7333 448.081 94.2C442.748 97.6667 437.081 100.867 431.081 103.8C425.081 106.733 419.481 109.467 414.281 112C416.415 112 418.615 112.333 420.881 113C423.148 113.667 425.348 114.533 427.481 115.6C429.748 116.533 431.815 117.6 433.681 118.8C435.681 120 437.281 121.2 438.481 122.4ZM493.881 72.4C491.881 79.3333 488.815 85.2667 484.681 90.2C480.681 95 476.215 99 471.281 102.2C466.348 105.4 461.348 107.867 456.281 109.6C451.215 111.2 446.815 112.267 443.081 112.8C442.015 113.067 441.015 113.2 440.081 113.2C439.281 113.067 438.948 112.867 439.081 112.6C438.815 112.333 439.081 112.067 439.881 111.8C440.815 111.533 441.748 111.2 442.681 110.8C449.881 108.133 456.815 104.667 463.481 100.4C470.148 96.1333 476.015 90.4667 481.081 83.4C483.481 80.0667 485.281 76.2 486.481 71.8C487.681 67.4 488.081 62.9333 487.681 58.4C487.415 53.8667 486.281 49.4667 484.281 45.2C482.415 40.9333 479.615 37.2667 475.881 34.2C471.481 30.4667 466.681 27.5333 461.481 25.4C456.281 23.2667 450.948 21.8 445.481 21C440.015 20.2 434.481 20.0667 428.881 20.6C423.281 21 417.881 21.8667 412.681 23.2C411.748 23.4667 411.215 23.6667 411.081 23.8C410.948 23.8 410.815 23.6667 410.681 23.4C410.681 23.2667 411.215 22.8 412.281 22C414.415 20.6667 417.215 19.4667 420.681 18.4C424.281 17.2 428.281 16.4 432.681 16C437.215 15.6 442.081 15.6667 447.281 16.2C452.481 16.6 457.815 17.8 463.281 19.8C468.881 21.6667 474.148 24.6 479.081 28.6C484.015 32.4667 487.948 37.2667 490.881 43C493.681 48.6 495.081 54.0667 495.081 59.4C495.215 64.6 494.815 68.9333 493.881 72.4ZM392.281 39.8C394.948 35.9333 398.481 32.8 402.881 30.4C407.281 27.8667 412.081 26 417.281 24.8C422.481 23.6 427.881 23.0667 433.481 23.2C439.215 23.3333 444.748 24 450.081 25.2C455.415 26.4 460.348 28.2 464.881 30.6C469.548 33 473.415 35.9333 476.481 39.4C478.615 41.9333 480.215 44.6667 481.281 47.6C482.481 50.4 483.081 53.3333 483.081 56.4C483.215 59.3333 482.881 62.2 482.081 65C481.415 67.8 480.415 70.4 479.081 72.8C478.815 73.3333 478.148 74.2667 477.081 75.6C476.015 76.8 475.348 77.2667 475.081 77C474.815 76.8667 475.015 76.1333 475.681 74.8C476.348 73.4667 476.815 72.4667 477.081 71.8C478.148 68.3333 478.548 64.9333 478.281 61.6C478.148 58.1333 477.481 54.9333 476.281 52C475.215 49.0667 473.748 46.4667 471.881 44.2C470.015 41.8 468.015 39.8667 465.881 38.4C460.815 35.0667 455.081 32.7333 448.681 31.4C442.281 29.9333 435.748 29.4 429.081 29.8C422.548 30.0667 416.148 31.2 409.881 33.2C403.615 35.0667 398.215 37.6 393.681 40.8C392.481 41.8667 391.681 42.2 391.281 41.8C391.015 41.6667 391.015 41.4 391.281 41C391.681 40.4667 392.015 40.0667 392.281 39.8ZM498.881 165.8C499.681 165.667 500.081 165.733 500.081 166C500.081 166.267 499.748 166.533 499.081 166.8C494.281 168.533 489.615 169.467 485.081 169.6C480.548 169.733 476.215 169.267 472.081 168.2C467.948 167.267 464.081 165.867 460.481 164C456.881 162.267 453.615 160.333 450.681 158.2C447.215 155.667 443.881 152.867 440.681 149.8C437.615 146.6 434.615 143.467 431.681 140.4C428.748 137.2 425.815 134.133 422.881 131.2C419.948 128.267 416.948 125.667 413.881 123.4C411.615 130.867 409.548 137.467 407.681 143.2C407.415 143.867 407.148 144.467 406.881 145C406.615 145.533 406.348 145.733 406.081 145.6C405.815 145.467 405.681 145.133 405.681 144.6C405.681 143.933 405.681 143.267 405.681 142.6C405.948 138.867 406.215 135.067 406.481 131.2C406.748 127.333 407.348 123.467 408.281 119.6C407.348 119.067 406.415 118.6 405.481 118.2C404.681 117.8 403.748 117.333 402.681 116.8C402.281 116.4 402.081 116.133 402.081 116C402.081 115.867 402.215 115.8 402.481 115.8C402.881 115.8 403.215 115.8 403.481 115.8C408.815 116.2 413.681 117.867 418.081 120.8C422.481 123.6 426.748 126.933 430.881 130.8C435.015 134.667 439.081 138.8 443.081 143.2C447.081 147.467 451.348 151.267 455.881 154.6C458.415 156.467 461.281 158.2 464.481 159.8C467.815 161.267 471.348 162.533 475.081 163.6C478.815 164.667 482.681 165.4 486.681 165.8C490.815 166.333 494.881 166.333 498.881 165.8ZM467.881 136.6C471.615 139.933 475.148 143.667 478.481 147.8C481.948 151.933 485.281 155.267 488.481 157.8C489.415 158.733 489.815 159.4 489.681 159.8C489.415 160.067 489.081 160.133 488.681 160C488.281 159.867 487.815 159.733 487.281 159.6C483.681 158.4 480.281 156.733 477.081 154.6C474.015 152.467 471.015 150.067 468.081 147.4C465.148 144.733 462.281 141.933 459.481 139C456.815 136.067 454.081 133.2 451.281 130.4C449.415 128.533 447.348 126.467 445.081 124.2C442.948 121.933 440.681 119.867 438.281 118C435.881 116 433.348 114.4 430.681 113.2C428.148 111.867 425.481 111.2 422.681 111.2L430.481 107.8C432.481 106.867 434.948 105.733 437.881 104.4C440.815 103.067 443.615 101.8 446.281 100.6C448.948 99.4 451.281 98.4667 453.281 97.8C455.281 97 456.348 96.6667 456.481 96.8C456.615 97.0667 456.348 97.5333 455.681 98.2C455.148 98.8667 454.348 99.6 453.281 100.4C452.348 101.2 451.415 101.933 450.481 102.6C449.548 103.267 448.881 103.667 448.481 103.8C445.948 105.267 443.548 106.667 441.281 108C439.148 109.2 436.948 110.333 434.681 111.4C437.748 112.6 440.881 114.333 444.081 116.6C447.281 118.733 450.348 121.067 453.281 123.6C456.215 126.133 458.948 128.6 461.481 131C464.015 133.267 466.148 135.133 467.881 136.6ZM403.081 149C403.481 151.267 404.015 153.467 404.681 155.6C405.348 157.733 406.148 159.533 407.081 161C407.215 161 407.281 161.067 407.281 161.2C407.415 161.467 407.348 161.6 407.081 161.6C406.815 161.6 406.481 161.467 406.081 161.2C405.815 161.067 405.548 161 405.281 161C403.548 159.933 402.148 158.667 401.081 157.2C400.148 155.6 399.348 152.867 398.681 149C398.415 147.533 398.281 145.667 398.281 143.4C398.281 141.133 398.348 139 398.481 137C398.615 134.867 398.815 133.067 399.081 131.6C399.348 130.133 399.748 129.4 400.281 129.4C400.415 129.4 400.548 129.733 400.681 130.4C400.948 131.067 401.148 131.867 401.281 132.8C401.415 133.6 401.481 134.4 401.481 135.2C401.615 136 401.681 136.533 401.681 136.8C401.948 139.067 402.148 141.2 402.281 143.2C402.415 145.2 402.681 147.133 403.081 149ZM490.681 161.6C492.815 161.733 494.415 161.733 495.481 161.6C496.681 161.6 498.215 161.467 500.081 161.2C500.215 161.2 500.548 161.133 501.081 161C501.615 161 501.948 161.067 502.081 161.2C502.215 161.467 502.015 161.8 501.481 162.2C501.081 162.6 500.748 162.867 500.481 163C498.348 163.667 496.348 164.133 494.481 164.4C492.748 164.667 490.148 164.6 486.681 164.2C485.481 164.067 484.148 163.8 482.681 163.4C481.215 163 479.881 162.533 478.681 162C477.481 161.6 476.548 161.2 475.881 160.8C475.215 160.267 475.081 159.867 475.481 159.6C475.748 159.467 476.548 159.6 477.881 160C479.348 160.267 480.348 160.467 480.881 160.6C482.748 161 484.481 161.267 486.081 161.4C487.681 161.533 489.215 161.6 490.681 161.6ZM557.414 59.4C555.547 66.6 553.214 74.0667 550.414 81.8C547.747 89.5333 544.947 96.8667 542.014 103.8C541.881 104.067 541.547 104.733 541.014 105.8C540.481 106.733 540.081 107.133 539.814 107C539.414 107 539.214 106.467 539.214 105.4C539.347 104.2 539.481 103.4 539.614 103C539.747 101.4 540.014 99.4 540.414 97C540.814 94.6 541.214 92.1333 541.614 89.6C542.147 87.0667 542.681 84.6 543.214 82.2C543.881 79.8 544.481 77.7333 545.014 76C545.281 75.4667 545.681 74.1333 546.214 72C546.747 69.8667 547.281 67.3333 547.814 64.4C548.481 61.3333 549.147 58 549.814 54.4C550.481 50.8 551.081 47.2667 551.614 43.8L549.214 43.2C548.547 47.8667 547.547 52.6667 546.214 57.6C545.014 62.4 543.614 67.2667 542.014 72.2C540.547 77 539.081 81.9333 537.614 87C536.147 91.9333 534.814 96.8667 533.614 101.8C532.547 106.467 531.747 111.333 531.214 116.4C530.681 121.467 530.481 126.6 530.614 131.8C530.747 136.867 531.347 141.867 532.414 146.8C533.481 151.6 535.081 156.067 537.214 160.2C537.614 161.133 537.747 161.6 537.614 161.6C537.347 161.6 537.147 161.533 537.014 161.4L536.614 161C532.881 156.6 530.081 151.867 528.214 146.8C526.481 141.6 525.347 136.267 524.814 130.8C524.414 125.333 524.547 119.8 525.214 114.2C525.881 108.6 526.814 103.133 528.014 97.8C530.281 87.9333 532.947 78.4667 536.014 69.4C539.081 60.2 541.681 51.2 543.814 42.4C535.814 41.0667 528.281 39.8667 521.214 38.8C514.281 37.6 507.814 37.6 501.814 38.8C501.414 38.8 501.214 38.7333 501.214 38.6C501.214 38.3333 501.281 38.2 501.414 38.2C501.681 38.0667 501.881 37.9333 502.014 37.8C506.547 35.1333 511.347 33.6667 516.414 33.4C521.614 33.1333 526.947 33.4 532.414 34.2C538.014 34.8667 543.681 35.8 549.414 37C555.281 38.0667 561.147 38.6667 567.014 38.8C570.614 38.9333 574.347 38.6667 578.214 38C582.214 37.2 586.014 36.0667 589.614 34.6C593.347 33 596.681 30.9333 599.614 28.4C602.681 25.8667 605.147 22.8667 607.014 19.4C607.281 18.7333 607.547 18.4 607.814 18.4V19V19.4C606.347 24.4667 604.081 28.6667 601.014 32C597.947 35.2 594.414 37.8 590.414 39.8C586.547 41.8 582.347 43.2 577.814 44C573.414 44.6667 569.081 44.9333 564.814 44.8C565.481 48.9333 565.481 53.7333 564.814 59.2C564.281 64.6667 563.414 70.2 562.214 75.8C561.014 81.4 559.747 86.7333 558.414 91.8C557.081 96.7333 556.014 100.733 555.214 103.8C553.614 110.2 551.747 116.733 549.614 123.4C547.481 130.067 545.547 135.933 543.814 141C543.547 141.667 543.214 142.267 542.814 142.8C542.547 143.333 542.281 143.533 542.014 143.4C541.747 143.267 541.614 142.933 541.614 142.4C541.747 141.733 541.814 141.067 541.814 140.4C542.214 130.4 543.681 120.4 546.214 110.4C548.747 100.4 551.481 90.3333 554.414 80.2C556.014 74.6 557.547 68.9333 559.014 63.2C560.614 57.4667 561.747 51.3333 562.414 44.8C561.747 44.6667 561.147 44.6 560.614 44.6C560.214 44.6 559.681 44.6 559.014 44.6C559.014 47.2667 558.881 49.8667 558.614 52.4C558.481 54.9333 558.081 57.2667 557.414 59.4ZM562.814 16.8C568.014 17.4667 573.281 18 578.614 18.4C583.947 18.8 588.547 19 592.414 19C593.747 19 594.414 19.2 594.414 19.6C594.414 20.1333 593.747 20.6 592.414 21C585.614 23.6667 578.414 24.8667 570.814 24.6C563.347 24.3333 555.747 23.6 548.014 22.4C543.347 21.7333 538.547 21.0667 533.614 20.4C528.681 19.7333 523.347 19.7333 517.614 20.4C517.081 20.5333 516.814 20.4667 516.814 20.2C516.814 19.9333 516.947 19.7333 517.214 19.6C517.481 19.4667 517.747 19.2667 518.014 19C520.547 17.1333 523.814 15.9333 527.814 15.4C531.814 14.7333 535.947 14.4667 540.214 14.6C544.614 14.6 548.814 14.8667 552.814 15.4C556.814 15.9333 560.147 16.4 562.814 16.8ZM532.814 23C538.414 23.8 544.081 24.8 549.814 26C555.681 27.2 561.347 28.5333 566.814 30C567.081 30.2667 567.614 30.5333 568.414 30.8C569.347 30.9333 569.814 31.2 569.814 31.6C569.814 31.8667 569.414 32.0667 568.614 32.2C567.814 32.3333 567.214 32.5333 566.814 32.8C565.614 33.0667 564.081 33.2 562.214 33.2C560.481 33.2 558.614 33.2 556.614 33.2C554.747 33.0667 552.881 32.9333 551.014 32.8C549.147 32.6667 547.547 32.4667 546.214 32.2C545.281 32.0667 542.947 31.8 539.214 31.4C535.614 31 531.614 30.7333 527.214 30.6C522.814 30.4667 518.547 30.5333 514.414 30.8C510.414 30.9333 507.547 31.4667 505.814 32.4C505.281 32.6667 504.947 32.8 504.814 32.8H504.614C504.614 32.2667 504.881 31.7333 505.414 31.2C506.747 29.4667 508.547 28 510.814 26.8C513.214 25.6 515.681 24.6667 518.214 24C520.747 23.3333 523.281 22.9333 525.814 22.8C528.481 22.6667 530.814 22.7333 532.814 23ZM539.414 146.8C539.814 149.067 540.281 151.333 540.814 153.6C541.481 155.867 542.281 158.067 543.214 160.2C543.747 161.267 543.814 161.8 543.414 161.8C543.147 161.8 542.747 161.667 542.214 161.4C541.947 161.267 541.747 161.067 541.614 160.8C539.881 158.8 538.481 156.933 537.414 155.2C536.481 153.467 535.681 150.667 535.014 146.8C534.747 145.333 534.547 143.467 534.414 141.2C534.414 138.933 534.481 136.733 534.614 134.6C534.747 132.467 534.947 130.667 535.214 129.2C535.481 127.733 535.881 127 536.414 127C536.547 127 536.681 127.333 536.814 128C537.081 128.667 537.281 129.467 537.414 130.4C537.547 131.2 537.681 132.067 537.814 133C537.947 133.8 538.014 134.333 538.014 134.6C538.281 136.867 538.481 139 538.614 141C538.881 143 539.147 144.933 539.414 146.8ZM597.414 21.6C600.347 19.0667 602.814 16.3333 604.814 13.4C605.081 12.8667 605.347 12.6 605.614 12.6C605.747 12.6 605.814 13.0667 605.814 14C605.814 14.5333 605.747 15 605.614 15.4C605.081 17.6667 604.481 19.4667 603.814 20.8C603.147 22.1333 601.547 23.7333 599.014 25.6C598.081 26.4 596.814 27.2 595.214 28C593.614 28.6667 592.081 29.2667 590.614 29.8C589.147 30.3333 587.814 30.6667 586.614 30.8C585.547 30.8 584.947 30.5333 584.814 30C584.814 29.8667 585.014 29.6667 585.414 29.4C585.814 29 586.281 28.6 586.814 28.2C587.481 27.8 588.081 27.4667 588.614 27.2C589.147 26.8 589.547 26.5333 589.814 26.4C591.147 25.7333 592.414 25 593.614 24.2C594.947 23.4 596.214 22.5333 597.414 21.6Z" fill="#F0D752"/>
<path d="M56.2 152.6C61 151.8 65.6 150.333 70 148.2C74.5333 146.067 78.6 143.333 82.2 140C82.4667 139.867 83 139.4 83.8 138.6C84.6 137.8 85.1333 137.533 85.4 137.8C85.6667 138.067 85.6 138.467 85.2 139C84.8 139.533 84.4667 140 84.2 140.4C81.5333 144.267 78 147.467 73.6 150C69.3333 152.4 64.8667 154.333 60.2 155.8C56.3333 156.867 52.2 157.267 47.8 157C43.4 156.6 39.2667 155.467 35.4 153.6C34.2 153.067 33.4667 152.667 33.2 152.4C32.9333 152 32.9333 151.733 33.2 151.6C33.4667 151.467 33.8667 151.4 34.4 151.4C35.0667 151.4 35.6667 151.467 36.2 151.6C37.6667 151.867 39.3333 152.133 41.2 152.4C43.2 152.533 45.1333 152.667 47 152.8C49 152.8 50.8 152.8 52.4 152.8C54 152.8 55.2667 152.733 56.2 152.6ZM29.4 93.8C28.7333 98.4667 28.4 103.067 28.4 107.6C28.4 112 28.6667 116.2 29.2 120.2C29.8667 124.067 30.8 127.533 32 130.6C33.3333 133.667 34.9333 136.2 36.8 138.2C38.9333 140.333 41.5333 142 44.6 143.2C47.8 144.267 51.2 144.8 54.8 144.8C58.5333 144.8 62.4 144.267 66.4 143.2C70.5333 142.133 74.6 140.467 78.6 138.2C79.4 137.667 79.9333 137.533 80.2 137.8C80.4667 138.067 80.3333 138.4 79.8 138.8C79.4 139.067 79 139.333 78.6 139.6C75.1333 142.267 71.4667 144.4 67.6 146C63.7333 147.6 59.8 148.6 55.8 149C51.9333 149.4 48.1333 149.2 44.4 148.4C40.8 147.467 37.5333 145.8 34.6 143.4C31.8 141 29.5333 138.133 27.8 134.8C26.0667 131.333 24.7333 127.6 23.8 123.6C23 119.467 22.5333 115.2 22.4 110.8C22.2667 106.4 22.4 102.067 22.8 97.8C23.3333 91 24.6667 84.1333 26.8 77.2C28.9333 70.2667 31.7333 63.8667 35.2 58C38.8 52.1333 43.0667 47 48 42.6C52.9333 38.2 58.4667 35.1333 64.6 33.4C67.6667 32.6 70.8 32.2667 74 32.4C77.2 32.5333 80.1333 33.1333 82.8 34.2C85.6 35.2667 88 36.8667 90 39C92 41 93.3333 43.4667 94 46.4C94.6667 49.6 94.4 52.7333 93.2 55.8C92 58.7333 90.3333 61.3333 88.2 63.6C86.0667 65.7333 83.6667 67.2667 81 68.2C78.3333 69.1333 75.8 69.1333 73.4 68.2C73.2667 68.2 73.1333 68 73 67.6C73 67.2 73.2667 67.0667 73.8 67.2C75.4 67.4667 77.2 67.1333 79.2 66.2C81.3333 65.1333 83.2 63.7333 84.8 62C86.5333 60.2667 87.8667 58.2 88.8 55.8C89.8667 53.4 90.2 50.9333 89.8 48.4C89.4 46.5333 88.5333 44.9333 87.2 43.6C86 42.1333 84.4 41 82.4 40.2C80.4 39.2667 78.1333 38.6667 75.6 38.4C73.2 38.1333 70.6667 38.2667 68 38.8C62.9333 39.7333 58.2 42 53.8 45.6C49.5333 49.0667 45.7333 53.3333 42.4 58.4C39.0667 63.4667 36.2667 69.1333 34 75.4C31.7333 81.5333 30.2 87.6667 29.4 93.8ZM45.2 160C46.6667 160.133 48.1333 160.2 49.6 160.2C51.2 160.2 52 160.4 52 160.8C52 160.933 51.7333 161 51.2 161C50.6667 161.133 50.0667 161.2 49.4 161.2C48.8667 161.2 48.2667 161.2 47.6 161.2C46.9333 161.2 46.5333 161.2 46.4 161.2C42.2667 161.2 38.2 160.6 34.2 159.4C30.2 158.2 26.4667 156.533 23 154.4C19.6667 152.133 16.6667 149.4 14 146.2C11.3333 143 9.33333 139.333 8 135.2C5.33333 127.067 3.8 119.133 3.4 111.4C3 103.667 3.33333 96.0667 4.4 88.6C4.93333 84.3333 5.93333 79.5333 7.4 74.2C9 68.7333 11.0667 63.2 13.6 57.6C16.2667 52 19.5333 46.4667 23.4 41C27.4 35.5333 32.1333 30.5333 37.6 26C43.3333 21.2 49.6667 18 56.6 16.4C63.6667 14.8 70.4 14.5333 76.8 15.6C83.2 16.6667 88.8667 18.9333 93.8 22.4C98.7333 25.7333 102 30 103.6 35.2C103.733 35.4667 103.867 36.0667 104 37C104.133 37.8 104.067 38.3333 103.8 38.6C103.667 38.7333 103.467 38.4 103.2 37.6C102.933 36.8 102.667 36.2667 102.4 36C96.8 28.4 90.4667 23.6 83.4 21.6C76.3333 19.4667 69.3333 19.2667 62.4 21C55.4667 22.6 48.9333 25.6667 42.8 30.2C36.6667 34.6 31.8 39.5333 28.2 45C21.9333 54.4667 17.1333 64.5333 13.8 75.2C10.6 85.8667 9.13333 96.8667 9.4 108.2C9.53333 113.4 10.0667 118.867 11 124.6C12.0667 130.333 14.0667 135.8 17 141C19.9333 146.333 23.9333 150.8 29 154.4C34.2 157.867 39.6 159.733 45.2 160ZM16.4 84.8C17.4667 77.7333 19.1333 70.8667 21.4 64.2C23.8 57.5333 26.8667 51.4667 30.6 46C34.4667 40.4 39.2 35.6 44.8 31.6C50.4 27.6 57 24.8 64.6 23.2C67.2667 22.6667 70.2667 22.4667 73.6 22.6C76.9333 22.6 80.2667 23.2 83.6 24.4C86.9333 25.4667 90 27.1333 92.8 29.4C95.7333 31.6667 98.1333 34.8 100 38.8C101.733 42.6667 102.333 46.4667 101.8 50.2C101.267 53.9333 100.133 57.3333 98.4 60.4C96.6667 63.3333 94.5333 65.8 92 67.8C89.4667 69.8 87 70.9333 84.6 71.2C83.1333 71.4667 82.3333 71.4667 82.2 71.2C82.0667 70.8 82.8 70.3333 84.4 69.8C86.9333 69 89.4667 67 92 63.8C94.6667 60.4667 96.2667 56.2667 96.8 51.2C97.0667 48.6667 96.7333 46.2 95.8 43.8C94.8667 41.2667 93.5333 39.0667 91.8 37.2C90.0667 35.3333 88 33.7333 85.6 32.4C83.2 31.0667 80.6667 30.2 78 29.8C72.2667 29 67 29.4 62.2 31C57.4 32.6 53.2 34.6667 49.6 37.2C46.1333 39.6 43.2667 42 41 44.4C38.8667 46.8 37.5333 48.4 37 49.2C32.8667 54.4 29.2667 60.0667 26.2 66.2C23.1333 72.2 20.6 78.5333 18.6 85.2C18.6 85.3333 18.4667 85.8 18.2 86.6C18.0667 87.4 17.8667 88.2667 17.6 89.2C17.4667 90 17.2667 90.8 17 91.6C16.7333 92.2667 16.5333 92.6 16.4 92.6C16.1333 92.6 16 92.2 16 91.4C16 90.6 16 89.8 16 89C16 88.0667 16.0667 87.2 16.2 86.4C16.3333 85.6 16.4 85.0667 16.4 84.8Z" fill="#EDEBDD"/>
</svg>
